<svg width="200" height="200" viewBox="0 0 200 200" fill="none" xmlns="http://www.w3.org/2000/svg">
<path fill-rule="evenodd" clip-rule="evenodd" d="M108.397 173.124H110.761C110.895 172.916 110.904 172.909 110.965 172.824C111.116 172.611 111.287 172.414 111.476 172.233C112.142 171.507 113.065 171.068 114.049 171.01C114.096 171.01 114.144 171.01 114.191 171.01C114.78 171.045 115.358 171.191 115.893 171.44C117.764 172.267 119.778 172.723 121.822 172.784L121.861 172.787C122.742 172.891 123.624 172.995 124.505 173.1L142.868 175.264C142.91 175.255 142.954 175.26 142.993 175.28L143.242 175.308C143.572 175.349 143.906 175.346 144.235 175.299C145.613 175.131 146.83 174.242 147.707 173.082C148.189 172.496 148.47 171.771 148.509 171.013L149.082 165.222H121.821C121.77 165.218 121.72 165.206 121.671 165.189C121.561 165.138 121.451 165.089 121.34 165.041C118.548 163.83 115.539 163.198 112.496 163.182C110.98 163.18 109.463 163.18 107.946 163.182C107.689 163.182 107.432 163.194 107.176 163.22C106.912 163.249 106.652 163.288 106.397 163.333C105.052 163.592 103.789 164.174 102.718 165.028L102.679 165.062L102.647 165.087L102.62 165.11L102.575 165.147L102.558 165.153C102.536 165.182 102.512 165.211 102.486 165.238C100.963 166.844 100.079 168.928 99.5244 171.149C99.4374 171.551 99.6931 171.948 100.096 172.035C100.133 172.043 100.171 172.049 100.209 172.051C100.597 171.971 100.897 171.666 100.971 171.278C101.37 169.444 102.32 167.543 104.103 167.143C104.392 167.077 104.663 167.378 104.391 167.749C103.336 169.233 103.062 171.223 103.027 173.127H104.597C104.614 172.642 104.686 172.161 104.812 171.692C105.128 170.378 105.606 169.108 106.236 167.912C106.297 167.79 106.427 167.718 106.563 167.733C106.857 167.771 106.923 168.029 106.664 168.553C105.913 169.977 105.43 171.525 105.236 173.123H107.79C107.775 172.684 107.815 172.246 107.908 171.817C108.175 170.473 108.642 169.176 109.294 167.97C109.345 167.815 109.497 167.715 109.66 167.732C110.154 167.805 109.693 168.615 109.43 169.213C108.856 170.445 108.507 171.769 108.397 173.124ZM102.356 173.124H92.954L90.8374 165.222H101.582C100.238 166.779 99.4495 168.783 98.924 170.785C98.702 171.65 99.1199 172.488 99.8806 172.677C99.9481 172.697 100.018 172.709 100.088 172.713C100.693 172.925 101.394 172.33 101.57 171.689C101.878 170.459 102.278 168.994 103.36 168.207C102.689 169.759 102.347 171.433 102.356 173.124ZM118.537 127.628H114.173C109.203 127.613 105.068 123.271 104.996 118.565C104.944 113.024 104.996 107.483 104.996 101.942L105.023 101.964C106.302 102.983 107.788 103.71 109.378 104.093C110.89 104.454 112.469 104.399 114.056 104.395H114.091H114.152H114.194H114.218H114.229H114.249C114.93 104.376 115.607 104.294 116.272 104.15H116.279L116.379 104.128L116.392 104.125C118.509 103.653 120.443 102.573 121.955 101.016L121.979 101.083L122.002 101.147L122.006 101.16C123.396 104.861 126.386 108.444 130.059 110.686C130.572 111.002 131.101 111.29 131.645 111.548C131.744 111.615 131.854 111.665 131.969 111.697L131.987 111.705L132.123 111.735H134.517C134.592 111.735 134.666 111.737 134.741 111.743C134.881 111.753 135.021 111.77 135.159 111.795C135.954 111.936 136.684 112.325 137.245 112.907C138.925 114.67 138.261 117.805 136.237 118.878C135.005 119.493 133.549 119.296 132.124 119.296L131.996 119.322C131.779 119.467 131.783 119.595 131.788 119.624V119.631V130.746C131.8 130.877 131.878 130.994 131.995 131.056L132.718 131.081L132.696 131.332L132.691 131.394C132.426 134.024 130.748 136.301 128.313 137.331C127.202 137.726 126.026 137.904 124.848 137.857H124.592C124.507 137.857 124.421 137.857 124.335 137.857H124.258H124.234H124.179H124.153L124.092 137.854H124.076L123.997 137.849H123.987L123.916 137.844H123.904C120.858 137.534 118.403 135.213 117.923 132.189C117.882 131.853 117.864 131.535 117.858 131.276C117.858 131.211 117.858 131.145 117.862 131.08H118.536C118.992 130.99 118.872 130.744 118.872 130.744V128.304H124.591C124.778 128.301 124.926 128.147 124.923 127.96C124.921 127.892 124.9 127.825 124.86 127.77C124.815 127.709 124.803 127.658 124.619 127.635C122.593 127.549 120.563 127.635 118.535 127.635L118.537 127.628ZM113.567 122.152C113.937 122.19 114.299 122.66 114.805 122.828C115.749 123.124 116.778 122.899 117.513 122.237C117.615 122.167 117.743 122.145 117.863 122.176C118.121 122.28 117.964 122.735 117.964 122.735C117.937 122.76 117.91 122.784 117.882 122.808C116.631 123.883 114.772 123.787 113.35 122.759C113.196 122.658 113.154 122.452 113.254 122.298C113.322 122.194 113.443 122.137 113.567 122.151V122.152ZM95.2757 73.1502H93.1096V69.3667C93.0592 69.0946 92.9258 69.0674 92.9258 69.0674C90.2044 67.6879 91.7035 63.683 94.1555 63.636H94.2297C97.0597 63.6901 97.7427 67.3989 95.9211 68.7815C95.7003 68.9495 95.3348 69.0482 95.2757 69.3667V73.1502ZM94.1159 41.5531C87.7255 41.6122 81.819 47.0779 81.7979 53.948V57.3374C83.125 57.3128 84.4524 57.2947 85.7799 57.2826C85.7601 55.3003 85.622 53.3291 86.2573 51.5259C86.2707 51.4873 86.2849 51.449 86.299 51.411L86.3101 51.3805C86.3292 51.3294 86.349 51.2797 86.3692 51.2279L86.3853 51.187L86.3974 51.1581V51.1544L86.4045 51.1376L86.4236 51.0902L86.4267 51.0835C87.7568 48.0187 90.742 46.0018 94.0816 45.9118C94.1364 45.9118 94.1908 45.9118 94.2455 45.9118C94.7478 45.9168 95.2481 45.9705 95.74 46.0723C96.299 46.1647 96.846 46.3193 97.3705 46.5333C100.434 47.8309 102.471 50.7821 102.598 54.1063V54.1627V54.2017V54.2242C102.598 54.2578 102.598 54.289 102.598 54.3213V57.3115C103.926 57.3212 105.255 57.3303 106.582 57.3387C106.582 54.9224 106.707 52.508 106.024 50.2714L106.016 50.2445L105.991 50.1639L105.955 50.0544C104.242 45.1044 99.6538 41.7234 94.4186 41.5541L94.2644 41.5524L94.1159 41.5531ZM47.5102 55.9404H20.0947V23.7953H47.5106L47.5102 55.9404ZM44.8698 26.2399H22.7355C22.7355 26.2399 22.4278 26.4351 22.3995 26.5758V48.7101C22.459 49.0095 22.5954 49.0558 22.6747 49.0555H22.6851C22.7023 49.0548 22.7191 49.0515 22.7352 49.0461H44.8695C44.8889 49.0528 44.9094 49.0558 44.9299 49.0558H44.941C45.0213 49.0518 45.148 48.9964 45.2051 48.7108V26.5758L44.9978 26.2657L44.8698 26.2399Z" fill="#FFD2BB"/>
<path fill-rule="evenodd" clip-rule="evenodd" d="M113.883 175.955L119.052 175.924C120.167 175.879 121.122 175.116 121.415 174.041V174.038L121.426 173.992L121.428 173.983L121.437 173.942L121.44 173.93L121.448 173.89L121.45 173.877L121.459 173.824L102.691 173.805C102.63 173.845 102.552 173.845 102.491 173.805L92.6966 173.795L92.3724 173.547L90.0763 164.973C90.074 164.942 90.0726 164.913 90.0733 164.885C88.3783 158.47 86.6863 152.054 84.9019 145.664C84.8616 145.505 84.7914 145.355 84.6956 145.223C84.405 144.802 83.9323 144.545 83.4216 144.528C71.3731 144.401 59.3235 144.528 47.274 144.528C46.6608 144.556 46.1864 145.075 46.2143 145.688C46.217 145.746 46.2241 145.803 46.2355 145.86C48.7506 155.52 51.3017 165.172 53.9868 174.788C54.1921 175.441 54.7851 175.897 55.4699 175.925C56.5248 175.937 57.5798 175.947 58.6351 175.957L113.883 175.955ZM67.6639 155.814C71.6526 155.89 75.4428 161.025 72.768 164.043C72.0931 164.771 71.1399 165.176 70.1474 165.157H70.0691C67.7603 165.161 65.063 163.496 64.1895 160.962C63.4551 158.828 64.5927 155.87 67.5412 155.814H67.6625L67.6639 155.814ZM105.344 161.139L105.186 162.943H105.184C104.403 163.198 103.66 163.557 102.975 164.009L102.939 164.033L102.916 164.048H102.914C102.743 164.163 102.577 164.283 102.414 164.409C102.363 164.449 102.312 164.49 102.261 164.531L102.24 164.548H100.034L100.332 161.136L105.344 161.139ZM149.444 161.139L149.145 164.551H138.445L138.744 161.139L149.444 161.139ZM71.8999 112.183C70.7256 112.115 69.7889 111.178 69.7204 110.004C69.7012 109.002 69.1559 107.995 68.1749 107.976C65.2119 107.958 62.2492 107.976 59.2869 107.976C58.4416 108.005 57.7599 108.677 57.7189 109.522C57.6715 117.027 57.5798 124.534 57.7189 132.038C57.7676 132.867 58.4342 133.526 59.2644 133.565C68.1588 133.621 77.0551 133.733 85.9482 133.565C86.7777 133.517 87.4365 132.85 87.4745 132.02C87.5131 125.916 87.5901 119.812 87.4745 113.709C87.4261 112.879 86.7589 112.221 85.929 112.183C81.2612 112.153 76.5925 112.271 71.9254 112.183L71.8999 112.183ZM158.204 122.723C158.204 124.921 158.218 127.119 158.246 129.317C158.28 129.902 158.748 130.37 159.334 130.404C166.816 130.496 174.299 130.496 181.783 130.404C182.369 130.37 182.837 129.903 182.871 129.317C182.916 125.804 182.926 122.291 182.902 118.778L170.471 124.73C170.38 124.784 170.267 124.784 170.177 124.728L158.216 118.787C158.208 120.045 158.204 121.302 158.204 122.56C158.215 122.613 158.216 122.668 158.205 122.721L158.204 122.723ZM182.896 118.042C182.89 117.225 182.881 116.408 182.871 115.591C182.837 115.005 182.369 114.537 181.783 114.503C174.311 114.41 166.837 114.503 159.364 114.503C158.766 114.523 158.281 114.995 158.246 115.592C158.236 116.408 158.228 117.224 158.221 118.04L170.327 124.054L182.896 118.042ZM134.509 119.96H134.545C135.095 119.953 135.639 119.847 136.151 119.646C136.169 119.64 136.158 119.656 136.158 119.656C135.899 121.56 134.371 123.04 132.459 123.237V119.961L134.509 119.96ZM106.163 84.9895C105.656 84.9868 105.153 85.0722 104.676 85.2422C104.099 85.4511 103.569 85.7727 103.117 86.1883C102.236 86.9903 101.683 88.0896 101.565 89.2749L101.547 89.3381C101.547 92.0511 101.375 94.8317 102.326 97.2615C103.683 100.557 106.628 102.931 110.137 103.558C110.637 103.645 111.142 103.698 111.648 103.719C111.716 103.721 111.785 103.723 111.853 103.723C112.564 103.727 113.275 103.723 113.986 103.723H114.017C114.606 103.713 115.193 103.661 115.774 103.567C117.213 103.311 118.582 102.756 119.794 101.94L119.844 101.907L119.878 101.885C120.607 101.384 121.271 100.794 121.853 100.128L122.249 100.045C122.252 100.044 122.256 100.044 122.259 100.045C122.273 100.048 122.286 100.056 122.295 100.067C122.36 100.142 122.407 100.231 122.436 100.326C122.459 100.386 122.483 100.46 122.51 100.547C123.201 102.744 124.549 104.713 126.165 106.443C126.847 107.169 127.567 107.858 128.322 108.507L128.327 108.511L128.356 108.536C128.508 108.667 128.661 108.795 128.817 108.921C129.811 109.744 130.903 110.441 132.068 110.997L132.095 111.01L132.196 111.056C132.984 111.056 133.773 111.043 134.561 111.056H134.583H134.6H134.624H134.657C135.181 111.075 135.698 111.185 136.185 111.38L136.17 98.7105L136.162 98.5976L136.158 98.5459L136.153 98.4848L136.147 98.4176L136.143 98.3722L136.135 98.297L136.131 98.26L136.122 98.1804L136.118 98.1468L136.107 98.0651L136.103 98.0349L136.091 97.9543L136.087 97.9233L136.075 97.8461L136.069 97.8125L136.057 97.7396L136.05 97.7009L136.039 97.6354L136.03 97.5897L136.019 97.5326L136.008 97.4778L135.999 97.4315L135.985 97.3666L135.977 97.333L135.96 97.2558L135.955 97.2353L135.934 97.1435V97.1385C134.923 92.9724 131.014 89.5907 126.497 89.577H111.307L111.29 89.5729C110.923 89.4839 110.936 88.819 110.802 88.3614C110.231 86.4084 108.26 85.0204 106.225 84.9875L106.163 84.9895ZM86.1182 58.0104C86.1702 58.043 86.2361 58.043 86.2882 58.0104H102.128C102.173 58.0292 102.224 58.0292 102.269 58.0104H106.707C106.794 58.0121 106.881 58.0215 106.966 58.039C107.592 58.2063 108.077 58.7012 108.232 59.3305V59.3402L108.235 59.3604L108.239 59.3809V59.3937L108.242 59.4199V59.4289L108.244 59.4572V59.4652L108.246 59.4944V59.5022V59.5385C108.355 65.4339 108.283 71.3313 108.246 77.2281C108.208 78.0586 107.549 78.7262 106.719 78.7736C103.588 78.832 100.458 78.8542 97.3267 78.8562H96.5443C91.5869 78.8542 86.6292 78.8048 81.6721 78.7739C80.8416 78.7359 80.174 78.0761 80.1266 77.2459C80.0181 71.3505 80.0894 65.453 80.1266 59.5559V59.5176C80.1865 58.6881 80.8621 58.0376 81.6933 58.0088L86.1182 58.0104ZM95.6119 73.8216L95.7406 73.7961L95.9476 73.4859V69.5678C96.3598 69.3309 96.7206 69.0141 97.0086 68.6361C98.6754 66.4435 96.8369 63.0669 94.2989 62.9668L94.2388 62.9648H94.148L94.057 62.9668C90.6656 63.1176 89.8368 67.5099 91.9642 69.2412C92.1107 69.3665 92.2699 69.4757 92.4393 69.5674V73.4856L92.4651 73.6139C92.5888 73.7994 92.7003 73.8233 92.7497 73.8236H92.7604C92.7652 73.8233 92.7699 73.8226 92.7746 73.8216H95.6119ZM161.957 30.1981V34.2221C161.957 34.2221 161.796 34.4573 162.293 34.5581H165.61V49.5377H154.594C154.542 49.5051 154.476 49.5051 154.424 49.5377H150.213V30.1981H161.957ZM34.2595 31.374C32.6824 31.4036 31.615 34.0871 33.5412 34.93C33.7347 35.0137 33.9434 35.0567 34.154 35.056H34.1876C35.377 35.0352 36.5973 33.7545 35.9566 32.426C35.6414 31.793 35.0004 31.3878 34.2935 31.3744L34.2595 31.374Z" fill="#FFC5A7"/>
<path fill-rule="evenodd" clip-rule="evenodd" d="M67.5508 156.485C66.2684 156.51 65.0041 157.27 64.6762 158.61C64.0126 161.323 66.8936 164.557 69.8298 164.573H69.9084C70.3075 164.567 70.7036 164.499 71.0816 164.371C71.9555 164.074 72.6228 163.36 72.8596 162.467C73.5786 159.701 70.6707 156.515 67.6227 156.484L67.5508 156.485ZM63.6162 91.7846L74.9252 78.5897L86.2346 91.7846H79.7966C79.7966 91.7846 79.5594 91.6237 79.4606 92.1206V105.507H70.3892V92.1203L70.3636 91.9919L70.0535 91.7846H63.6162ZM123.405 58.2688C123.477 58.2654 123.549 58.2627 123.622 58.2604C123.694 58.258 123.768 58.257 123.844 58.2567C123.9 58.2567 123.956 58.2567 124.012 58.2567C129.358 58.3312 134.199 63.1179 134.054 68.7291C135.338 69.1578 136.58 69.7048 137.763 70.3623C139.481 71.3719 141.008 72.6758 142.274 74.2143L142.307 74.255C142.483 73.6989 142.702 72.9161 142.702 72.9161C142.776 72.8227 142.889 72.7689 143.008 72.7703L147.653 73.1647C148.106 70.8864 148.231 68.5551 148.025 66.2412L143.358 66.0866C143.358 66.0866 143.137 66.3709 142.94 65.1963C142.701 63.7996 142.312 62.4329 141.779 61.1199C141.779 61.1199 141.609 60.9764 141.917 60.7063L145.907 58.2946C144.933 56.186 143.664 54.2266 142.138 52.4751L138.271 55.0934C138.271 55.0934 138.259 55.4529 137.41 54.6183C136.396 53.6292 135.277 52.7523 134.074 52.0031C134.074 52.0031 133.853 51.9873 133.942 51.5878L135.753 47.2917C133.726 46.1571 131.548 45.3175 129.284 44.7987L127.694 49.1896C127.694 49.1896 127.896 49.488 126.72 49.3119C125.318 49.1076 123.897 49.0555 122.484 49.1563C122.484 49.1563 122.295 49.2743 122.133 48.898L121.073 44.3579C119.491 44.5457 117.931 44.8871 116.415 45.3773C116.415 45.3773 117.351 46.3946 118.039 47.2681C120.116 49.9083 121.719 52.8884 122.777 56.0762C122.951 56.5989 123.111 57.1295 123.255 57.6677C123.306 57.8676 123.357 58.0682 123.405 58.2688ZM170.325 35.6194V54.9587H154.929V50.2083H165.945C165.953 50.2143 166.183 50.3602 166.28 49.8723V35.6194H170.325ZM34.4764 40.6591L34.0753 40.6487L29.7882 37.2775L23.0713 40.9776V48.3745H44.5343V43.3977L38.148 38.0664L34.4764 40.6591ZM162.627 33.8861H165.225L162.627 30.785V33.8861Z" fill="#D25412"/>
<path fill-rule="evenodd" clip-rule="evenodd" d="M28.8089 175.955C29.1284 175.973 29.2833 176.6 28.8089 176.627C28.1853 176.639 27.4724 176.769 27.3467 176.4C27.294 176.214 27.4018 176.021 27.5873 175.969C27.6085 175.963 27.63 175.959 27.6522 175.957C28.0379 175.949 28.4236 175.948 28.8089 175.955ZM47.8465 56.6123H19.7587C19.2621 56.5139 19.4227 56.2764 19.4227 56.2764V23.4597C19.5208 22.9671 19.755 23.1213 19.7587 23.1237H47.8465L47.9752 23.1492L48.1821 23.4593V39.5315H61.7923L61.84 39.5352C62.0769 39.5866 62.1115 39.6411 62.1279 39.8672V56.9315C63.6801 56.9429 65.2183 57.2272 66.672 57.7715C66.9129 57.8615 67.2405 57.9986 67.2405 57.9986C67.2704 57.8817 67.301 57.7647 67.3326 57.6475C70.4105 46.2991 80.6833 37.5019 92.4466 36.3532C98.7829 35.734 105.212 37.4266 110.611 40.8291V35.2854C110.639 35.0032 110.699 34.9746 110.947 34.9495H149.542V29.8624C149.64 29.3695 149.874 29.5241 149.878 29.5264H162.293L162.421 29.552L162.425 29.5577L162.443 29.562L162.55 29.6464L166.203 34.006C166.216 34.0305 166.229 34.0561 166.239 34.0823L166.255 34.0934L166.281 34.2217V34.9481H170.662L170.79 34.9736L170.997 35.2834V55.294C170.899 55.7909 170.661 55.6299 170.661 55.6299H154.594C154.098 55.5312 154.258 55.294 154.258 55.294V50.2083H149.877C149.381 50.1098 149.541 49.8723 149.541 49.8723V35.6194H111.282L111.277 41.2581C112.878 42.3255 114.374 43.5428 115.745 44.8941C117.515 44.2843 119.346 43.8724 121.207 43.6667C121.276 43.661 121.346 43.661 121.416 43.6667C121.531 43.7067 121.621 43.7988 121.658 43.915L122.721 48.4686C122.835 48.4618 122.948 48.4561 123.062 48.4511C124.422 48.397 125.784 48.4793 127.128 48.6963L128.688 44.2836C128.688 44.2836 128.44 43.9208 129.434 44.1445C131.819 44.6952 134.111 45.5885 136.24 46.7961C136.423 46.8821 136.524 47.0796 136.488 47.2778L134.674 51.5864C134.77 51.6479 134.865 51.7101 134.96 51.7729C136.092 52.5282 137.145 53.395 138.104 54.3599L141.96 51.7057C141.96 51.7057 141.984 51.279 142.645 52.0313C144.251 53.8788 145.581 55.9488 146.594 58.1773C146.69 58.3541 146.656 58.5738 146.511 58.7132L142.509 61.1323C142.551 61.2378 142.591 61.3443 142.631 61.4511C143.103 62.7275 143.446 64.0482 143.654 65.3931L148.333 65.5134C148.333 65.5134 148.602 65.1821 148.696 66.1793C148.91 68.6179 148.769 71.0745 148.277 73.4728C148.252 73.6727 148.095 73.8306 147.896 73.8575L143.237 73.4617C143.22 73.5272 143.203 73.593 143.184 73.6582C143.089 74.1128 142.953 74.558 142.778 74.9884C144.166 76.8094 145.149 78.9065 145.661 81.1388C145.782 81.6777 145.874 82.2226 145.936 82.7716H163.747C163.761 78.6283 163.786 74.4851 163.786 70.3404C163.813 69.3758 164.576 68.594 165.54 68.5436C170.107 68.4851 174.675 68.4851 179.244 68.5436C180.189 68.5957 180.945 69.351 180.997 70.2967C181.104 78.8205 180.997 87.3456 180.997 95.8704C180.968 96.834 180.206 97.6148 179.243 97.6673C174.69 97.7247 170.138 97.6673 165.583 97.6673C164.619 97.6407 163.836 96.8774 163.786 95.9138C163.734 91.7564 163.733 87.5983 163.744 83.4406H145.998C146.285 88.1076 144.681 92.6937 141.548 96.1647V122.296L157.558 122.301C157.565 120.073 157.578 117.845 157.578 115.615C157.607 114.658 158.365 113.883 159.321 113.831C166.814 113.737 174.308 113.737 181.803 113.831C182.744 113.881 183.496 114.632 183.546 115.573C183.604 120.145 183.546 124.717 183.546 129.29C183.517 130.247 182.759 131.023 181.802 131.074C174.323 131.166 166.842 131.074 159.362 131.074C158.405 131.045 157.629 130.288 157.578 129.332C157.552 127.21 157.55 125.087 157.555 122.966H141.21C140.938 122.942 140.896 122.879 140.874 122.63V96.8696C139.747 97.9844 138.46 98.9251 137.056 99.6609C136.981 99.6999 136.915 99.7318 136.856 99.7584V111.824C138.497 112.969 139.443 115.201 138.631 117.19C138.271 118.052 137.65 118.778 136.855 119.268C136.855 119.363 136.849 119.458 136.842 119.552C136.608 121.864 134.772 123.687 132.459 123.905V130.403L133.007 130.423C133.032 130.415 133.058 130.408 133.084 130.403H146.753H146.756H146.831C149.96 130.519 152.402 133.149 152.286 136.278C152.284 136.336 152.281 136.394 152.277 136.453L150.145 160.833L149.787 164.916V164.919L149.182 171.031C149.173 172.775 147.783 174.324 146.494 175.167C145.848 175.588 145.115 175.857 144.35 175.955H164.096C164.111 175.955 164.126 175.957 164.14 175.961C164.322 176.016 164.425 176.207 164.37 176.389C164.337 176.499 164.251 176.585 164.14 176.618C164.126 176.623 164.111 176.625 164.096 176.625H112.889C101.118 176.671 89.3476 176.649 77.5779 176.625H34.283C34.114 176.636 33.9679 176.508 33.9571 176.339C33.9568 176.331 33.9565 176.324 33.9565 176.316C33.9336 176.14 34.0579 175.979 34.234 175.957C34.2501 175.955 34.2666 175.954 34.283 175.954H53.9482C53.6646 175.684 53.4556 175.346 53.3414 174.972C50.6536 165.342 47.954 155.71 45.578 145.997C45.3922 145.015 46.0376 144.068 47.02 143.882C47.0865 143.869 47.1537 143.861 47.2212 143.856C59.2896 143.584 71.3646 143.729 83.435 143.856C84.4272 143.896 85.2822 144.566 85.5584 145.519L90.6572 164.549H99.3591L99.6893 160.772C99.6789 160.733 99.6826 160.69 99.6997 160.653L101.822 136.396C101.839 136.164 101.873 135.933 101.923 135.706C102.591 132.675 105.237 130.488 108.34 130.404H118.203V128.3C115.677 128.3 113.156 128.548 110.854 127.724C106.978 126.27 104.387 122.591 104.326 118.453V101.549H80.1313V105.843C80.1313 105.843 80.1717 105.987 79.9244 106.153L79.796 106.178H70.0527C70.0476 106.178 69.9048 106.214 69.7429 105.971L69.717 105.843V101.549C62.4498 101.549 55.1829 101.572 47.9157 101.549C41.7337 101.491 35.8376 97.1008 34.0677 91.1577C33.9897 90.8959 33.9198 90.6325 33.858 90.3668H28.2408L28.2357 117.889C31.277 117.9 34.317 117.928 37.3596 117.947C38.5667 118.002 39.5287 118.976 39.5696 120.184V122.091L45.587 119.135L45.966 119.192L46.0708 119.436V132.208L45.8514 132.522L45.587 132.509L39.5696 129.552C39.5696 130.823 39.7356 132.179 38.9531 133.002C38.5416 133.428 37.9798 133.677 37.3875 133.696C31.067 133.813 24.7456 133.813 18.4232 133.696C17.2476 133.629 16.3092 132.69 16.2416 131.515C16.1708 127.72 16.1708 123.923 16.2416 120.125C16.3092 118.949 17.2476 118.011 18.4232 117.944C21.4718 117.886 24.5208 117.876 27.5698 117.883V90.0311C27.5937 89.7593 27.6562 89.7173 27.9058 89.6952H33.7213C32.2369 81.7997 37.4342 74.1961 45.3293 72.7118C46.1219 72.5629 46.9252 72.4799 47.7316 72.4641C47.7316 72.4641 47.5407 69.2942 48.2849 66.8503C49.9927 61.2415 55.5354 57.1832 61.458 56.9423V40.2031L48.1835 40.1998V56.2764L48.085 56.5139C48.0172 56.5697 47.9338 56.6039 47.8465 56.6123ZM32.6912 175.956C33.0117 175.98 33.1578 176.59 32.6912 176.626C31.9308 176.645 31.1702 176.626 30.4092 176.626C30.0635 176.617 29.9993 175.987 30.3917 175.954C31.1571 175.935 31.9234 175.936 32.6912 175.956ZM174.621 175.956C174.957 175.981 175.027 176.594 174.621 176.626C173.878 176.644 173.134 176.626 172.39 176.626C172.054 176.617 171.92 175.99 172.373 175.954C173.121 175.936 173.87 175.936 174.62 175.956H174.621ZM170.375 176.628H165.947C165.588 176.615 165.514 175.972 165.947 175.956C167.431 175.956 168.916 175.903 170.399 175.956C170.75 175.994 170.765 176.612 170.373 176.626L170.375 176.628ZM113.884 175.956L119.054 175.925C120.168 175.879 121.124 175.117 121.417 174.041V174.038L121.428 173.992L121.43 173.983L121.439 173.942L121.442 173.93L121.449 173.89L121.452 173.877L121.46 173.825L102.692 173.806C102.632 173.845 102.554 173.845 102.493 173.806L92.6983 173.796L92.3741 173.547L90.0763 164.973C90.074 164.942 90.0726 164.913 90.0733 164.885C88.3783 158.47 86.6863 152.054 84.9019 145.664C84.8616 145.505 84.7914 145.355 84.6956 145.223C84.405 144.802 83.9323 144.545 83.4216 144.528C71.373 144.401 59.3235 144.528 47.274 144.528C46.6608 144.556 46.1864 145.075 46.2143 145.688C46.217 145.746 46.224 145.803 46.2355 145.86C48.7506 155.52 51.3017 165.172 53.9868 174.787C54.1921 175.441 54.7851 175.896 55.4698 175.925C56.5248 175.936 57.5798 175.947 58.6351 175.957L113.884 175.956ZM122.159 173.5V173.504C122.189 174.161 121.971 174.805 121.549 175.309C121.387 175.534 121.196 175.736 120.981 175.91L142.468 175.892L122.159 173.497V173.5ZM108.4 173.124H110.763C110.898 172.917 110.907 172.91 110.967 172.824C111.118 172.612 111.289 172.414 111.478 172.234C112.144 171.507 113.068 171.069 114.052 171.011C114.099 171.011 114.146 171.011 114.193 171.011C114.782 171.046 115.36 171.191 115.895 171.441C117.767 172.267 119.78 172.724 121.825 172.785L121.863 172.787C122.745 172.891 123.626 172.996 124.507 173.101L142.87 175.264C142.912 175.255 142.956 175.261 142.995 175.28L143.245 175.308C143.575 175.349 143.908 175.346 144.237 175.3C145.615 175.132 146.832 174.242 147.709 173.082C148.191 172.496 148.472 171.771 148.51 171.013L149.083 165.222H121.822C121.771 165.218 121.72 165.206 121.672 165.189C121.562 165.138 121.451 165.089 121.341 165.041C118.548 163.831 115.54 163.198 112.496 163.182C110.98 163.18 109.464 163.18 107.947 163.182C107.689 163.182 107.433 163.194 107.177 163.22C106.913 163.249 106.652 163.288 106.398 163.333C105.053 163.592 103.79 164.174 102.718 165.028L102.679 165.062L102.647 165.087L102.621 165.11L102.576 165.147L102.559 165.153C102.537 165.182 102.513 165.211 102.487 165.238C100.964 166.844 100.08 168.928 99.525 171.149C99.438 171.551 99.6937 171.948 100.096 172.035C100.133 172.043 100.171 172.049 100.21 172.051C100.597 171.971 100.898 171.666 100.972 171.278C101.371 169.444 102.32 167.543 104.103 167.143C104.392 167.077 104.663 167.378 104.391 167.749C103.336 169.233 103.062 171.223 103.028 173.127H104.597C104.615 172.642 104.687 172.161 104.813 171.692C105.128 170.378 105.607 169.108 106.237 167.912C106.297 167.79 106.428 167.718 106.564 167.733C106.858 167.771 106.924 168.029 106.665 168.553C105.914 169.977 105.43 171.525 105.237 173.123H107.79C107.776 172.684 107.816 172.246 107.909 171.817C108.175 170.473 108.642 169.176 109.294 167.97C109.345 167.815 109.498 167.715 109.66 167.732C110.155 167.805 109.694 168.616 109.43 169.213C108.857 170.445 108.507 171.769 108.398 173.124L108.4 173.124ZM118.257 172.936C117.23 172.649 116.222 172.3 115.237 171.891C113.961 171.387 112.58 171.913 111.616 173.096L118.974 173.124C118.909 173.11 118.844 173.095 118.78 173.081C118.603 173.039 118.429 172.99 118.255 172.936L118.257 172.936ZM101.584 165.222H90.839L92.9556 173.124H102.358C102.348 171.434 102.69 169.759 103.361 168.207C102.279 168.995 101.879 170.458 101.571 171.689C101.395 172.33 100.695 172.925 100.089 172.713C100.019 172.709 99.949 172.698 99.8815 172.678C99.1208 172.488 98.7029 171.65 98.925 170.785C99.4501 168.783 100.239 166.78 101.582 165.222L101.584 165.222ZM67.6655 155.815C71.6543 155.89 75.4444 161.025 72.7697 164.044C72.0947 164.771 71.1416 165.176 70.1491 165.158H70.0708C67.7619 165.161 65.0647 163.496 64.1912 160.963C63.4567 158.828 64.5943 155.87 67.5429 155.814H67.6642L67.6655 155.815ZM67.553 156.487C66.2705 156.511 65.0063 157.271 64.6783 158.611C64.0148 161.325 66.8958 164.558 69.8319 164.574H69.9105C70.3097 164.569 70.7058 164.501 71.0838 164.372C71.9576 164.075 72.6249 163.361 72.8618 162.469C73.5808 159.703 70.6729 156.516 67.6249 156.486L67.553 156.487ZM105.346 161.14H100.331L100.032 164.552H102.239L102.259 164.535C102.31 164.494 102.36 164.453 102.413 164.413C102.575 164.287 102.742 164.167 102.912 164.052H102.914L102.937 164.037L102.973 164.013C103.658 163.561 104.401 163.202 105.182 162.947H105.185L105.346 161.14ZM149.445 161.14H138.744L138.445 164.551H149.145L149.445 161.14ZM143.935 131.075H133.392C133.058 134.894 130.058 138.213 126.176 138.509H126.167H126.157L126.09 138.513H126.072H126.06L125.996 138.517H125.971H125.964L125.903 138.519H125.873H125.868H125.803H125.775H125.677H125.488C123.576 138.508 121.651 138.226 120.156 137.15C120.132 137.132 120.107 137.114 120.083 137.096C120.054 137.074 120.024 137.052 119.995 137.029H119.992L119.959 137.003L119.911 136.966L119.907 136.963L119.902 136.959L119.861 136.925L119.828 136.897L119.823 136.893L119.814 136.886L119.771 136.849L119.745 136.828L119.74 136.823L119.727 136.812L119.682 136.773L119.663 136.757L119.657 136.752L119.641 136.738L119.595 136.697L119.582 136.685L119.577 136.68L119.556 136.662L119.511 136.619L119.503 136.612L119.499 136.608L119.473 136.584L119.428 136.541L119.424 136.538L119.422 136.536C118.853 135.987 118.377 135.348 118.015 134.645L118.011 134.639L118.007 134.631L117.986 134.589L117.969 134.555L117.962 134.542L117.953 134.522L117.935 134.486L117.924 134.463L117.914 134.444L117.899 134.411L117.886 134.384L117.88 134.371L117.869 134.348L117.843 134.292L117.839 134.281L117.837 134.277C117.381 133.274 117.161 132.18 117.191 131.079L108.648 131.067L106.047 160.794L105.877 162.743C106.028 162.709 106.028 162.709 106.183 162.676C108.172 162.288 110.398 162.491 112.576 162.502C115.748 162.53 118.881 163.208 121.782 164.493L121.889 164.541H137.77L138.1 160.765C138.086 160.721 138.09 160.673 138.112 160.633L140.234 136.386C140.25 136.154 140.284 135.924 140.334 135.697C140.547 134.675 141.004 133.719 141.665 132.912C142.278 132.141 143.053 131.514 143.934 131.074L143.935 131.075ZM140.906 136.461L138.806 160.469H149.506L151.611 136.398C151.801 133.651 149.727 131.27 146.98 131.081C146.95 131.079 146.92 131.077 146.89 131.076C146.823 131.076 146.752 131.076 146.682 131.076C143.701 131.213 141.256 133.487 140.903 136.451L140.906 136.461ZM107.976 131.088L107.93 131.091C105.086 131.389 102.828 133.617 102.493 136.457L100.391 160.437H105.404L107.976 131.088ZM117.867 131.075C117.864 131.142 117.863 131.206 117.862 131.271C117.869 131.53 117.887 131.848 117.928 132.185C118.408 135.208 120.863 137.529 123.908 137.839H123.921L123.992 137.845H124.001L124.081 137.849H124.097L124.158 137.852H124.184H124.239H124.262H124.34C124.426 137.852 124.511 137.852 124.596 137.852H124.853C126.031 137.899 127.207 137.721 128.318 137.326C130.755 136.295 132.433 134.015 132.695 131.382L132.7 131.32L132.722 131.069L131.999 131.044C131.882 130.983 131.804 130.866 131.792 130.734V119.624V119.617C131.788 119.587 131.784 119.458 132 119.315L132.129 119.289C133.555 119.289 135.009 119.486 136.241 118.871C138.267 117.798 138.932 114.663 137.249 112.9C136.689 112.318 135.959 111.929 135.163 111.788C135.025 111.763 134.885 111.746 134.745 111.736C134.671 111.731 134.596 111.728 134.522 111.728H132.128L131.991 111.698L131.973 111.69C131.858 111.658 131.749 111.608 131.65 111.541C131.106 111.283 130.576 110.995 130.063 110.679C126.39 108.437 123.4 104.853 122.011 101.153L122.006 101.14L121.983 101.076L121.959 101.009C120.447 102.565 118.514 103.646 116.396 104.118L116.384 104.121L116.283 104.143H116.277C115.611 104.287 114.934 104.369 114.254 104.388H114.233H114.222H114.198H114.156H114.096H114.06C112.474 104.393 110.895 104.447 109.382 104.086C107.792 103.703 106.306 102.976 105.028 101.957L105 101.935C105 107.476 104.949 113.017 105 118.558C105.074 123.264 109.208 127.606 114.177 127.621H118.541C120.569 127.621 122.599 127.536 124.625 127.621C124.809 127.645 124.821 127.695 124.866 127.755C124.974 127.908 124.939 128.119 124.787 128.228C124.732 128.267 124.665 128.289 124.597 128.29H118.873V130.73C118.873 130.73 118.993 130.975 118.537 131.066L117.867 131.075ZM80.1169 111.483C82.0656 111.473 84.0163 111.475 85.9653 111.512C87.1398 111.58 88.0769 112.517 88.1451 113.691C88.2617 119.812 88.2617 125.933 88.1451 132.056C88.0766 133.23 87.1395 134.167 85.9653 134.235C77.0544 134.405 68.1419 134.405 59.2281 134.235C58.0522 134.168 57.1138 133.23 57.0462 132.054C56.9065 124.531 56.9065 117.008 57.0462 109.484C57.1148 108.31 58.0518 107.373 59.2261 107.304C62.2106 107.248 65.1961 107.285 68.1813 107.304C68.9859 107.34 69.7147 107.791 70.1054 108.496C72.7109 108.496 75.3168 108.48 77.9223 108.496C79.1294 108.552 80.0914 109.525 80.1323 110.733L80.1169 111.483ZM71.8999 112.183C70.7256 112.115 69.7889 111.178 69.7204 110.004C69.7012 109.001 69.1559 107.995 68.1749 107.976C65.2119 107.958 62.2492 107.976 59.2869 107.976C58.4416 108.005 57.7599 108.677 57.7189 109.522C57.6715 117.027 57.5798 124.533 57.7189 132.038C57.7676 132.867 58.4342 133.526 59.2644 133.565C68.1587 133.621 77.0551 133.733 85.9481 133.565C86.7777 133.517 87.4365 132.85 87.4745 132.02C87.5131 125.916 87.5901 119.812 87.4745 113.709C87.4261 112.879 86.7589 112.221 85.929 112.183C81.2612 112.153 76.5925 112.271 71.9254 112.183L71.8999 112.183ZM27.7459 118.558C24.6435 118.549 21.5417 118.558 18.4393 118.618C17.6091 118.666 16.9492 119.333 16.9113 120.164C16.8877 123.942 16.8414 127.721 16.9113 131.499C16.9596 132.329 17.6276 132.989 18.4584 133.027C24.7621 133.066 31.067 133.143 37.3697 133.027C38.1999 132.979 38.8597 132.312 38.8977 131.481V129.016L39.1168 128.701L39.3812 128.715L45.3985 131.671V119.976L39.3812 122.933L39.0018 122.875L38.8977 122.631C38.8977 120.875 39.2367 118.654 37.3502 118.619C34.2481 118.6 31.146 118.571 28.0436 118.561C27.9485 118.603 27.8403 118.602 27.7459 118.558ZM158.206 122.721C158.206 124.919 158.22 127.117 158.248 129.315C158.282 129.901 158.75 130.368 159.336 130.403C166.819 130.495 174.302 130.495 181.785 130.403C182.372 130.369 182.839 129.901 182.873 129.315C182.918 125.802 182.928 122.289 182.905 118.776L170.473 124.728C170.383 124.783 170.269 124.782 170.179 124.726L158.218 118.785C158.21 120.043 158.206 121.301 158.206 122.559C158.217 122.612 158.217 122.667 158.205 122.721H158.206ZM25.8916 122.308C25.9417 122.31 25.9911 122.317 26.0395 122.33L32.4251 125.522C32.4251 125.522 32.7661 125.864 32.4251 126.122L26.0395 129.313L25.6591 129.257L25.554 129.016V122.63L25.7744 122.315C25.8063 122.309 25.8389 122.307 25.8711 122.308L25.8916 122.308ZM26.2252 123.173V128.473L31.5246 125.824L26.2252 123.173ZM182.898 118.04C182.891 117.223 182.883 116.406 182.872 115.59C182.839 115.003 182.371 114.535 181.784 114.501C174.312 114.408 166.838 114.501 159.365 114.501C158.767 114.521 158.283 114.993 158.247 115.59C158.237 116.406 158.229 117.223 158.222 118.039L170.329 124.053L182.898 118.04ZM113.568 122.151C113.937 122.189 114.299 122.659 114.806 122.827C115.749 123.123 116.779 122.898 117.513 122.236C117.616 122.166 117.743 122.144 117.864 122.175C118.122 122.279 117.965 122.734 117.965 122.734C117.937 122.759 117.91 122.783 117.883 122.807C116.632 123.882 114.773 123.786 113.35 122.758C113.197 122.656 113.156 122.45 113.258 122.297C113.326 122.195 113.446 122.138 113.568 122.151ZM132.459 119.959V123.237C134.371 123.04 135.899 121.561 136.158 119.657C136.158 119.657 136.169 119.641 136.151 119.647C135.639 119.848 135.095 119.954 134.545 119.96H132.459V119.959ZM79.4614 111.486C79.4553 110.373 79.0347 109.187 77.9139 109.168C75.4061 109.152 72.8981 109.168 70.3903 109.168C70.3601 109.811 70.5328 110.447 70.8839 110.986C71.1288 111.298 71.496 111.489 71.8918 111.511H71.9388H75.4512C76.787 111.505 78.1242 111.493 79.4614 111.486ZM106.163 84.9894C105.656 84.9867 105.153 85.0721 104.676 85.2421C104.099 85.4511 103.569 85.7726 103.117 86.1882C102.236 86.9902 101.683 88.0895 101.565 89.2748L101.547 89.338C101.547 92.051 101.375 94.8316 102.326 97.2614C103.683 100.557 106.628 102.931 110.137 103.558C110.637 103.645 111.141 103.698 111.648 103.719C111.716 103.721 111.785 103.723 111.853 103.723C112.564 103.727 113.275 103.723 113.986 103.723H114.017C114.606 103.713 115.193 103.66 115.774 103.567C117.213 103.311 118.582 102.756 119.794 101.94L119.844 101.907L119.878 101.884C120.607 101.384 121.271 100.794 121.853 100.128L122.249 100.045C122.252 100.044 122.256 100.044 122.259 100.045C122.273 100.048 122.286 100.056 122.295 100.066C122.359 100.142 122.407 100.23 122.436 100.326C122.459 100.386 122.483 100.46 122.51 100.547C123.201 102.744 124.549 104.713 126.165 106.443C126.847 107.169 127.567 107.858 128.322 108.507L128.327 108.511L128.356 108.536C128.508 108.667 128.661 108.795 128.817 108.921C129.811 109.744 130.903 110.441 132.068 110.997L132.095 111.01L132.196 111.056C132.984 111.056 133.773 111.043 134.561 111.056H134.583H134.6H134.624H134.657C135.181 111.075 135.698 111.185 136.185 111.38L136.17 98.7105L136.162 98.5976L136.158 98.5458L136.153 98.4847L136.147 98.4175L136.143 98.3721L136.135 98.2969L136.131 98.2599L136.121 98.1803L136.118 98.1467L136.107 98.065L136.103 98.0348L136.091 97.9542L136.087 97.9233L136.075 97.846L136.069 97.8124L136.057 97.7395L136.05 97.7009L136.039 97.6353L136.03 97.5896L136.019 97.5325L136.008 97.4778L135.999 97.4314L135.985 97.3665L135.977 97.333L135.96 97.2557L135.955 97.2352L135.934 97.1434V97.1384C134.923 92.9723 131.014 89.5907 126.497 89.5769H111.307L111.29 89.5728C110.923 89.4838 110.936 88.8189 110.802 88.3613C110.231 86.4083 108.26 85.0203 106.225 84.9874L106.163 84.9894ZM63.6166 91.7846H70.0547L70.3648 91.9919L70.3903 92.1202V105.507H79.4617V92.1202C79.5602 91.6237 79.7977 91.7843 79.7977 91.7843H86.2357L74.9264 78.5894L63.6166 91.7846ZM80.1323 92.4566V100.88H103.852C103.794 100.817 103.737 100.754 103.679 100.69C103.522 100.513 103.373 100.332 103.229 100.145L103.226 100.141L103.204 100.112L103.198 100.104C102.018 98.5741 101.255 96.7651 100.98 94.8528C100.971 94.7899 100.963 94.7281 100.955 94.6673C100.947 94.6085 100.938 94.549 100.93 94.4896C100.882 94.1959 100.864 93.8982 100.874 93.6009V89.2436L100.88 89.1966C100.969 88.5424 101.154 87.9047 101.429 87.3043C101.449 87.2654 101.468 87.2264 101.488 87.1881C101.504 87.1578 101.522 87.1269 101.537 87.0967C102.821 84.7522 106.016 83.7443 108.487 84.7905L108.52 84.805L108.55 84.8177L108.558 84.8214L108.565 84.8245L108.586 84.8339L108.613 84.846L108.626 84.852L108.635 84.8564L108.652 84.8641L108.676 84.8755L108.693 84.8836L108.704 84.889L108.718 84.8954L108.74 84.9061L108.76 84.9162L108.772 84.9222L108.783 84.9276L108.803 84.9377L108.827 84.9498L108.838 84.9558L108.847 84.9605L108.866 84.9703L108.893 84.9844L108.904 84.9908L108.912 84.9945L108.929 85.0045L108.958 85.0203L108.969 85.0264L108.975 85.0297L108.993 85.0398L109.024 85.0573L109.034 85.063L109.039 85.066L109.056 85.0764L109.088 85.0953L109.097 85.1006L109.101 85.1033L109.12 85.1147L109.154 85.1346L109.161 85.1393L109.165 85.1416L109.184 85.1541L109.218 85.1749L109.224 85.1789L109.227 85.1809L109.249 85.195L109.282 85.2162L109.287 85.2192L109.29 85.2213L109.314 85.2374L109.345 85.2585L109.35 85.2622L109.379 85.2821L109.407 85.3019L109.411 85.3046L109.446 85.3301L109.469 85.3466L109.528 85.3913C110.649 86.2504 111.392 87.5106 111.603 88.9066C116.586 88.9066 121.57 88.8609 126.554 88.9066H126.624C131.571 88.9835 136.198 92.9719 136.792 98.1363C136.806 98.2508 136.817 98.3668 136.826 98.4827L136.831 98.5519L136.856 98.69V99.0058C142.542 95.9904 146.053 89.2903 145.276 82.8701C144.352 75.2279 137.38 68.7775 129.33 68.7519H123.712L123.393 68.5184C123.393 68.5184 123.498 67.3206 123.539 66.2737C123.953 55.6662 117.917 45.1296 108.459 40.1363C98.6196 34.9417 85.6797 36.2231 76.992 43.6096C72.4368 47.5006 69.2201 52.7247 67.7966 58.5439L67.4743 58.8002C66.8854 58.6763 66.0609 58.2355 65.2549 58.0167C58.1103 56.0808 50.749 60.3034 48.8131 67.448C48.3451 69.1753 48.2278 70.9788 48.468 72.7521L48.2738 73.1008C47.8579 73.1909 46.8167 73.1563 45.9858 73.2782C38.4078 74.394 33.1693 81.4418 34.285 89.0198C34.703 91.8585 35.9911 94.4973 37.9714 96.5733C40.5998 99.3051 44.2209 100.858 48.0118 100.879H69.7184V92.4556H62.8872L62.863 92.4505C62.6762 92.4307 62.5412 92.263 62.561 92.0762C62.5677 92.0124 62.5926 91.9522 62.6322 91.9019L74.671 77.8553C74.7883 77.7807 74.9284 77.7501 75.0661 77.7689L75.1807 77.8553L87.2205 91.9019C87.3569 92.1407 87.3132 92.3786 86.9877 92.4508H86.9856L86.9658 92.4549L80.1323 92.4566ZM164.374 83.2988C164.374 87.5002 164.401 91.7013 164.455 95.9023C164.489 96.4947 164.961 96.9671 165.554 97.0013C170.11 97.0588 174.666 97.0588 179.224 97.0013C179.816 96.9671 180.289 96.4947 180.322 95.9023C180.43 87.3749 180.43 78.8467 180.322 70.3183C180.288 69.7263 179.816 69.2539 179.224 69.2189C174.678 69.1611 170.131 69.2189 165.585 69.2189C164.98 69.2371 164.489 69.7145 164.455 70.3186C164.402 74.5244 164.375 78.7305 164.374 82.9373C164.436 83.0495 164.436 83.1856 164.374 83.2978V83.2988ZM172.412 93.7141H172.424C172.759 93.7356 173.071 93.8935 173.287 94.1509C173.794 94.7083 173.935 95.6628 173.216 96.1789L173.211 96.1829L173.199 96.1913C173.117 96.2481 173.03 96.2968 172.939 96.3361H172.937L172.924 96.3418C172.686 96.4392 172.422 96.456 172.173 96.3902C171.465 96.2222 170.843 95.5062 171.076 94.7016V94.6965L171.079 94.6858V94.6824C171.103 94.6055 171.133 94.5309 171.17 94.4593C171.379 94.0242 171.81 93.7393 172.293 93.7178H172.304H172.315H172.323C172.348 93.7178 172.373 93.7155 172.399 93.7155L172.412 93.7141ZM172.495 95.7673C173.1 95.6282 173.207 94.3743 172.371 94.3851C171.926 94.4019 171.625 95.0144 171.78 95.4222C171.87 95.642 172.087 95.7834 172.324 95.7777L172.371 95.7797C172.403 95.7807 172.436 95.7784 172.468 95.7727L172.495 95.7673ZM179.426 72.2266L179.633 72.5364V92.5473C179.578 92.8265 179.479 92.8977 179.403 92.9068H179.39C179.358 92.9078 179.326 92.899 179.298 92.8822H165.48L165.435 92.8725C164.993 92.7687 165.144 92.5466 165.144 92.5466V72.5357L165.242 72.2985C165.31 72.2434 165.393 72.2091 165.48 72.2004H179.298L179.426 72.2266ZM178.962 72.872H165.815V92.2116H178.962V72.872ZM94.3543 40.8828C101.12 40.991 107.237 46.8186 107.259 53.947V57.4234C108.065 57.6666 108.681 58.3201 108.876 59.1389L108.88 59.1557L108.881 59.1644V59.1722V59.1816L108.885 59.1984L108.889 59.2189V59.2252V59.2289C108.898 59.2793 108.905 59.3297 108.91 59.3828V59.3919L108.913 59.4157V59.4332V59.4403V59.4467V59.4601V59.485V59.4987C108.913 59.5155 108.913 59.5323 108.913 59.5498C108.949 65.4543 109.021 71.3605 108.913 77.2639C108.845 78.4399 107.907 79.3783 106.731 79.4458C102.811 79.5194 98.8894 79.5583 94.9658 79.563H94.1813C89.998 79.563 85.8151 79.5237 81.6318 79.4454C80.4559 79.3779 79.5175 78.4395 79.45 77.2636C79.3411 71.3504 79.3411 65.4365 79.45 59.5216L79.452 59.4772V59.4645C79.4721 59.115 79.579 58.776 79.7631 58.4784C80.0658 57.97 80.5476 57.5931 81.1141 57.4221C81.1063 54.9872 80.9998 52.5578 81.6375 50.2953L81.6668 50.1945L81.6691 50.1864L81.6762 50.1626L81.701 50.0802V50.0755V50.0735L81.7165 50.0225L81.7346 49.964V49.962C81.7467 49.924 81.7592 49.8864 81.7716 49.8484C83.5775 44.63 88.4149 41.0663 93.934 40.8885C94.0425 40.8869 94.1504 40.8862 94.2589 40.8865L94.3543 40.8828ZM86.1181 58.0103H81.7004C80.8691 58.0389 80.1935 58.6897 80.1337 59.5192V59.5575C80.0967 65.4543 80.0255 71.3521 80.1337 77.2475C80.1811 78.0777 80.8486 78.7375 81.6792 78.7755C86.6362 78.8064 91.5939 78.8558 96.5513 78.8578H97.3334C100.464 78.8558 103.595 78.8336 106.725 78.7752C107.556 78.7278 108.215 78.0602 108.253 77.2297C108.29 71.3332 108.361 65.4368 108.253 59.5401V59.5038V59.496L108.251 59.4668V59.4588L108.248 59.4305V59.4215L108.245 59.3953V59.3825L108.242 59.362L108.239 59.3418V59.3321C108.084 58.7028 107.599 58.2079 106.973 58.0406C106.888 58.0231 106.801 58.0137 106.714 58.012H102.276C102.231 58.0312 102.18 58.0312 102.135 58.012H86.2881C86.2357 58.0439 86.1699 58.0433 86.1181 58.0103ZM123.406 58.2687C123.478 58.2654 123.551 58.2627 123.623 58.2603C123.695 58.258 123.769 58.257 123.846 58.2566C123.901 58.2566 123.957 58.2566 124.013 58.2566C129.36 58.3312 134.2 63.1179 134.055 68.7291C135.339 69.1578 136.581 69.7048 137.764 70.3623C139.482 71.3719 141.009 72.6758 142.275 74.2143L142.309 74.2549C142.484 73.6989 142.703 72.916 142.703 72.916C142.777 72.8226 142.89 72.7689 143.009 72.7702L147.655 73.1647C148.107 70.8864 148.232 68.555 148.026 66.2411L143.359 66.0866C143.359 66.0866 143.138 66.3708 142.942 65.1963C142.702 63.7996 142.313 62.4328 141.78 61.1198C141.78 61.1198 141.61 60.9764 141.918 60.7062L145.908 58.2946C144.934 56.186 143.665 54.2266 142.139 52.4751L138.272 55.0934C138.272 55.0934 138.26 55.4529 137.411 54.6183C136.397 53.6292 135.278 52.7523 134.075 52.0031C134.075 52.0031 133.854 51.9873 133.943 51.5878L135.754 47.2916C133.727 46.157 131.549 45.3174 129.285 44.7987L127.695 49.1896C127.695 49.1896 127.897 49.4879 126.721 49.3119C125.319 49.1076 123.899 49.0555 122.485 49.1563C122.485 49.1563 122.296 49.2742 122.134 48.8979L121.074 44.3579C119.492 44.5457 117.932 44.887 116.416 45.3772C116.416 45.3772 117.352 46.3946 118.04 47.2681C120.117 49.9082 121.72 52.8884 122.778 56.0761C122.952 56.5989 123.112 57.1294 123.256 57.6677C123.307 57.8676 123.357 58.0681 123.405 58.2687H123.406ZM92.7746 73.8215C92.7698 73.8225 92.7651 73.8232 92.7604 73.8235H92.7497C92.7013 73.8235 92.5887 73.7993 92.4651 73.6139L92.4392 73.4855V69.5677C92.2699 69.476 92.1106 69.3668 91.9642 69.2414C89.8367 67.5101 90.6656 63.1179 94.057 62.967L94.148 62.965H94.2387L94.2989 62.967C96.8369 63.0678 98.6753 66.4437 97.0086 68.6363C96.7206 69.0143 96.3598 69.3312 95.9475 69.568V73.4862L95.7406 73.7963L95.6119 73.8218L92.7746 73.8215ZM95.2762 69.3668C95.3354 69.0483 95.7009 68.9488 95.9217 68.7815C97.7433 67.3993 97.0603 63.6897 94.2303 63.636H94.1561C91.7035 63.6827 90.2047 67.6879 92.9264 69.0674C92.9264 69.0674 93.0608 69.0946 93.1102 69.3668V73.1502H95.2762V69.3668ZM174.603 71.3692H170.174C169.814 71.3564 169.741 70.7134 170.174 70.6972C171.658 70.6972 173.143 70.6448 174.626 70.6972C174.973 70.7359 175.02 71.3541 174.603 71.3692ZM133.384 68.6283V68.6158C133.465 63.5033 128.977 58.7623 123.559 58.9353C124.202 61.8936 124.383 64.9335 124.096 67.9473L124.083 68.0816C125.903 68.0816 127.723 68.0655 129.543 68.0816C130.841 68.1048 132.131 68.2886 133.384 68.6283ZM94.1164 41.5531C87.7261 41.6122 81.8196 47.0779 81.7985 53.948V57.3374C83.1256 57.3129 84.453 57.2947 85.7805 57.2826C85.7607 55.3003 85.6226 53.3292 86.2579 51.526C86.2713 51.4873 86.2855 51.449 86.2996 51.4111L86.3107 51.3805C86.3298 51.3294 86.3496 51.2797 86.3698 51.2279L86.3859 51.187L86.398 51.1581V51.1544L86.4051 51.1376L86.4242 51.0902L86.4272 51.0835C87.7574 48.0187 90.7426 46.0018 94.0822 45.9118C94.1369 45.9118 94.1914 45.9118 94.2461 45.9118C94.7484 45.9168 95.2487 45.9706 95.7406 46.0724C96.2996 46.1647 96.8466 46.3193 97.3711 46.5333C100.434 47.8309 102.472 50.7821 102.599 54.1063V54.1627V54.2017V54.2242C102.599 54.2578 102.599 54.289 102.599 54.3213V57.3115C103.927 57.3213 105.255 57.3303 106.583 57.3387C106.583 54.9224 106.708 52.508 106.025 50.2714L106.016 50.2445L105.991 50.1639L105.956 50.0544C104.243 45.1044 99.6544 41.7235 94.4192 41.5541L94.2649 41.5524L94.1164 41.5531ZM101.377 51.4336C100.048 48.1652 96.2445 46.1409 92.746 46.7332C89.401 47.4552 86.8858 50.2254 86.4887 53.6241L86.4867 53.6436L86.4803 53.7152V53.7364L86.4739 53.8197L86.4716 53.8499L86.4682 53.9074L86.4662 53.941L86.4629 54.0038V54.0283L86.4598 54.1123V54.1402V54.2044V54.2316V54.32V57.2766C91.6195 57.2346 96.7797 57.2695 101.94 57.3068C101.94 55.6236 102.071 53.9369 101.688 52.3767L101.684 52.3595L101.673 52.3155C101.613 52.082 101.541 51.8519 101.458 51.6257L101.444 51.5921L101.429 51.5518L101.413 51.5102L101.391 51.4557L101.377 51.4336ZM47.5108 23.7953H20.0953V55.9404H47.5112L47.5108 23.7953ZM170.326 35.6194H166.281V49.8729C166.183 50.3631 165.951 50.2126 165.945 50.2089H154.93V54.9593H170.326V35.6194ZM161.957 30.198H150.213V49.5373H154.424C154.476 49.5047 154.542 49.5047 154.594 49.5373H165.61V34.5577H162.293C161.796 34.4569 161.957 34.2217 161.957 34.2217L161.957 30.198ZM22.7361 49.0458C22.72 49.0511 22.7032 49.0545 22.6861 49.0552H22.6756C22.5963 49.0552 22.4599 49.0091 22.4005 48.7098V26.5759C22.4284 26.4354 22.7364 26.2399 22.7364 26.2399H44.8707L44.9991 26.2654L45.2064 26.5755V48.7098C45.1492 48.9954 45.0226 49.0508 44.9423 49.0548H44.9312C44.9107 49.0552 44.8902 49.0518 44.8707 49.0451L22.7361 49.0458ZM34.4776 40.6594L34.0764 40.649L29.7886 37.2774L23.0718 40.9776V48.3745H44.5347V43.3976L38.1485 38.0663L34.4776 40.6594ZM44.5347 26.9118H23.0718V40.2119L29.6593 36.5833C29.705 36.5652 29.7527 36.5537 29.8017 36.5497H29.8239C29.8958 36.5558 29.9657 36.5773 30.0289 36.6125L34.2958 39.9666L37.9734 37.3688C38.1011 37.3272 38.2392 37.3302 38.3648 37.3769L38.3823 37.3853L44.5361 42.5234L44.5347 26.9118ZM34.3613 30.7047C36.2616 30.7826 37.6368 33.4866 36.0486 35.0388C35.636 35.4269 35.0911 35.6429 34.5246 35.6436H34.4779C33.0426 35.6533 31.5052 34.5382 31.7901 32.816C32.0185 31.5991 33.0772 30.7144 34.3153 30.705L34.3613 30.7047ZM34.2605 31.3746C32.6834 31.4042 31.616 34.0877 33.5422 34.9306C33.7357 35.0143 33.9444 35.0573 34.155 35.0566H34.1886C35.378 35.0358 36.5983 33.755 35.9575 32.4266C35.6424 31.7936 35.0013 31.3884 34.2944 31.375L34.2605 31.3746ZM162.629 33.8868H165.227L162.629 30.7857V33.8868Z" fill="#828282"/>
<path fill-rule="evenodd" clip-rule="evenodd" d="M140.903 136.46L138.802 160.467H149.502L151.608 136.397C151.797 133.65 149.723 131.27 146.975 131.081C146.947 131.079 146.918 131.077 146.89 131.076C146.823 131.076 146.752 131.076 146.682 131.076C143.701 131.213 141.256 133.487 140.903 136.451L140.903 136.46ZM107.973 131.086L107.926 131.09C105.083 131.387 102.825 133.616 102.49 136.455L100.391 160.437H105.404L107.973 131.086ZM27.7456 118.558C24.6432 118.549 21.5415 118.558 18.439 118.618C17.6088 118.666 16.949 119.333 16.911 120.164C16.8875 123.942 16.8411 127.721 16.911 131.499C16.9594 132.329 17.6273 132.989 18.4582 133.027C24.7618 133.066 31.0668 133.143 37.3694 133.027C38.1996 132.979 38.8595 132.312 38.8974 131.481V129.016L39.1165 128.701L39.3809 128.715L45.3983 131.671V119.976L39.3809 122.933L39.0016 122.875L38.8974 122.631C38.8974 120.875 39.2364 118.654 37.3499 118.619C34.2478 118.6 31.1457 118.571 28.0433 118.561C27.9482 118.603 27.84 118.602 27.7456 118.558ZM25.8914 122.308C25.9414 122.31 25.9908 122.317 26.0392 122.33L32.4248 125.522C32.4248 125.522 32.7658 125.864 32.4248 126.122L26.0392 129.313L25.6589 129.257L25.5537 129.016V122.63L25.7741 122.315C25.806 122.309 25.8386 122.307 25.8709 122.308L25.8914 122.308ZM164.374 83.2978C164.374 87.4992 164.401 91.7003 164.454 95.9014C164.489 96.4937 164.961 96.9661 165.553 97.0004C170.11 97.0578 174.666 97.0578 179.224 97.0004C179.816 96.9661 180.288 96.4937 180.322 95.9014C180.43 87.3739 180.43 78.8457 180.322 70.3173C180.288 69.7253 179.816 69.2529 179.224 69.2179C174.678 69.1602 170.131 69.2179 165.585 69.2179C164.98 69.2361 164.489 69.7135 164.454 70.3176C164.402 74.5234 164.375 78.7295 164.374 82.9363C164.436 83.0488 164.436 83.1852 164.374 83.2978ZM172.412 93.7131H172.424C172.759 93.7346 173.071 93.8926 173.287 94.1499C173.794 94.7073 173.935 95.6618 173.216 96.1779L173.211 96.1819L173.199 96.1903C173.117 96.2471 173.03 96.2958 172.939 96.3351H172.937L172.924 96.3408C172.685 96.4383 172.422 96.4551 172.173 96.3892C171.465 96.2212 170.842 95.5052 171.075 94.7006V94.6955L171.078 94.6848V94.6814C171.102 94.6045 171.133 94.5299 171.17 94.4583C171.379 94.0233 171.81 93.7383 172.292 93.7168H172.304H172.315H172.322C172.347 93.7168 172.373 93.7145 172.399 93.7145L172.412 93.7131ZM179.426 72.2256L179.633 72.5354V92.5463C179.578 92.8255 179.478 92.8967 179.402 92.9058H179.39C179.357 92.9068 179.325 92.8981 179.298 92.8813H165.479L165.434 92.8715C164.993 92.7677 165.144 92.5456 165.144 92.5456V72.5347L165.242 72.2975C165.31 72.2424 165.392 72.2082 165.479 72.1994H179.298L179.426 72.2256ZM174.603 71.3692C175.02 71.3538 174.972 70.7359 174.626 70.6973C173.143 70.6442 171.658 70.6973 170.174 70.6973C169.741 70.7127 169.815 71.3558 170.174 71.3692H174.603Z" fill="#F48850"/>
<path fill-rule="evenodd" clip-rule="evenodd" d="M122.157 173.499V173.503C122.187 174.16 121.969 174.805 121.547 175.309C121.385 175.533 121.194 175.736 120.978 175.91L142.466 175.891L122.157 173.497V173.499ZM118.254 172.936C117.228 172.649 116.22 172.3 115.235 171.891C113.959 171.387 112.578 171.913 111.614 173.096L118.972 173.124C118.907 173.11 118.842 173.095 118.777 173.08C118.603 173.039 118.428 172.99 118.254 172.936ZM143.932 131.073C143.051 131.516 142.276 132.147 141.664 132.921C141.003 133.729 140.547 134.684 140.334 135.706C140.283 135.933 140.25 136.163 140.233 136.395L138.112 160.642C138.09 160.682 138.085 160.73 138.1 160.774L137.77 164.55H121.889L121.781 164.502C118.881 163.217 115.748 162.539 112.576 162.511C110.398 162.5 108.172 162.297 106.182 162.685C106.027 162.716 106.027 162.716 105.876 162.752L106.047 160.803L108.647 131.076L117.191 131.088C117.16 132.189 117.381 133.283 117.836 134.286L117.838 134.29L117.843 134.301L117.868 134.357L117.879 134.38L117.885 134.393L117.898 134.42L117.914 134.454L117.923 134.472L117.935 134.496L117.952 134.532L117.962 134.551L117.968 134.564L117.985 134.598L118.007 134.64L118.011 134.648L118.014 134.654C118.377 135.357 118.852 135.996 119.422 136.545L119.424 136.547L119.427 136.55L119.472 136.593L119.498 136.617L119.502 136.621L119.51 136.628L119.556 136.671L119.576 136.69L119.581 136.694L119.595 136.706L119.641 136.747L119.657 136.761L119.662 136.766L119.682 136.783L119.727 136.822L119.739 136.832L119.744 136.837L119.77 136.859L119.814 136.895L119.823 136.902L119.827 136.906L119.861 136.934L119.901 136.968L119.907 136.972L119.91 136.975L119.958 137.012L119.992 137.038H119.994C120.024 137.061 120.053 137.083 120.083 137.105C120.107 137.124 120.131 137.141 120.156 137.159C121.65 138.234 123.576 138.517 125.488 138.528H125.676H125.774H125.802H125.867H125.872H125.902L125.963 138.526H125.97H125.995L126.058 138.522H126.068H126.086L126.153 138.518H126.163H126.172C130.053 138.222 133.053 134.903 133.387 131.084L143.932 131.073ZM26.2248 123.173V128.473L31.5242 125.824L26.2248 123.173ZM79.4609 111.486C79.4549 110.373 79.0342 109.187 77.9134 109.168C75.4057 109.152 72.8976 109.168 70.3898 109.168C70.3596 109.811 70.5323 110.447 70.8834 110.986C71.1283 111.298 71.4956 111.489 71.8913 111.511H71.9384H75.4507C76.7865 111.505 78.1237 111.493 79.4609 111.486ZM86.9643 92.4556L86.9842 92.4515H86.9862C87.3117 92.3793 87.3557 92.1414 87.219 91.9025L75.1802 77.856L75.0657 77.7696C74.9279 77.7508 74.7878 77.7814 74.6706 77.856L62.6318 91.9025C62.5155 92.05 62.5407 92.2637 62.6882 92.38C62.7386 92.4196 62.7991 92.4442 62.8626 92.4512L62.8868 92.4562H69.7186V100.88H48.0113C40.3453 100.876 34.1337 94.6586 34.1371 86.9926C34.1378 85.7135 34.3152 84.4408 34.6642 83.2105C36.2245 78.0051 40.6211 74.1488 45.9854 73.2803C46.8162 73.1583 47.8574 73.1929 48.2734 73.1029L48.4676 72.7541C47.4741 65.419 52.6149 58.6672 59.9503 57.6737C61.7236 57.4335 63.5271 57.5508 65.2544 58.0188C66.0608 58.2375 66.8849 58.6783 67.4739 58.8023L67.7961 58.5459C69.2196 52.7268 72.4363 47.5026 76.9915 43.6117C85.6786 36.2252 98.6191 34.9434 108.459 40.1383C117.916 45.1317 123.953 55.6683 123.539 66.2775C123.498 67.3244 123.392 68.5221 123.392 68.5221L123.712 68.7556H129.329C137.379 68.7812 144.352 75.2316 145.275 82.8738C146.052 89.294 142.541 95.9941 136.855 99.0095V98.6937L136.831 98.5556L136.825 98.4864C136.816 98.3705 136.805 98.2546 136.792 98.14C136.197 92.976 131.571 88.9873 126.624 88.9103H126.553C121.57 88.8646 116.587 88.9103 111.602 88.9103C111.393 87.5137 110.649 86.2524 109.529 85.3926L109.47 85.348L109.447 85.3315L109.411 85.306L109.408 85.3033L109.379 85.2834L109.351 85.2636L109.345 85.2599L109.314 85.2388L109.29 85.2226L109.287 85.2206L109.283 85.2176L109.249 85.1964L109.228 85.1823L109.224 85.1803L109.218 85.1763L109.185 85.1554L109.165 85.143L109.161 85.1407L109.154 85.1359L109.12 85.1161L109.102 85.1047L109.098 85.102L109.089 85.0966L109.057 85.0778L109.039 85.0674L109.034 85.0644L109.024 85.0587L108.993 85.0412L108.976 85.0311L108.97 85.0278L108.959 85.0217L108.93 85.0059L108.912 84.9958L108.905 84.9921L108.893 84.9858L108.866 84.9717L108.848 84.9619L108.839 84.9572L108.827 84.9512L108.803 84.9391L108.783 84.929L108.773 84.9236L108.761 84.9176L108.74 84.9075L108.718 84.8967L108.705 84.8904L108.694 84.885L108.677 84.8769L108.653 84.8655L108.636 84.8578L108.626 84.8534L108.613 84.8473L108.587 84.8353L108.565 84.8258L108.558 84.8228L108.55 84.8191L108.521 84.8064L108.487 84.7919C106.016 83.7457 102.821 84.7536 101.538 87.0981C101.521 87.1283 101.504 87.1592 101.489 87.1894C101.469 87.2277 101.449 87.2667 101.43 87.3057C101.155 87.9061 100.97 88.5438 100.881 89.1979L100.875 89.245V93.6003C100.864 93.8976 100.883 94.1953 100.931 94.4889C100.939 94.5484 100.947 94.6079 100.956 94.6667C100.965 94.7254 100.972 94.7893 100.981 94.8521C101.255 96.7645 102.019 98.5734 103.198 100.103L103.204 100.111L103.227 100.14L103.23 100.145C103.374 100.332 103.524 100.514 103.681 100.69C103.738 100.754 103.796 100.817 103.854 100.88H80.1309V92.4556H86.9643ZM172.495 95.7663C173.1 95.6272 173.207 94.3733 172.37 94.3841C171.925 94.4009 171.624 95.0134 171.779 95.4213C171.869 95.641 172.086 95.7824 172.324 95.7767L172.37 95.7787C172.403 95.7797 172.435 95.7774 172.468 95.7717L172.495 95.7663ZM178.962 72.871V92.2106H165.815V72.871H178.962ZM94.3539 40.8829C101.12 40.991 107.237 46.8186 107.259 53.9471V57.4234C108.065 57.6667 108.68 58.3202 108.875 59.1389L108.879 59.1557L108.881 59.1645V59.1722V59.1816L108.885 59.1984L108.888 59.2189V59.2253V59.229C108.897 59.2794 108.905 59.3298 108.91 59.3829V59.3919L108.912 59.4158V59.4333V59.4403V59.4467V59.4601V59.485V59.4988C108.912 59.5156 108.912 59.5324 108.912 59.5498C108.949 65.4543 109.02 71.3605 108.912 77.264C108.845 78.4399 107.906 79.3783 106.73 79.4458C102.81 79.5194 98.8889 79.5584 94.9653 79.5631H94.1808C89.9976 79.5631 85.8146 79.5238 81.6314 79.4455C80.4554 79.378 79.517 78.4396 79.4495 77.2636C79.3407 71.3504 79.3407 65.4365 79.4495 59.5216L79.4515 59.4773V59.4645C79.4717 59.1151 79.5785 58.7761 79.7626 58.4784C80.0654 57.9701 80.5472 57.5931 81.1136 57.4221C81.1059 54.9872 80.9994 52.5578 81.6371 50.2953L81.6663 50.1945L81.6686 50.1864L81.6757 50.1626L81.7006 50.0803V50.0756V50.0736L81.716 50.0225L81.7342 49.964V49.962C81.7463 49.924 81.7587 49.8864 81.7711 49.8485C83.577 44.63 88.4144 41.0663 93.9335 40.8886C94.0421 40.8869 94.1499 40.8862 94.2584 40.8866L94.3539 40.8829ZM101.376 51.4326C100.047 48.1642 96.2437 46.1399 92.7452 46.7323C89.4002 47.4543 86.885 50.2244 86.4879 53.6232L86.4859 53.6427L86.4795 53.7142V53.7354L86.4731 53.8187L86.4708 53.8489L86.4674 53.9064L86.4654 53.94L86.462 54.0028V54.0274L86.459 54.1113V54.1392V54.2034V54.2306V54.319V57.2756C91.6186 57.2336 96.7789 57.2685 101.939 57.3058C101.939 55.6226 102.07 53.936 101.687 52.3757L101.683 52.3586L101.672 52.3145C101.612 52.081 101.54 51.8509 101.457 51.6248L101.443 51.5912L101.428 51.5509L101.412 51.5092L101.39 51.4548L101.376 51.4326ZM44.5343 26.9119V42.5238L38.3805 37.3857L38.363 37.3773C38.2374 37.3306 38.0993 37.3275 37.9716 37.3692L34.294 39.967L30.0271 36.6129C29.9639 36.5776 29.894 36.5561 29.8221 36.5501H29.8013C29.7522 36.5541 29.7045 36.5655 29.6588 36.5837L23.0713 40.2122V26.9119H44.5343ZM34.3608 30.7047C36.2611 30.7827 37.6363 33.4866 36.0481 35.0389C35.6355 35.4269 35.0906 35.6429 34.5241 35.6436H34.4774C33.0421 35.6534 31.5047 34.5382 31.7896 32.816C32.0181 31.5991 33.0767 30.7145 34.3148 30.7051L34.3608 30.7047Z" fill="#3F3F3F"/>
</svg>
