<svg width="200" height="200" viewBox="0 0 200 200" fill="none" xmlns="http://www.w3.org/2000/svg">
<path fill-rule="evenodd" clip-rule="evenodd" d="M129.898 133.533V135.449H99.3601V133.533H129.898ZM123.37 35.9332H104.529V43.1185H123.37V35.9332ZM39.7356 64.0355H31.8657C30.8342 65.4614 29.9036 67.0942 29.0942 68.8423H36.3826C36.3826 68.8423 38.4583 68.6827 38.4583 70.918V89.9885C40.0955 89.0773 41.9907 87.8241 43.887 86.1412V79.3642C43.887 79.3642 43.7274 74.4142 43.887 68.9855C44.0469 63.5564 39.7356 64.0355 39.7356 64.0355ZM38.4583 98.9339V124.711H19.291L19.3075 126.957H38.4583V154.134L35.9411 154.171C36.4777 154.536 39.0146 156.119 39.3331 156.303H43.8873V92.3259C42.104 93.7773 35.677 98.1904 34.5844 98.9339H38.4583Z" fill="#D25412"/>
<path fill-rule="evenodd" clip-rule="evenodd" d="M103.648 56.6806C103.648 58.5325 102.146 60.0336 100.294 60.0336C98.4426 60.0336 96.9414 58.5325 96.9414 56.6806C96.9414 54.8287 98.4426 53.3275 100.294 53.3275C102.146 53.3275 103.648 54.8287 103.648 56.6806ZM100.294 67.4618C98.4426 67.4618 96.9414 68.9629 96.9414 70.8149C96.9414 72.6668 98.4426 74.1679 100.294 74.1679C102.146 74.1679 103.648 72.6668 103.648 70.8149C103.648 68.9629 102.146 67.4618 100.294 67.4618ZM100.294 81.2601C98.4426 81.2601 96.9414 82.7613 96.9414 84.6132C96.9414 86.4651 98.4426 87.9662 100.294 87.9662C102.146 87.9662 103.648 86.4651 103.648 84.6132C103.648 82.7613 102.146 81.2601 100.294 81.2601ZM130.273 54.3485H107.041C106.756 54.3485 106.522 54.5821 106.522 54.8673C106.522 55.1525 106.755 55.3861 107.041 55.3861H130.273C130.559 55.3861 130.792 55.1525 130.792 54.8673C130.792 54.5821 130.558 54.3485 130.273 54.3485ZM130.273 56.6638H107.041C106.756 56.6638 106.522 56.8973 106.522 57.1829C106.522 57.4684 106.755 57.702 107.041 57.702H130.273C130.559 57.702 130.792 57.4684 130.792 57.1829C130.792 56.8973 130.558 56.6638 130.273 56.6638ZM107.041 60.0172H127.189C127.475 60.0172 127.708 59.7837 127.708 59.4981C127.708 59.2125 127.475 58.979 127.189 58.979H107.041C106.755 58.979 106.522 59.2125 106.522 59.4981C106.522 59.7837 106.755 60.0172 107.041 60.0172ZM107.041 62.3324H116.142C116.427 62.3324 116.661 62.0989 116.661 61.8133C116.661 61.5281 116.427 61.2942 116.142 61.2942H107.041C106.755 61.2942 106.522 61.5277 106.522 61.8133C106.522 62.0989 106.755 62.3324 107.041 62.3324ZM130.273 67.9409H107.041C106.756 67.9409 106.522 68.1744 106.522 68.4597C106.522 68.7449 106.755 68.9787 107.041 68.9787H130.273C130.559 68.9787 130.792 68.7452 130.792 68.4597C130.792 68.1744 130.558 67.9409 130.273 67.9409ZM130.273 70.2561H107.041C106.756 70.2561 106.522 70.4896 106.522 70.7752C106.522 71.0608 106.755 71.2943 107.041 71.2943H130.273C130.559 71.2943 130.792 71.0608 130.792 70.7752C130.792 70.4896 130.558 70.2561 130.273 70.2561ZM130.273 72.5714H107.041C106.756 72.5714 106.522 72.8049 106.522 73.0904C106.522 73.3757 106.755 73.6095 107.041 73.6095H130.273C130.559 73.6095 130.792 73.376 130.792 73.0904C130.792 72.8049 130.558 72.5714 130.273 72.5714ZM107.041 75.9244H119.096C119.381 75.9244 119.615 75.6909 119.615 75.4053C119.615 75.1201 119.381 74.8863 119.096 74.8863H107.041C106.755 74.8863 106.522 75.1198 106.522 75.4053C106.522 75.6909 106.755 75.9244 107.041 75.9244ZM130.273 81.5329H107.041C106.756 81.5329 106.522 81.7664 106.522 82.052C106.522 82.3372 106.755 82.5711 107.041 82.5711H130.273C130.559 82.5711 130.792 82.3376 130.792 82.052C130.792 81.7664 130.558 81.5329 130.273 81.5329ZM130.273 83.8481H107.041C106.756 83.8481 106.522 84.0816 106.522 84.3672C106.522 84.6528 106.755 84.8863 107.041 84.8863H130.273C130.559 84.8863 130.792 84.6528 130.792 84.3672C130.792 84.0816 130.558 83.8481 130.273 83.8481ZM117.399 86.1634H107.041C106.755 86.1634 106.522 86.3969 106.522 86.6825C106.522 86.9677 106.755 87.2015 107.041 87.2015H117.399C117.685 87.2015 117.919 86.968 117.919 86.6825C117.918 86.3969 117.685 86.1634 117.399 86.1634ZM167.155 99.28C166.234 96.4174 163.674 96.4336 163.538 96.5038C162.179 97.2053 160.483 97.7405 158.649 97.7815C158.184 99.9163 156.833 104.123 155.774 107.295C154.586 103.138 156.729 97.6102 156.729 97.6102C154.454 97.2906 153.673 95.4814 153.673 95.4814L150.661 97.7301C149.065 95.934 149.184 93.6785 149.184 93.6785L147.268 94.324C147.187 94.9895 146.909 95.8137 146.001 96.529C145.093 97.2443 144.873 99.2067 144.873 99.2067C144.674 106.352 142.391 116.598 142.391 116.598L155.612 115.733L156.356 112.935C159.987 114.9 165.402 114.492 165.402 114.492C165.402 114.492 167.387 104.936 167.155 99.28ZM159.533 122.875L160.485 127.984L164.393 126.671L164.274 115.653C164.274 115.653 163.176 121.714 159.533 122.875ZM158.166 129.844L157.148 123.317L141.34 122L139.484 138.885C150.202 142.418 158.944 139.364 158.944 139.364C157.747 132.958 158.166 129.844 158.166 129.844Z" fill="#BEBEBE"/>
<path fill-rule="evenodd" clip-rule="evenodd" d="M60.1729 74.0164C58.9883 69.438 62.4956 70.3626 63.8489 72.1215C64.5622 73.0485 66.6103 73.3737 66.5061 71.8383C66.402 70.3028 63.3133 64.6245 65.4199 62.5011C67.9999 59.8999 71.6812 61.7542 75.2762 61.5009C79.3886 61.2113 80.7244 60.1785 80.7244 60.1785C80.7244 60.1785 83.13 68.3441 82.1957 74.2687C81.7058 77.3749 79.7955 79.722 77.2722 80.9124C77.4063 84.2517 78.1041 84.5104 78.1041 84.5104C74.3919 88.4622 68.7633 85.3486 68.7633 85.3486C69.0549 83.405 68.6366 81.2275 68.4686 80.4753C66.02 79.0306 64.2504 76.5161 64.2504 76.5161C64.2504 76.5161 61.0095 77.2502 60.1729 74.0164ZM156.023 112.746L155.343 115.809L142.392 116.598C143.952 111.248 144.519 102.699 144.684 100.96C144.924 98.4451 145.007 97.1623 146.002 96.529C147.319 95.6907 147.419 93.1692 147.778 92.0914C148.135 91.0213 147.276 89.9227 146.373 89.591C147.046 89.6791 147.715 89.7234 148.376 89.7261C148.803 91.0058 149.393 93.1245 149.115 94.3737C149.115 94.3737 149.741 96.8781 150.472 97.6085C150.848 97.9841 152.326 96.7598 153.674 95.4814C151.642 91.5555 154.542 83.8351 154.542 83.8351C158.889 84.6733 158.947 79.6437 157.498 78.2067C156.049 76.7698 153.906 79.8833 153.906 79.8833C149.893 78.4463 152.758 72.5781 144.956 71.7398C141.937 71.4156 140.374 70.3559 139.606 69.179C139.531 69.3856 139.465 69.599 139.415 69.8237C139.415 69.8237 139.176 76.5299 138.457 79.5238C137.851 82.0483 137.926 85.6799 141.125 87.8335C139.82 87.5349 140.327 89.0565 140.683 90.9239C140.683 90.9239 140.653 91.9419 140.533 94.3367C140.413 96.7316 134.864 108.864 134.625 113.654C134.458 116.982 135.16 119.557 136.848 120.579C136.148 125.538 140.613 126.228 140.613 126.228L140.972 121.797C140.972 121.797 155.702 124.073 159.534 122.875C163.366 121.678 164.074 114.655 164.074 114.655C162.069 114.571 158.195 114.053 156.023 112.746ZM91.6229 117.071C88.9331 118.063 86.5379 117.773 85.8592 117.122C85.1805 116.472 88.7762 114.363 87.9483 113.485C87.1205 112.607 87.236 112.591 85.8511 113.65C84.4662 114.71 82.3522 114.753 81.5788 115.976C81.5788 115.976 68.9141 115.109 67.2792 115.211L65.9595 111.562C63.7585 113.54 58.9618 114.135 56.7812 114.306C57.4942 116.433 58.7571 119.646 60.3332 121.319C62.8164 123.953 66.2259 123.526 70.6279 122.821C76.2741 121.918 78.9471 120.805 80.8467 120.915C82.7463 121.026 85.8706 122.331 87.4235 122.489C88.9764 122.647 96.4321 118.641 96.2809 117.545C96.1301 116.45 94.3124 116.08 91.6229 117.071ZM122.009 102.895C121.571 102.785 119.161 103.114 116.861 102.895C114.561 102.676 112.696 100.582 112.696 100.582C112.696 100.582 114.329 100.438 115.314 99.6714C116.3 98.9047 115.437 97.966 115.437 97.966C115.437 97.966 112.261 98.6232 111.275 98.6232C110.289 98.6232 110.18 99.828 108.756 101.471C107.332 103.114 96.8756 105.818 96.8756 105.818C96.6569 105.38 96.2285 104.288 95.7924 103.135C94.94 103.828 93.367 104.698 90.5253 105.268C90.15 107.042 89.9181 108.569 89.9225 110.316C90.9429 112.2 92.3617 113.921 94.1656 114.007C98.7658 114.226 109.851 106.728 109.851 106.728C114.451 108.152 119.363 107.925 121.006 106.501C122.648 105.077 122.447 103.005 122.009 102.895Z" fill="#FFD2BB"/>
<path fill-rule="evenodd" clip-rule="evenodd" d="M107.112 125.902L107.031 120.44C107.031 120.44 121.32 120.52 121.401 120.44L121.361 125.902H107.112ZM117.569 110.623H110.684V112.659H117.569V110.623ZM21.9727 111.978C21.9338 112.063 21.8934 112.147 21.8555 112.233C21.4533 113.14 21.0905 114.078 20.7676 115.038L20.7965 116.976H33.7441L33.781 111.972C33.7209 112.031 25.2267 111.994 21.9727 111.978ZM23.8596 141.829C24.8904 143.526 26.1083 145.195 27.5285 146.818H33.644V141.814C33.5942 141.864 27.6504 141.846 23.8596 141.829ZM30.2297 74.9857H26.8689C26.6952 75.6257 26.538 76.2668 26.3982 76.9058H30.2297V74.9857ZM30.1884 104.928V103.079H29.118C28.4366 103.67 27.7811 104.284 27.1545 104.928H30.1884ZM30.348 132.738H23.7017V134.771H30.348V132.738ZM165.688 92.9364C161.564 93.2955 165.019 85.1524 165.019 85.1524C165.019 85.1524 169.137 77.3832 163.681 67.9076C156.993 56.2915 139.382 65.1533 139.382 65.1533C139.047 65.1533 137.153 70.9015 144.955 71.7398C152.757 72.5781 149.892 78.4459 153.905 79.8833C153.905 79.8833 156.048 76.7697 157.497 78.2067C158.947 79.6437 158.888 84.6733 154.541 83.835C154.541 83.835 149.86 96.2894 156.548 97.6068C163.236 98.9242 169.175 92.6326 165.688 92.9364ZM139.601 86.4311C138.969 89.2779 138.425 93.6029 140.089 96.2031C140.349 95.3742 140.513 94.7258 140.532 94.3371C140.652 91.9419 140.682 90.9242 140.682 90.9242C140.326 89.0568 139.819 87.5352 141.124 87.8339C140.504 87.4156 140.004 86.9412 139.601 86.4311ZM146.373 89.591C147.276 89.9226 148.134 91.0213 147.778 92.0914C147.603 92.6145 147.489 93.478 147.268 94.3239C147.779 94.1462 148.434 93.9228 149.184 93.6785C149.197 92.4361 148.731 90.7915 148.376 89.7261C147.714 89.7234 147.045 89.6791 146.373 89.591ZM102.134 156.047H127.123V135.449H102.134V156.047ZM78.4571 54.0599C77.843 54.1016 68.4698 48.351 60.2068 55.5362C50.0982 64.3261 60.4416 76.466 60.4416 76.466C60.4416 76.466 56.2022 84.0531 62.2142 85.9087C67.2217 87.4542 68.3583 81.6599 68.5128 80.6849C68.4974 80.611 68.4826 80.5421 68.4698 80.484L68.4463 80.4618C66.0091 79.0151 64.2499 76.5161 64.2499 76.5161C64.2499 76.5161 61.0094 77.2502 60.1728 74.0167C58.9882 69.4384 62.4954 70.363 63.8488 72.1218C64.562 73.0488 66.6102 73.374 66.506 71.8386C66.4019 70.3032 63.3132 64.6248 65.4198 62.5014C67.9998 59.9003 71.6811 61.7545 75.2761 61.5012C79.3885 61.2116 80.7243 60.1788 80.7243 60.1788C80.7243 60.1788 80.7267 60.1872 80.7314 60.2033C80.7334 60.2104 80.7364 60.2204 80.7394 60.2312C80.7438 60.246 80.7478 60.2611 80.7542 60.2829C80.7579 60.2964 80.7623 60.3118 80.767 60.328C80.7744 60.3542 80.7821 60.382 80.7915 60.4153C80.7969 60.4345 80.8026 60.455 80.8083 60.4768C80.8184 60.5131 80.8288 60.5514 80.8402 60.5941C80.8473 60.6199 80.8543 60.6461 80.8617 60.6743C80.8745 60.7217 80.8879 60.7721 80.902 60.8255C80.9098 60.8554 80.9175 60.884 80.9256 60.9156C80.9407 60.9737 80.9568 61.0362 80.9733 61.1007C80.982 61.1343 80.9901 61.1662 80.9991 61.2015C81.019 61.2798 81.0398 61.3634 81.0613 61.4495C81.0677 61.475 81.0734 61.4978 81.0798 61.524C81.1087 61.641 81.1382 61.7633 81.1691 61.8926C81.4477 61.8069 84.9553 60.6384 84.2682 56.3396C83.5522 51.863 79.0713 54.0183 78.4571 54.0599ZM33.5415 88.7481V84.1972H25.9171C25.6776 86.4725 26.5158 88.7481 26.5158 88.7481H33.5415Z" fill="#D25412"/>
<path fill-rule="evenodd" clip-rule="evenodd" d="M178.334 143.113C178.334 143.113 168.634 147.784 167.317 148.263C165.999 148.742 161.568 148.143 161.568 148.143C161.568 148.143 159.533 142.275 158.694 137.246C157.856 132.216 158.215 129.94 158.215 129.94L158.31 129.858L157.267 123.257L159.542 123.078L160.381 128.073L160.484 127.984L168.962 125.055C168.962 125.055 169.62 124.796 170.474 124.712L166.707 107.629L167.306 102.759L172.992 125.279C173.353 125.548 173.671 125.927 173.907 126.453C174.611 128.019 177.057 135.063 177.057 135.063C177.057 135.063 178.396 137.113 177.082 137.818L177.077 138.203L178.334 143.113ZM77.5545 94.8084C77.5754 94.3129 77.1903 93.8942 76.6948 93.8737C76.1992 93.8529 75.7806 94.2379 75.7601 94.7335C75.7392 95.2291 76.1243 95.6477 76.6198 95.6682C77.1151 95.689 77.5337 95.304 77.5545 94.8084ZM77.5613 100.382C78.0568 100.403 78.4755 100.018 78.4959 99.5222C78.5168 99.0266 78.1317 98.608 77.6362 98.5872C77.1406 98.5663 76.722 98.9514 76.7015 99.4469C76.6807 99.9428 77.0657 100.361 77.5613 100.382ZM137.677 37.5298H123.369V40.8173H136.462V96.5582H94.3316C94.9344 97.8988 95.4924 99.1664 95.9188 100.145H109.731C110.318 99.2202 110.58 98.6231 111.273 98.6231C112.259 98.6231 115.435 97.966 115.435 97.966C115.435 97.966 116.298 98.9047 115.312 99.6714C115.06 99.8673 114.767 100.022 114.468 100.145H137.676C138.071 100.145 138.447 100.063 138.79 99.9173C139.294 98.5435 139.558 97.8148 139.873 96.8216C139.948 96.5837 140.082 96.2229 140.088 96.2027C138.424 93.6026 138.968 89.2775 139.599 86.4308C139.609 86.4429 139.62 86.4543 139.63 86.4664C137.925 84.3424 137.964 81.5699 138.455 79.5234C139.174 76.5295 139.414 69.8234 139.414 69.8234C139.464 69.5986 139.529 69.3853 139.604 69.1786C138.388 67.3133 139.176 65.1529 139.381 65.1529C139.381 65.1529 139.801 64.9419 140.533 64.6278V40.3866C140.534 38.8156 139.248 37.5298 137.677 37.5298ZM91.4341 90.4333V40.8173H104.527V37.5298H90.2196C88.6482 37.5298 87.3624 38.8156 87.3624 40.3869V86.9069C88.3895 87.3003 89.6346 87.8688 90.271 88.5051C90.5152 88.7497 90.9305 89.4617 91.4341 90.4333ZM157.115 97.6992C155.321 100.504 155.95 105.893 155.95 105.893C155.95 105.893 157.776 101.013 158.524 97.8695C157.952 97.8947 157.71 97.7795 157.115 97.6992ZM166.818 98.0792C166.591 96.0583 166.249 95.0997 165.943 94.7829C165.409 95.3356 165.179 95.7394 164.213 96.2528C166.818 97.0313 166.855 98.4111 166.818 98.0792ZM69.5603 94.41C75.8672 93.7713 74.6298 86.4264 74.6298 86.4264C75.2286 89.6599 79.0607 93.7316 82.7733 92.0551C86.4855 90.3785 85.6473 84.9894 85.6473 84.9894L77.9829 83.792L77.693 83.8411C77.9006 84.4307 78.1029 84.5107 78.1029 84.5107C74.3906 88.4625 68.762 85.3489 68.762 85.3489L61.7363 88.5024C61.7363 88.5024 62.8871 95.0856 69.5603 94.41ZM81.2231 141.999C70.8044 143.017 67.2118 140.862 66.0741 138.706C64.9365 136.55 65.2359 132.599 65.2359 132.599C65.2359 132.599 64.5774 134.634 64.3976 136.311C64.3039 137.185 64.1278 138.302 63.8372 139.189L63.6857 140.12C63.6857 140.12 62.1086 151.358 62.0844 156.304L101.042 156.31C98.4863 148.301 95.2744 137.525 94.9992 136.738C93.5535 138.071 89.3612 141.204 81.2231 141.999Z" fill="#F48850"/>
<path fill-rule="evenodd" clip-rule="evenodd" d="M33.6451 146.818H33.7159L33.6884 152.545C31.3137 150.725 29.2767 148.805 27.538 146.818H33.6451ZM30.2305 135.795V134.771H23.9218V135.795C23.9218 135.795 22.7167 136.307 21.7853 137.816C22.3693 139.166 23.0617 140.506 23.8654 141.829C23.8798 141.829 23.895 141.829 23.9097 141.829C25.7727 141.837 28.385 141.846 30.5725 141.847C32.3482 141.846 33.6582 141.837 33.6813 141.814L33.681 141.838C33.7002 141.838 33.7206 141.838 33.7395 141.838L33.7415 141.445C33.7415 141.445 33.5768 137.44 30.2305 135.795ZM33.7159 116.976H20.7754C20.8456 120.693 20.9595 124.615 20.9595 124.615H33.6817L33.7159 116.976ZM30.2305 105.953V104.929H26.99C25.0017 106.918 23.2989 109.19 22.0377 111.986C25.7687 111.999 31.3211 112.014 33.7395 111.997L33.7415 111.603C33.7415 111.603 33.5768 107.598 30.2305 105.953ZM107.447 133.709H121.333L121.371 125.902H107.247C107.323 129.959 107.447 133.709 107.447 133.709ZM117.566 113.87V112.752H110.681V113.87C110.681 113.87 107.266 115.317 107.191 120.447C110.438 120.46 117.807 120.486 121.397 120.471L121.399 120.037C121.399 120.037 121.219 115.666 117.566 113.87ZM167.121 148.32C165.61 148.689 161.57 148.143 161.57 148.143C161.57 148.143 159.025 139.604 159.025 139.644C159.025 139.644 150.43 142.305 140.284 139.385L137.979 156.406H168.995L167.121 148.32ZM90.2726 88.5055C91.47 89.703 96.7391 102.038 96.7391 102.038C96.7391 102.038 95.9019 104.19 90.5249 105.269C89.7447 108.955 89.5821 111.571 90.877 117.314C88.5006 118.002 86.474 117.712 85.8588 117.123C85.1801 116.472 88.7758 114.363 87.9479 113.485C87.1201 112.607 87.2357 112.591 85.8508 113.651C84.4659 114.71 82.3519 114.754 81.5784 115.976C81.5784 115.976 68.9137 115.109 67.2789 115.211L65.9591 111.562C64.1721 113.168 60.6732 113.862 58.2535 114.158C58.2515 114.159 58.2491 114.159 58.2471 114.159C58.0714 114.18 57.9024 114.2 57.7391 114.217C57.7243 114.219 57.7088 114.22 57.6941 114.222C57.5385 114.238 57.3897 114.253 57.2479 114.266C57.2308 114.268 57.2136 114.269 57.1968 114.271C57.0567 114.284 56.924 114.295 56.7997 114.305C56.0998 114.36 55.6631 114.373 55.6631 114.373C54.7049 109.343 53.5763 98.2392 54.9444 95.3316C56.8605 91.2599 61.7705 89.3438 61.7705 89.3438L61.9543 89.321C62.5177 91.0623 64.3653 94.9365 69.5612 94.4104C74.1903 93.9417 74.7544 89.8629 74.7275 87.7244L75.0107 87.6891C76.2045 90.6037 79.5347 93.5183 82.7745 92.0552C85.2971 90.9159 85.718 88.0641 85.7291 86.3523C85.879 86.3953 89.103 87.3357 90.2726 88.5055ZM72.8302 101.897L72.4177 99.0855L65.9857 100.029L66.3983 102.84L72.8302 101.897ZM76.6211 95.6683C77.1166 95.6891 77.5353 95.3041 77.5558 94.8085C77.5766 94.3129 77.1916 93.8943 76.696 93.8738C76.2004 93.853 75.7818 94.238 75.7613 94.7336C75.7405 95.2292 76.1255 95.6474 76.6211 95.6683ZM78.4979 99.5223C78.5187 99.0267 78.1337 98.6081 77.6381 98.5873C77.1425 98.5664 76.7239 98.9515 76.7034 99.447C76.6826 99.9426 77.0676 100.361 77.5632 100.382C78.0584 100.403 78.477 100.018 78.4979 99.5223ZM88.7691 122.359C87.1668 122.928 86.2768 122.47 84.6385 121.795C81.1645 120.623 79.1433 121.056 78.8953 121.104C67.6921 123.857 64.4587 123.318 64.4587 123.318C64.4587 123.318 64.4587 126.072 64.3989 127.689C64.3391 129.305 62.7223 140.682 62.7223 140.682C63.7403 140.562 64.2191 137.987 64.3989 136.311C64.5786 134.634 65.2371 132.599 65.2371 132.599C65.2371 132.599 64.9378 136.55 66.0754 138.706C67.213 140.862 70.8056 143.017 81.2243 141.999C91.643 140.981 95.5948 136.132 95.5948 136.132L91.7626 121.042C91.7626 121.042 90.6254 121.701 88.7691 122.359ZM33.5422 91.862V89.1476H26.6762C28.6722 94.1772 33.5422 91.862 33.5422 91.862ZM30.2305 77.9299V76.9059H26.4034C25.8655 79.3669 25.5829 81.7913 25.6091 83.9712C28.4989 83.9819 32.2793 83.9886 33.7395 83.9695L33.7415 83.5804C33.7415 83.5804 33.5768 79.5759 30.2305 77.9299Z" fill="#3F3F3F"/>
<path d="M25.4422 156.307C25.4422 156.492 25.292 156.643 25.1066 156.643L23.2422 156.646C23.0568 156.646 22.9063 156.496 22.9059 156.311C22.9056 156.125 23.0558 155.974 23.2416 155.974L25.1062 155.971C25.291 155.971 25.4419 156.122 25.4422 156.307ZM175.107 156.304C175.107 156.49 174.957 156.64 174.771 156.64C174.771 156.64 174.771 156.64 174.771 156.64C125.914 156.567 76.3437 156.567 27.4379 156.64C27.2525 156.64 27.102 156.49 27.1016 156.304C27.1013 156.119 27.2515 155.968 27.4373 155.968C30.9842 155.962 34.5409 155.958 38.0942 155.954C17.3408 143.336 16.186 124.529 21.6161 112.098C24.6211 105.219 30.2427 101.441 36.1945 97.4416C42.4236 93.2556 48.8643 88.9272 53.4286 80.5915C54.6939 78.2803 56.2511 75.9954 58.0597 73.7658C57.2994 72.5314 56.6714 71.1563 56.2138 69.6736C54.4664 64.01 55.8177 58.5268 59.7403 55.3643C67.4191 49.1728 75.2548 52.4144 77.83 53.4797C78.0904 53.5873 78.3589 53.6985 78.4543 53.7223C78.5285 53.7092 78.7056 53.6561 78.8632 53.6091C79.7821 53.3346 81.6948 52.7624 83.0945 53.642C83.3831 53.8231 83.632 54.057 83.8437 54.3385C84.8963 53.8473 85.9574 53.3766 87.0271 52.9304V40.387C87.0271 38.6265 88.4597 37.1939 90.2202 37.1939H104.192V35.9333C104.192 35.7478 104.342 35.5973 104.528 35.5973H123.369C123.555 35.5973 123.705 35.7478 123.705 35.9333V37.1939H137.677C139.438 37.1939 140.87 38.6265 140.87 40.387V52.8579C145.384 54.9483 149.731 57.5421 153.728 60.5874C154.262 60.9949 154.784 61.4122 155.301 61.8332C159.143 62.4887 162.092 64.475 163.972 67.74C165.074 69.6538 165.784 71.5023 166.223 73.2387C172.406 81.669 176.081 91.4258 176.83 101.797C177.599 112.439 176.741 121.583 175.269 129.036C176.158 131.455 177.219 134.503 177.362 134.916C177.517 135.162 178.184 136.296 177.946 137.231C177.862 137.562 177.663 137.83 177.379 138.024L178.66 143.031C178.7 143.186 178.625 143.347 178.48 143.417C178.17 143.566 172.396 146.346 169.262 147.78C168.813 148.741 168.374 149.621 167.953 150.428L169.235 155.961C171.08 155.964 172.93 155.965 174.772 155.968C174.957 155.968 175.107 156.119 175.107 156.304ZM168.314 148.207C167.966 148.361 167.695 148.477 167.516 148.546L167.717 149.414C167.913 149.028 168.112 148.626 168.314 148.207ZM173.602 126.591C172.466 124.065 169.224 125.313 169.087 125.367L160.751 128.248L160.809 128.608C160.809 128.608 160.903 129.016 160.621 129.106C160.241 129.225 160.148 128.729 160.148 128.729L159.268 123.34C158.795 123.429 158.237 123.49 157.606 123.524L158.616 129.646C158.616 129.646 158.654 129.83 158.546 129.97C158.546 129.978 158.549 129.985 158.547 129.993C158.544 130.015 158.209 132.292 159.026 137.191C159.764 141.624 161.461 146.778 161.819 147.837C162.987 147.985 165.449 148.222 166.712 148.055L166.227 145.961C166.227 145.961 166.124 145.521 166.389 145.413C166.694 145.287 166.85 145.672 166.85 145.672L167.363 147.885C168.964 147.238 176.474 143.635 177.94 142.93L176.769 138.354C174.448 139.479 168.816 141.641 168.56 141.739C168.548 141.743 168.193 141.865 167.7 141.865C166.89 141.865 165.705 141.537 165.041 139.827C163.424 135.664 162.3 131.948 162.289 131.911C162.235 131.733 162.336 131.546 162.514 131.492C162.691 131.437 162.879 131.54 162.932 131.717C162.943 131.754 164.06 135.446 165.667 139.583C166.497 141.718 168.254 141.134 168.328 141.108C168.387 141.086 175.062 138.523 176.924 137.523C177.125 137.416 177.242 137.27 177.295 137.066C177.449 136.464 176.973 135.549 176.776 135.247C176.761 135.224 176.749 135.199 176.74 135.174C176.716 135.103 174.291 128.126 173.602 126.591ZM151.439 89.4268C151.41 89.1661 151.635 89.0377 151.716 89.0186C152.125 88.9228 152.52 88.8035 152.907 88.6718C153.356 86.0636 154.162 83.8872 154.226 83.7165C154.284 83.5629 154.444 83.4732 154.604 83.5048C156.05 83.783 157.098 83.3902 157.637 82.3679C158.319 81.0777 157.988 79.1667 157.26 78.4446C157.047 78.2326 156.812 78.1423 156.537 78.1675C155.621 78.2531 154.526 79.5722 154.181 80.0731C154.094 80.1985 153.935 80.2505 153.791 80.1991C152.02 79.5651 151.468 78.111 150.934 76.7046C150.158 74.6622 149.357 72.5506 144.919 72.0738C142.206 71.7825 140.641 70.9144 139.747 69.9222C139.715 70.741 139.466 76.7564 138.783 79.6021C138.29 81.6549 137.749 86.6358 143.354 88.5469C145.46 89.2645 147.65 89.5118 149.704 89.3361C149.795 89.3283 150.062 89.3861 150.062 89.6465C150.062 89.9059 149.851 89.999 149.761 90.0067C149.47 90.0319 149.176 90.046 148.88 90.0547C149.191 90.9538 149.753 92.884 149.459 94.366C149.643 95.0789 150.164 96.7844 150.681 97.3421C151.031 97.3387 152.057 96.5263 153.259 95.4075C152.49 93.726 152.503 91.4904 152.79 89.4234C152.478 89.5198 152.161 89.6069 151.837 89.6814C151.734 89.7053 151.464 89.6462 151.439 89.4268ZM163.776 96.7578C162.434 97.4694 160.759 98.0265 158.917 98.1105C158.08 101.718 155.247 109.918 154.764 111.305C157.498 114.334 163.783 114.229 165.122 114.171C165.43 112.63 167.007 104.428 166.823 99.3788C166.681 98.9407 166.487 98.5221 166.221 98.1528C165.658 97.3717 164.834 96.9047 163.776 96.7578ZM166.659 97.6253C166.649 97.5605 166.639 97.4926 166.627 97.4301C166.468 96.5912 166.208 95.892 165.897 95.2933C165.547 95.6135 165.124 95.9431 164.633 96.2599C165.462 96.5082 166.141 96.9651 166.659 97.6253ZM166.684 109.173C166.239 112.086 165.773 114.348 165.729 114.56C165.699 114.707 165.575 114.816 165.426 114.827C165.376 114.831 165.15 114.847 164.796 114.857C164.635 118.62 164.565 122.541 164.672 126.182L168.853 124.737C169.162 124.615 169.553 124.503 169.983 124.43L166.684 109.173ZM170.654 124.356C171.24 124.325 171.858 124.385 172.431 124.603L167.338 103.831C167.239 104.977 167.106 106.14 166.957 107.258L170.654 124.356ZM164.009 117.6C163.429 119.737 162.251 122.416 159.923 123.178L160.641 127.575L163.986 126.419C163.895 123.573 163.916 120.566 164.009 117.6ZM158.228 98.1219C157.837 98.1138 157.439 98.0846 157.038 98.0285C155.93 100.425 155.912 103.672 156.014 105.495C156.879 102.854 157.797 99.9207 158.228 98.1219ZM156.355 97.9052C155.151 97.6381 154.226 97.0038 153.596 96.0183C152.457 97.0676 151.278 98.001 150.676 98.0134C150.671 98.0134 150.666 98.0134 150.66 98.0134C150.446 98.0134 150.31 97.923 150.233 97.8461C149.459 97.072 148.855 94.7208 148.788 94.455C148.776 94.4043 148.775 94.3515 148.786 94.3008C148.796 94.2544 148.801 94.2051 148.81 94.1577C148.338 94.3136 147.908 94.4594 147.546 94.5844C147.294 95.4868 146.91 96.3493 146.181 96.8129C145.364 97.3327 145.258 98.4575 145.046 100.698L145.018 100.992C144.998 101.197 144.973 101.497 144.941 101.875C144.403 108.303 143.714 113.05 142.845 116.249L155.308 115.49L155.853 113.038C155.201 112.644 154.609 112.171 154.126 111.595C154.05 111.504 154.027 111.38 154.066 111.268C154.083 111.221 154.716 109.406 155.498 107.061C155.486 107.034 155.474 107.008 155.469 106.978C155.43 106.699 154.752 101.548 156.355 97.9052ZM148.095 92.1979C148.008 92.4593 147.932 92.8386 147.852 93.2408C147.815 93.4236 147.777 93.6127 147.735 93.8046C148.075 93.6883 148.457 93.5596 148.867 93.4249C148.861 92.117 148.378 90.64 148.168 90.0594C147.992 90.0564 147.815 90.0517 147.638 90.043C147.72 90.1448 147.797 90.2523 147.864 90.3685C148.204 90.9531 148.288 91.6197 148.095 92.1979ZM139.999 95.3161C140.114 94.8911 140.184 94.5498 140.196 94.32C140.302 92.2016 140.337 91.152 140.344 90.9501C140.011 89.2007 139.832 88.0644 140.241 87.5833C140.082 87.4462 139.935 87.3051 139.795 87.1609C139.297 89.6636 138.968 92.9949 139.999 95.3161ZM138.667 101.227C137.076 105.544 135.097 110.916 134.959 113.671C134.808 116.692 135.398 118.94 136.619 120C136.682 120.055 136.748 120.104 136.814 120.151C137.164 118.256 137.905 116.998 139.018 116.414C140.258 115.763 141.532 116.179 141.865 116.308L142.131 116.292C142.917 113.465 143.675 108.94 144.271 101.819C144.303 101.438 144.329 101.135 144.348 100.929L144.376 100.635C144.601 98.2539 144.725 96.9423 145.82 96.2461C146.672 95.7035 146.961 94.2649 147.192 93.1088C147.281 92.6676 147.357 92.2866 147.458 91.9856C147.59 91.5905 147.526 91.1241 147.283 90.7058C147.053 90.3091 146.693 90.0161 146.334 89.926C145.264 89.7866 144.19 89.542 143.137 89.1828C142.247 88.8795 141.504 88.5001 140.879 88.0708C140.788 88.0278 140.739 88.0217 140.727 88.0217C140.724 88.0217 140.723 88.0217 140.723 88.0217C140.515 88.2576 140.837 89.9512 141.01 90.8611C141.015 90.8849 141.017 90.9095 141.017 90.9336C141.016 90.9437 140.985 91.9826 140.867 94.3536C140.815 95.3971 139.867 97.9697 138.667 101.227ZM138.094 124.159C138.844 125.212 139.977 125.65 140.547 125.813L140.875 121.77C140.882 121.677 140.928 121.592 141.002 121.534C141.075 121.476 141.169 121.451 141.261 121.465C141.408 121.488 155.956 123.714 159.672 122.555C162.936 121.534 163.733 115.891 163.851 114.865C162.011 114.846 158.919 114.605 156.466 113.375L155.909 115.882C155.876 116.029 155.751 116.136 155.601 116.145L141.829 116.983C141.775 116.985 141.72 116.976 141.671 116.954C141.659 116.949 140.442 116.42 139.325 117.011C138.402 117.499 137.777 118.606 137.469 120.3C137.183 121.876 137.393 123.174 138.094 124.159ZM139.779 138.698C146.263 141.036 153.561 140.361 158.748 139.31C158.604 138.635 158.473 137.96 158.363 137.301C157.525 132.275 157.869 129.983 157.884 129.888C157.893 129.832 157.919 129.784 157.951 129.742L156.929 123.549C151.906 123.673 143.586 122.491 141.586 122.194C141.037 128.239 139.985 137 139.779 138.698ZM165.315 85.3097C164.717 86.7228 163.353 90.7603 164.355 92.1398C164.62 92.504 165.049 92.6555 165.658 92.6018C166.316 92.543 166.75 92.6942 166.951 93.0473C167.097 93.303 167.16 93.7602 166.637 94.4859C166.568 94.5827 166.486 94.6832 166.397 94.786C166.782 95.4781 167.098 96.3076 167.288 97.3045C167.508 98.4643 167.549 99.9802 167.482 101.63C167.487 101.644 167.497 101.655 167.5 101.67L173.234 125.053C173.624 125.354 173.965 125.76 174.215 126.316C174.358 126.633 174.569 127.169 174.816 127.82C176.149 120.623 176.887 111.912 176.16 101.845C175.394 91.2518 171.808 82.1599 166.52 74.6084C167.629 80.8099 165.346 85.2502 165.315 85.3097ZM139.558 65.4406C139.399 65.7057 139 67.0328 139.566 68.3982C140.255 70.0583 142.131 71.0985 144.99 71.4056C149.838 71.9263 150.754 74.3383 151.562 76.4661C152.058 77.771 152.489 78.908 153.787 79.4751C154.196 78.9402 155.323 77.6064 156.475 77.4989C156.948 77.4545 157.375 77.6121 157.733 77.9679C158.659 78.8858 159.069 81.0969 158.231 82.682C157.853 83.399 156.905 84.5201 154.762 84.2131C154.284 85.5949 152.183 92.1324 154.031 95.4485C154.587 96.4464 155.432 97.0444 156.612 97.2769C161.005 98.1424 165.016 95.5873 166.092 94.0928C166.393 93.6752 166.403 93.4431 166.367 93.3789C166.333 93.3204 166.159 93.2317 165.716 93.2707C164.862 93.345 164.22 93.0973 163.811 92.5342C162.406 90.5993 164.469 85.5862 164.709 85.0207C164.761 84.9186 168.682 77.2674 163.389 68.075C157.05 57.066 140.322 65.067 139.558 65.4406ZM140.87 64.1259C142.639 63.4002 145.652 62.3261 148.974 61.8419C150.821 61.5728 152.537 61.5227 154.121 61.6753C149.964 58.4401 145.474 55.7473 140.87 53.6138V64.1259ZM123.705 40.4814H136.462C136.648 40.4814 136.798 40.6319 136.798 40.8174V96.5583C136.798 96.7437 136.648 96.8942 136.462 96.8942H94.8544C95.3335 97.965 95.7767 98.9736 96.1409 99.8089H109.545C109.586 99.7427 109.63 99.6738 109.668 99.6116C110.125 98.8715 110.486 98.2872 111.273 98.2872C112.214 98.2872 115.336 97.6435 115.368 97.6367C115.484 97.6142 115.603 97.6512 115.683 97.7386C115.732 97.793 116.17 98.2886 116.116 98.9272C116.089 99.2582 115.93 99.5525 115.658 99.8092H137.677C137.975 99.8092 138.261 99.7554 138.527 99.659C138.992 98.3897 139.416 97.2057 139.72 96.2495C138.113 93.5714 138.613 89.3545 139.234 86.5044C137.318 83.9318 137.835 80.6715 138.129 79.4455C138.831 76.5191 139.075 69.8785 139.078 69.812C139.079 69.7915 139.081 69.771 139.085 69.7512C139.125 69.5731 139.176 69.4008 139.232 69.2314C138.646 68.2507 138.576 67.2505 138.609 66.6259C138.61 66.6091 138.709 65.0529 139.254 64.8412C139.344 64.7969 139.675 64.6366 140.198 64.4095V40.387C140.198 38.9967 139.067 37.8658 137.677 37.8658H123.705V40.4814ZM112.382 100.459C112.429 100.341 112.539 100.259 112.665 100.248C112.68 100.246 114.212 100.102 115.107 99.4067C115.32 99.2411 115.431 99.066 115.448 98.8715C115.465 98.6655 115.371 98.4666 115.292 98.3383C114.556 98.4868 112.142 98.9595 111.274 98.9595C110.877 98.9595 110.682 99.2498 110.24 99.9651C109.948 100.438 109.584 101.027 109.008 101.692C107.558 103.365 98.0388 105.864 96.9583 106.143C96.8054 106.183 96.6445 106.11 96.5736 105.968C96.376 105.573 96.0172 104.672 95.6352 103.671C94.7106 104.321 93.2098 105.045 90.8079 105.552C90.4699 107.183 90.2606 108.614 90.2575 110.231C91.2258 112.005 92.5422 113.594 94.1801 113.672C98.6187 113.885 109.551 106.525 109.662 106.451C109.747 106.393 109.852 106.378 109.949 106.408C114.643 107.861 119.342 107.498 120.784 106.247C121.792 105.373 121.954 104.331 121.977 103.923C121.998 103.54 121.929 103.298 121.882 103.214C121.705 103.196 121.224 103.22 120.757 103.243C119.764 103.292 118.265 103.367 116.828 103.23C114.424 103.001 112.524 100.896 112.444 100.806C112.36 100.711 112.336 100.577 112.382 100.459ZM97.051 102.159C97.0349 102.201 96.8484 102.651 96.1886 103.236C96.5239 104.12 96.8464 104.942 97.0598 105.422C100.124 104.617 107.422 102.495 108.5 101.251C108.734 100.981 108.927 100.724 109.1 100.481H96.4332C96.7352 101.177 96.9543 101.689 97.047 101.906C97.0813 101.987 97.0829 102.078 97.051 102.159ZM104.863 42.7822H123.033V36.2689H104.863V42.7822ZM104.191 43.1182V41.1534H91.7701V90.3531C92.5896 91.9345 93.618 94.1469 94.5527 96.2223H136.126V41.1534H123.705V43.1182C123.705 43.3036 123.554 43.4542 123.369 43.4542H104.527C104.342 43.4542 104.191 43.304 104.191 43.1182ZM87.6984 86.6768C88.7107 87.0779 89.8759 87.6353 90.5085 88.2676C90.656 88.4151 90.8579 88.7135 91.0982 89.122V40.8174C91.0982 40.6319 91.2487 40.4814 91.4341 40.4814H104.191V37.8658H90.2196C88.8293 37.8658 87.6984 38.9967 87.6984 40.387V86.6768ZM86.0578 86.8055C85.9772 88.6134 85.4033 91.2357 82.9114 92.3609C81.5208 92.9888 80.0041 92.9126 78.5248 92.1388C77.1208 91.4047 75.841 90.0493 75.0464 88.5552C74.9692 89.8037 74.6513 91.365 73.6925 92.6223C72.7567 93.8496 71.3779 94.5632 69.5942 94.744C69.2575 94.7779 68.934 94.794 68.6235 94.794C64.2125 94.7944 62.4049 91.5216 61.7437 89.7187C60.9242 90.0739 56.9002 91.9627 55.2479 95.4741C53.9631 98.2042 55.0117 108.96 55.9393 114.023C57.4113 113.947 64.1298 113.459 66.1847 110.841C65.8067 109.738 63.8201 103.769 63.7095 99.8912C63.7041 99.7057 63.8503 99.5508 64.0358 99.5458C64.2152 99.5354 64.3758 99.6862 64.3811 99.872C64.4981 103.963 66.8536 110.72 66.8775 110.788C66.9131 110.89 66.8976 111.004 66.8351 111.092C66.695 111.291 66.5317 111.479 66.351 111.657L67.5121 114.867C68.3608 114.854 70.3525 114.946 72.5794 115.07C72.5844 115.066 72.5871 115.06 72.5925 115.056C77.4719 111.577 85.7984 110.3 86.1505 110.247C86.3336 110.223 86.505 110.347 86.5325 110.53C86.5601 110.714 86.4338 110.885 86.25 110.912C86.1693 110.924 78.5191 112.099 73.6898 115.134C77.021 115.329 80.5377 115.568 81.4126 115.628C81.9303 114.958 82.7857 114.647 83.6875 114.319C84.3749 114.07 85.0858 113.811 85.6466 113.383L85.8277 113.244C87.0039 112.341 87.223 112.217 88.0717 113.125L88.1923 113.254C88.8548 113.957 87.904 114.914 87.0651 115.759C86.7204 116.105 86.1519 116.678 86.1112 116.898C86.635 117.364 88.3744 117.617 90.4799 117.075C89.2503 111.504 89.4169 108.895 90.1823 105.261C90.1836 105.219 90.1917 105.18 90.2078 105.143C90.2515 104.938 90.2962 104.731 90.3435 104.519C91.2591 100.399 87.6376 95.0964 87.601 95.043C87.4955 94.8905 87.5338 94.6811 87.6863 94.5757C87.8388 94.4705 88.0481 94.5081 88.1536 94.661C88.3102 94.8874 91.9781 100.261 90.9994 104.665C90.9873 104.72 90.9755 104.773 90.9634 104.828C94.9824 103.923 96.1237 102.439 96.3683 102.025C94.8625 98.5073 90.9665 89.6744 90.0344 88.7427C89.1549 87.8645 86.9811 87.1015 86.0578 86.8055ZM95.9467 117.573C95.9181 117.379 95.7988 117.213 95.5828 117.084C95.0264 116.749 93.7245 116.654 91.7375 117.386C89.0208 118.387 86.4492 118.155 85.6251 117.365C85.5034 117.248 85.4379 117.097 85.4359 116.929C85.4302 116.474 85.87 116.008 86.5873 115.285C87.0526 114.817 87.9191 113.945 87.7024 113.715L87.5795 113.584C87.398 113.39 87.2035 113.176 87.1316 113.175C87.0053 113.187 86.6656 113.447 86.2355 113.777L86.0534 113.916C85.4107 114.408 84.6507 114.684 83.9156 114.951C83.0525 115.265 82.2374 115.561 81.8614 116.155C81.7956 116.26 81.6813 116.317 81.5543 116.311C81.428 116.302 68.8953 115.443 67.2988 115.546C67.1499 115.551 67.0129 115.465 66.9621 115.325L65.8037 112.122C63.5422 113.815 59.4772 114.406 57.2402 114.607C57.9636 116.692 59.1449 119.569 60.5765 121.087C62.8692 123.519 65.8826 123.239 70.5736 122.489C73.1922 122.07 75.1526 121.61 76.7277 121.24C78.5789 120.805 79.8029 120.518 80.8649 120.579C81.9491 120.642 83.3589 121.062 84.7223 121.469C85.7853 121.786 86.7892 122.086 87.4561 122.153C88.8216 122.303 95.8042 118.525 95.9467 117.573ZM87.3886 122.823C86.6582 122.748 85.6247 122.44 84.5304 122.114C83.2037 121.718 81.8319 121.309 80.8263 121.25C79.8603 121.197 78.675 121.473 76.8816 121.894C75.2957 122.267 73.3225 122.73 70.6801 123.153C68.9605 123.428 67.281 123.697 65.7113 123.697C65.4247 123.697 65.1421 123.687 64.8633 123.667C64.8616 124.149 64.8599 124.606 64.8599 125.031C64.8599 127.962 63.6238 136.63 63.134 139.951C63.6269 138.856 63.8815 137.225 63.9497 136.496L64.911 130.842C64.9402 130.67 65.0971 130.546 65.2705 130.564C65.4445 130.578 65.5782 130.724 65.5782 130.899C65.5782 130.919 65.5813 132.969 65.8171 136.625C66.0385 140.055 69.483 140.983 69.5179 140.992C86.3148 144.156 94.1902 137.147 95.2475 136.109C94.9236 134.857 93.0183 127.481 91.5128 121.386C89.7899 122.249 88.113 122.895 87.3886 122.823ZM69.6184 80.6829C70.1284 80.8959 70.6465 81.0626 71.1679 81.1859C71.2936 81.2155 71.563 81.3435 71.5429 81.583C71.523 81.8226 71.2452 81.8931 71.0953 81.8592C70.5111 81.7261 69.9302 81.5417 69.3593 81.3031C69.2162 81.2433 69.0758 81.1775 68.9363 81.1096C69.1124 82.0917 69.3086 83.656 69.1268 85.1568C70.1197 85.6336 74.5384 87.4922 77.6341 84.507C77.3694 84.1109 77.0731 83.2522 76.9595 81.417C75.8182 81.8837 74.5982 82.1202 73.3575 82.1202C73.3074 82.1202 72.96 82.0221 72.9798 81.7826C73.0064 81.4637 73.3088 81.4446 73.3592 81.4446C74.8627 81.4446 76.3336 81.0777 77.6483 80.3436C79.9114 79.0796 81.4475 76.8464 81.8621 74.2167C82.5139 70.0828 81.4986 64.7743 80.8582 62.0546C80.8464 62.0331 80.8317 62.0139 80.8246 61.9894C80.8139 61.9515 80.8135 61.9138 80.8159 61.8765C80.6949 61.3709 80.5898 60.9647 80.5155 60.6885C79.8415 61.0292 78.2739 61.6266 75.2981 61.8362C74.0923 61.9205 72.8891 61.7767 71.7253 61.637C69.3392 61.3504 67.2783 61.1028 65.6565 62.7376C64.2881 64.1172 65.4455 67.4356 66.2112 69.6312C66.5442 70.5861 66.8072 71.3404 66.8395 71.8154C66.8832 72.4575 66.605 72.9406 66.0761 73.1409C65.3047 73.4318 64.1392 73.0518 63.5812 72.3265C62.8427 71.3669 61.4974 70.7759 60.814 71.1099C60.2143 71.4029 60.1018 72.4051 60.4969 73.9321C61.2397 76.8044 64.0556 76.2141 64.1752 76.1879C64.1994 76.1825 64.2239 76.1798 64.2481 76.1798C64.3563 76.1798 64.4598 76.2319 64.5236 76.3223C64.5461 76.3542 66.782 79.4976 69.6184 80.6829ZM68.169 80.6873C67.8622 80.5005 67.5672 80.2999 67.2853 80.0893C67.28 80.0889 67.2749 80.0889 67.2695 80.0886C64.8552 79.8951 62.5336 78.7437 60.5916 76.9062C60.1226 77.8523 58.7081 81.0354 59.6328 83.3415C60.0638 84.4163 60.9652 85.1719 62.3125 85.5879C63.6222 85.9927 64.7561 85.894 65.6814 85.2942C67.4721 84.1351 68.045 81.4278 68.17 80.6917C68.1696 80.69 68.1693 80.689 68.169 80.6873ZM78.3474 84.7402C77.3314 85.8217 76.176 86.3956 75.0249 86.6563C75.4936 88.5929 77.0539 90.6114 78.8359 91.5431C79.735 92.0131 81.1243 92.4304 82.6349 91.7484C85.6372 90.3924 85.4443 86.3173 85.3435 85.2815L78.2221 84.1687C78.2406 84.1932 78.254 84.207 78.2607 84.2131C78.3451 84.2581 78.4072 84.3374 78.4297 84.4314C78.4556 84.542 78.425 84.6579 78.3474 84.7402ZM68.7529 85.7209L62.1213 88.6977C62.4052 89.8807 63.9014 94.6455 69.5263 94.0757C71.1175 93.9148 72.3395 93.2888 73.1579 92.2154C74.5727 90.3601 74.4292 87.6636 74.3358 86.7776C74.0093 86.8182 73.6854 86.8367 73.3676 86.8367C71.1824 86.8367 69.2864 85.9843 68.7529 85.7209ZM84.1649 54.8707C84.3648 55.2745 84.512 55.7439 84.5983 56.2858C85.2246 60.2044 82.5216 61.6995 81.5651 62.1003C82.2219 64.9124 83.1875 70.1255 82.5257 74.3212C82.0785 77.1562 80.4201 79.5651 77.9758 80.9302C77.8579 80.9961 77.7373 81.0549 77.6173 81.1153C77.6748 82.2671 77.8015 83.0022 77.9285 83.4645C77.9631 83.4588 77.9984 83.4541 78.035 83.4598L85.6993 84.6572C85.8438 84.6797 85.957 84.793 85.9795 84.9374C85.9893 84.9999 86.0548 85.4491 86.0672 86.1029C86.2849 86.1701 86.6212 86.278 87.0268 86.4231V53.5943C86.0592 54.0035 85.1056 54.4296 84.1649 54.8707ZM66.2851 79.2691C65.1801 78.273 64.3932 77.2741 64.0989 76.88C63.303 76.9828 60.6202 77.092 59.8464 74.1008C59.2266 71.7046 59.87 70.8236 60.5191 70.5065C61.61 69.9729 63.2583 70.8055 64.1137 71.9169C64.4893 72.4048 65.343 72.6997 65.8386 72.5126C65.9955 72.4531 66.2008 72.3211 66.1696 71.8615C66.1433 71.4764 65.8809 70.7242 65.5769 69.8527C64.707 67.3584 63.5157 63.9425 65.1798 62.2646C67.0323 60.3969 69.3509 60.6747 71.8056 60.9697C72.9378 61.1058 74.1084 61.2466 75.2507 61.1656C79.2156 60.8861 80.5044 59.9225 80.5172 59.9127C80.6052 59.8449 80.7201 59.825 80.8259 59.859C80.9314 59.8932 81.0134 59.9772 81.0447 60.0834C81.0679 60.1617 81.212 60.6586 81.4069 61.4438C82.2895 61.0641 84.474 59.7686 83.9344 56.3917C83.7661 55.3381 83.3626 54.6043 82.736 54.2105C81.594 53.4929 79.942 53.9871 79.0547 54.2525C78.7852 54.3331 78.6068 54.3862 78.4785 54.395C78.3185 54.4087 78.1465 54.3378 77.5723 54.1C75.0881 53.0722 67.5293 49.9456 60.1609 55.8867C55.7337 59.4565 55.5503 65.2464 56.8549 69.475C58.4461 74.6303 62.1539 78.4292 66.2851 79.2691ZM27.8287 104.593H29.8929V103.341C29.7296 103.34 29.5032 103.338 29.2227 103.337C28.7446 103.743 28.2823 104.163 27.8287 104.593ZM22.5736 111.645C26.9326 111.667 32.2428 111.681 33.4039 111.652L33.4042 111.601C33.4029 111.579 33.2027 107.789 30.0807 106.254C29.9658 106.198 29.8929 106.081 29.8929 105.953V105.265H27.1399C25.331 107.09 23.768 109.16 22.5736 111.645ZM21.0839 115.409C21.09 115.819 21.0967 116.23 21.1041 116.64H33.3801L33.4009 112.308C32.9278 112.333 31.9851 112.345 30.0505 112.345C28.3441 112.345 25.8609 112.335 22.2561 112.316C22.2484 112.333 22.2397 112.35 22.2319 112.367C21.8053 113.343 21.4206 114.359 21.0839 115.409ZM21.1168 117.312C21.174 120.212 21.2549 123.469 21.2835 124.375H33.3458L33.3767 117.312H21.1168ZM19.5428 124.375H20.6172C20.5964 123.642 20.5127 120.649 20.4516 117.659C19.9302 119.801 19.611 122.056 19.5428 124.375ZM33.3767 147.154H28.2655C29.7427 148.776 31.4337 150.352 33.3542 151.865L33.3767 147.154ZM33.4005 142.151C32.9275 142.175 31.9847 142.188 30.0502 142.188C28.7153 142.188 26.899 142.181 24.4501 142.17C25.374 143.632 26.4434 145.073 27.6677 146.482H33.3801L33.4005 142.151ZM33.4039 141.444C33.4026 141.421 33.2023 137.631 30.0804 136.096C29.9655 136.04 29.8926 135.923 29.8926 135.795V135.107H24.2562V135.795C24.2562 135.93 24.1756 136.052 24.0513 136.104C23.9807 136.135 22.9788 136.59 22.153 137.855C22.6889 139.076 23.3141 140.292 24.0348 141.494C28.0471 141.512 32.3691 141.52 33.4042 141.494L33.4039 141.444ZM29.8929 134.435V133.183C29.1578 133.177 27.2199 133.167 24.2562 133.184V134.435H29.8929ZM38.121 154.507H37.0503C37.401 154.735 37.7579 154.961 38.121 155.186V154.507ZM38.121 127.293H19.6157C19.6066 127.293 19.5992 127.288 19.5905 127.288C19.7927 130.523 20.5007 133.842 21.8442 137.127C22.5152 136.244 23.2369 135.774 23.5843 135.587V132.851C23.5843 132.666 23.7334 132.516 23.9179 132.515C27.9651 132.487 30.2104 132.514 30.2329 132.515C30.4171 132.517 30.5649 132.667 30.5649 132.851V135.589C33.8702 137.354 34.0688 141.263 34.0755 141.432L34.0235 152.385C34.6699 152.876 35.3442 153.359 36.0413 153.835H38.121V127.293ZM38.121 125.047H19.53C19.5256 125.573 19.5344 126.101 19.5562 126.632C19.5764 126.629 19.5945 126.62 19.6157 126.62H38.121V125.047ZM38.121 99.2699H34.688C33.0743 100.37 31.506 101.481 30.032 102.67C30.1604 102.672 30.2292 102.672 30.2329 102.672C30.4171 102.675 30.5649 102.824 30.5649 103.008V105.747C33.8702 107.512 34.0688 111.42 34.0755 111.589L34.0171 124.375H38.121V99.2699ZM38.121 97.0246H38.0149C37.5321 97.3515 37.0496 97.6757 36.5685 97.9993C36.2708 98.1995 35.9745 98.3987 35.6788 98.598H38.1207L38.121 97.0246ZM43.5501 93.0345C41.9888 94.2699 40.3923 95.4025 38.7933 96.4954V155.594C38.9936 155.714 39.1938 155.834 39.3978 155.952C40.7827 155.95 42.1645 155.948 43.5501 155.947V93.0345ZM61.7555 155.929C61.6584 152.543 62.5665 145.022 63.0557 141.266C62.9707 141.348 62.882 141.421 62.7879 141.481C62.6767 141.552 62.5343 141.552 62.4241 141.479C62.3135 141.407 62.2554 141.277 62.2752 141.147C62.2944 141.022 64.1873 128.557 64.1873 125.031C64.1873 124.605 64.189 124.145 64.1906 123.662C64.1906 123.641 64.1906 123.619 64.191 123.598C62.6582 123.386 61.2656 122.799 60.0873 121.549C58.521 119.887 57.2762 116.811 56.5428 114.663C56.0532 114.696 55.7341 114.707 55.6709 114.708C55.6679 114.708 55.6645 114.708 55.6615 114.708C55.5005 114.708 55.3618 114.594 55.3316 114.435C54.505 110.095 53.1316 98.3924 54.6391 95.1881C56.451 91.3378 60.7633 89.3979 61.5327 89.077C61.444 88.7662 61.4067 88.571 61.405 88.56C61.3785 88.4084 61.4581 88.2586 61.5982 88.1958L68.4519 85.1195C68.5691 84.1916 68.5291 83.2169 68.4391 82.3863C68.0494 83.5616 67.332 85.0251 66.0486 85.857C65.382 86.2891 64.6338 86.5054 63.8117 86.5054C63.2761 86.5054 62.7096 86.4137 62.114 86.2299C60.5631 85.7512 59.5178 84.8632 59.0082 83.5902C57.8877 80.7925 59.7335 77.0809 60.091 76.4066C59.5034 75.7931 58.9561 75.1151 58.4572 74.3796C56.6956 76.5574 55.2012 78.7521 54.0172 80.9148C51.2639 85.943 47.854 89.5279 44.2214 92.4953V155.946C50.06 155.939 55.9054 155.933 61.7555 155.929ZM100.519 155.913C98.1628 148.413 95.3396 139.126 94.808 137.375C92.6618 139.073 87.189 142.471 77.7699 142.471C75.2554 142.471 72.4601 142.229 69.3714 141.647C69.3103 141.632 65.3985 140.578 65.1462 136.668C65.088 135.767 65.044 134.962 65.0104 134.26L64.615 136.583C64.5925 136.83 64.4262 138.412 63.9353 139.75C63.5933 142.277 62.3105 152.069 62.4278 155.928C75.1113 155.918 87.815 155.913 100.519 155.913ZM126.786 135.785H102.469V155.711H126.786V135.785ZM127.122 135.113H129.56V133.869H99.6948V135.113H102.133H127.122ZM111.015 113.088V113.87C111.015 114.005 110.934 114.127 110.81 114.18C110.681 114.235 107.742 115.554 107.535 120.106C112.527 120.134 119.701 120.158 121.061 120.121L121.061 120.036C121.06 120.01 120.842 115.856 117.417 114.172C117.302 114.115 117.229 113.998 117.229 113.871V113.089L111.015 113.088ZM117.229 112.416V110.99C116.448 110.983 114.309 110.97 111.015 110.991V112.416H117.229ZM107.522 120.778C107.521 122.19 107.508 123.87 107.492 125.566H121.036L121.058 120.775C120.554 120.802 119.513 120.816 117.299 120.816C115.233 120.816 112.144 120.804 107.522 120.778ZM107.486 126.238C107.458 128.952 107.426 131.616 107.425 133.197H121.003L121.034 126.238H107.486ZM137.732 155.926L139.892 139.441C139.694 139.372 139.494 139.311 139.296 139.237C139.15 139.183 139.061 139.036 139.08 138.881C139.094 138.77 139.866 132.416 140.486 126.492C139.868 126.334 138.475 125.851 137.547 124.548C136.847 123.565 136.568 122.333 136.711 120.881C136.525 120.772 136.345 120.652 136.178 120.506C134.778 119.291 134.125 116.916 134.288 113.637C134.431 110.779 136.43 105.354 138.036 100.994C138.107 100.802 138.177 100.611 138.247 100.421C138.062 100.456 137.872 100.48 137.677 100.48H114.531C114.13 100.639 113.73 100.744 113.408 100.81C114.078 101.412 115.4 102.417 116.892 102.56C118.281 102.692 119.693 102.622 120.723 102.571C121.499 102.533 121.881 102.516 122.089 102.568C122.257 102.61 122.481 102.757 122.592 103.221C122.779 104.002 122.569 105.588 121.224 106.754C119.441 108.299 114.39 108.445 109.905 107.096C108.591 107.974 98.8986 114.347 94.3629 114.347C94.29 114.347 94.2184 114.345 94.1482 114.342C92.5771 114.267 91.2981 113.081 90.3015 111.598C90.3986 113.073 90.6584 114.758 91.1257 116.885C91.2517 116.844 91.3777 116.802 91.5054 116.755C93.4097 116.053 95.0217 115.962 95.9285 116.507C96.3189 116.74 96.5555 117.084 96.6129 117.498C96.6489 117.759 96.5108 118.041 96.1782 118.386C95.478 119.112 93.833 120.168 92.1269 121.069C93.7722 127.737 95.9208 136.028 95.9453 136.123C95.9735 136.232 95.9453 136.348 95.8694 136.432C95.8586 136.444 95.6913 136.623 95.3688 136.907C95.4928 137.316 98.6251 147.645 101.19 155.806C101.201 155.841 101.202 155.877 101.201 155.912C101.4 155.912 101.598 155.912 101.797 155.912V135.784H99.3589C99.1734 135.784 99.0229 135.634 99.0229 135.448V133.532C99.0229 133.347 99.1734 133.196 99.3589 133.196H106.785C106.806 130.429 106.85 124.516 106.85 120.616C106.85 115.871 109.559 114.079 110.343 113.661V110.656C110.343 110.471 110.492 110.322 110.677 110.32C115.094 110.291 117.544 110.32 117.569 110.32C117.753 110.323 117.901 110.472 117.901 110.656V113.664C121.509 115.578 121.725 119.84 121.733 120.023L121.674 133.197H129.896C130.082 133.197 130.232 133.347 130.232 133.533V135.449C130.232 135.635 130.082 135.785 129.896 135.785H127.458V155.92C130.883 155.923 134.31 155.924 137.732 155.926ZM168.545 155.96L166.864 148.709C166.497 148.762 166.053 148.782 165.58 148.782C163.818 148.782 161.652 148.494 161.523 148.476C161.398 148.459 161.292 148.373 161.251 148.254C161.234 148.205 159.845 144.18 158.892 139.964C156.234 140.502 153.031 140.944 149.656 140.944C146.66 140.944 143.534 140.596 140.541 139.662L138.409 155.927C148.476 155.934 158.521 155.946 168.545 155.96ZM179 155.974L177.355 155.971C177.169 155.971 177.019 156.122 177.019 156.307C177.018 156.492 177.168 156.643 177.354 156.643L178.999 156.646C179.184 156.646 179.335 156.495 179.335 156.31C179.336 156.125 179.185 155.974 179 155.974ZM182.945 155.974H181.647C181.461 155.974 181.311 156.124 181.311 156.31C181.311 156.495 181.461 156.646 181.647 156.646H182.945C183.13 156.646 183.281 156.495 183.281 156.31C183.281 156.124 183.13 155.974 182.945 155.974ZM165.722 143.782C165.722 143.782 165.89 144.055 166.129 143.975C166.477 143.859 166.342 143.478 166.342 143.478L166.077 142.337C166.077 142.337 165.97 141.94 165.61 142.079C165.344 142.183 165.452 142.618 165.452 142.618L165.722 143.782ZM26.8194 90.5832C22.9987 84.6162 26.6178 68.6794 33.3827 61.6813C37.9729 56.9326 44.4371 55.4244 49.1022 58.0134C53.2172 60.2974 54.8078 65.1258 53.357 70.9295C49.1351 87.8168 34.2435 92.2745 33.7258 92.4234C32.7068 92.7792 31.8157 92.9297 31.0379 92.9297C28.8611 92.9297 27.567 91.7511 26.8194 90.5832ZM33.3767 89.2894H26.8994C27.0448 89.6216 27.2034 89.9371 27.3849 90.2207C28.6491 92.1952 30.6617 92.7352 33.3643 91.8334L33.3767 89.2894ZM32.5408 63.6995H39.718C39.9286 63.6797 41.5561 63.5736 42.8113 64.7307C43.8038 65.6455 44.2782 67.0802 44.2217 68.9952C44.0642 74.3518 44.2201 79.3041 44.2217 79.3535V85.3433C47.6736 82.1169 51.0381 77.4333 52.7049 70.7665C54.0773 65.2763 52.6088 60.7288 48.7759 58.6014C47.3497 57.8098 45.741 57.4278 44.0695 57.4278C40.5848 57.4278 36.8252 59.0866 33.8655 62.1483C33.4086 62.6207 32.9678 63.1432 32.5408 63.6995ZM29.6457 68.5064H36.3814C36.3968 68.5047 37.3893 68.4362 38.1026 69.0967C38.5608 69.5211 38.7933 70.1339 38.7933 70.918V89.3851C40.2589 88.5274 41.9021 87.4022 43.5501 85.9531V79.3642C43.5488 79.3256 43.3922 74.3528 43.5501 68.9758C43.6005 67.2639 43.1987 66.002 42.3557 65.2249C41.2628 64.2173 39.7862 64.3681 39.7714 64.3698C39.7589 64.3712 39.7468 64.3718 39.7344 64.3718H32.0439C31.1666 65.6113 30.362 67.0096 29.6457 68.5064ZM27.3462 74.6377C29.2099 74.6377 30.2182 74.6498 30.2329 74.6498C30.4171 74.6521 30.5649 74.802 30.5649 74.9857V77.7246C33.8702 79.4892 34.0688 83.398 34.0755 83.5666L34.0372 91.6174C34.7757 91.363 36.2691 90.7895 38.121 89.7675V70.918C38.121 70.3311 37.9625 69.8856 37.6497 69.5936C37.1551 69.1316 36.4119 69.1763 36.4055 69.1777L29.3355 69.1784C28.5483 70.9174 27.8767 72.7676 27.3462 74.6377ZM26.8476 76.5699H29.8929V75.3184C29.4357 75.3147 28.5084 75.3093 27.1628 75.3096C27.0512 75.7299 26.9444 76.1502 26.8476 76.5699ZM25.958 83.6369C29.3366 83.6486 32.5307 83.651 33.4039 83.6295L33.4042 83.5791C33.4029 83.5569 33.2027 79.7671 30.0807 78.2316C29.9658 78.1752 29.8929 78.0583 29.8929 77.9303V77.2422H26.7018C26.2291 79.4657 25.968 81.6499 25.958 83.6369ZM26.639 88.6174H33.3801L33.4009 84.2856C32.9278 84.3102 31.9851 84.3226 30.0505 84.3226C29.0066 84.3226 27.6667 84.3189 25.9637 84.3115C26.0026 85.9319 26.2227 87.3955 26.639 88.6174ZM146.71 111.421C146.621 111.416 146.31 111.402 146.31 111.761C146.31 111.987 146.656 112.098 146.75 112.104C148.142 112.199 149.683 112.562 150.808 113.548C150.872 113.603 150.951 113.631 151.03 113.631C151.123 113.631 151.216 113.592 151.282 113.516C151.405 113.377 151.391 113.165 151.251 113.042C149.961 111.911 148.236 111.514 146.71 111.421ZM104.313 67.6927C104.45 67.818 104.459 68.0303 104.334 68.1674L103.53 69.047C103.818 69.5725 103.983 70.1745 103.983 70.8149C103.983 72.8489 102.328 74.5039 100.294 74.5039C98.2599 74.5039 96.6048 72.8489 96.6048 70.8149C96.6048 68.7806 98.2599 67.1259 100.294 67.1259C101.44 67.1259 102.466 67.6517 103.143 68.4748L103.838 67.7145C103.963 67.5767 104.175 67.5677 104.313 67.6927ZM103.311 70.8149C103.311 70.3748 103.214 69.9575 103.044 69.5798L100.542 72.3187C100.478 72.3886 100.388 72.4283 100.294 72.4283C100.288 72.4283 100.283 72.4283 100.278 72.4279C100.178 72.4232 100.086 72.3745 100.026 72.2949L98.6684 70.4984C98.5565 70.3502 98.5858 70.1396 98.7339 70.0277C98.8821 69.9158 99.0928 69.9451 99.2047 70.0932L100.318 71.5672L102.682 68.9788C102.13 68.2621 101.266 67.7975 100.294 67.7975C98.6298 67.7975 97.2765 69.1511 97.2765 70.8146C97.2765 72.478 98.6298 73.8317 100.294 73.8317C101.958 73.832 103.311 72.4787 103.311 70.8149ZM117.233 49.5696H115.573V48.9276H117.014V48.3292H115.573V47.709H117.211V47.1106H114.905V50.1683H117.233L117.233 49.5696ZM112.076 48.2244L113.556 50.168H114.128V47.1103H113.464V48.9931L112.032 47.1103H111.411V50.168H112.075L112.076 48.2244ZM121.484 47.1103H120.811V50.168H121.484V47.1103ZM118.545 48.9844H120.004V48.3729H118.545V47.7221H120.201V47.1106H117.873V50.1683H118.545V48.9844ZM110.771 49.5696H109.111V48.9276H110.553V48.3292H109.111V47.709H110.749V47.1106H108.443V50.1683H110.771L110.771 49.5696ZM106.702 50.168H105.248V47.1103H106.667C107.017 47.1103 107.292 47.2064 107.467 47.3811C107.606 47.5208 107.676 47.6912 107.676 47.9008V47.9096C107.676 48.2546 107.493 48.4468 107.275 48.5691C107.629 48.7045 107.847 48.9098 107.847 49.3203V49.3291C107.846 49.8885 107.392 50.168 106.702 50.168ZM105.903 48.3463H106.523C106.82 48.3463 107.008 48.2502 107.008 48.0231V48.0144C107.008 47.8135 106.851 47.6999 106.567 47.6999H105.902L105.903 48.3463ZM105.903 49.5784H106.702C106.999 49.5784 107.178 49.4735 107.178 49.2464V49.2377C107.178 49.0324 107.025 48.9057 106.68 48.9057H105.903L105.903 49.5784ZM72.7484 99.0368L73.1609 101.848C73.1878 102.031 73.0608 102.202 72.8774 102.229L66.4454 103.173C66.4293 103.175 66.4128 103.177 66.3967 103.177C66.3248 103.177 66.2546 103.154 66.1961 103.111C66.1249 103.057 66.0772 102.977 66.0644 102.89L65.6518 100.078C65.6249 99.8949 65.7519 99.7242 65.9354 99.6973L72.3674 98.7535C72.5498 98.7257 72.7218 98.853 72.7484 99.0368ZM72.4473 101.613L72.1325 99.4665L66.3654 100.312L66.6802 102.459L72.4473 101.613ZM104.313 53.5584C104.45 53.6837 104.459 53.896 104.334 54.0331L103.53 54.9127C103.818 55.4382 103.983 56.0402 103.983 56.6806C103.983 58.7146 102.328 60.3697 100.294 60.3697C98.2599 60.3697 96.6048 58.7146 96.6048 56.6806C96.6048 54.6463 98.2599 52.9916 100.294 52.9916C101.44 52.9916 102.466 53.5174 103.143 54.3405L103.838 53.5802C103.963 53.4421 104.175 53.4337 104.313 53.5584ZM103.311 56.6806C103.311 56.2405 103.214 55.8232 103.044 55.4456L100.542 58.1845C100.478 58.2543 100.388 58.294 100.294 58.294C100.288 58.294 100.283 58.294 100.278 58.2937C100.178 58.2889 100.086 58.2402 100.026 58.1606L98.6684 56.3641C98.5565 56.216 98.5858 56.0053 98.7339 55.8934C98.8821 55.7815 99.0928 55.8108 99.2047 55.9589L100.318 57.4329L102.682 54.8445C102.13 54.1279 101.266 53.6632 100.294 53.6632C98.6298 53.6632 97.2765 55.0169 97.2765 56.6803C97.2765 58.3437 98.6298 59.6974 100.294 59.6974C101.958 59.6977 103.311 58.3444 103.311 56.6806ZM104.313 81.4913C104.45 81.6166 104.459 81.829 104.334 81.966L103.53 82.8456C103.818 83.3711 103.983 83.9732 103.983 84.6135C103.983 86.6476 102.328 88.3026 100.294 88.3026C98.2599 88.3026 96.6048 86.6476 96.6048 84.6135C96.6048 82.5792 98.2599 80.9245 100.294 80.9245C101.44 80.9245 102.466 81.4503 103.143 82.2735L103.838 81.5131C103.963 81.375 104.175 81.3663 104.313 81.4913ZM103.311 84.6135C103.311 84.1734 103.214 83.7561 103.044 83.3785L100.542 86.1174C100.478 86.1873 100.388 86.2269 100.294 86.2269C100.288 86.2269 100.283 86.2269 100.278 86.2266C100.178 86.2219 100.086 86.1732 100.026 86.0935L98.6684 84.2971C98.5565 84.1489 98.5858 83.9382 98.7339 83.8263C98.8821 83.7145 99.0928 83.7437 99.2047 83.8919L100.318 85.3658L102.682 82.7774C102.13 82.0608 101.266 81.5961 100.294 81.5961C98.6298 81.5961 97.2765 82.9498 97.2765 84.6132C97.2765 86.2766 98.6298 87.6303 100.294 87.6303C101.958 87.6306 103.311 86.277 103.311 84.6135ZM123.002 50.168H123.675V47.7308H124.606V47.1106H122.072V47.7308H123.003V50.168H123.002ZM76.6057 96.0039C75.9257 95.9757 75.3955 95.3995 75.4241 94.7194C75.4379 94.3902 75.579 94.0858 75.8219 93.8627C76.0645 93.6393 76.3816 93.524 76.7089 93.5381C77.0381 93.5519 77.3425 93.693 77.5656 93.9356C77.789 94.1782 77.9043 94.4933 77.8902 94.8226C77.8764 95.1519 77.7353 95.4563 77.4927 95.6793C77.2629 95.8907 76.9686 96.0052 76.6585 96.0052C76.6407 96.0052 76.6232 96.0049 76.6057 96.0039ZM76.2432 95.1515C76.345 95.2621 76.4834 95.3266 76.6336 95.3326C76.944 95.3454 77.2058 95.1038 77.2189 94.7944C77.2253 94.6445 77.1725 94.5007 77.0711 94.3905C76.9692 94.28 76.8308 94.2155 76.6806 94.2094C76.6726 94.2091 76.6645 94.2091 76.6565 94.2091C76.5153 94.2091 76.3813 94.2612 76.2765 94.3573C76.1659 94.4591 76.1014 94.5975 76.0954 94.7477C76.089 94.8975 76.1414 95.041 76.2432 95.1515ZM131.127 84.3673C131.127 84.8386 130.744 85.222 130.272 85.222H107.04C106.569 85.222 106.185 84.8383 106.185 84.3673C106.185 83.8962 106.569 83.5125 107.04 83.5125H130.272C130.744 83.5122 131.127 83.8959 131.127 84.3673ZM130.455 84.3673C130.455 84.2682 130.371 84.1845 130.272 84.1845H107.04C106.941 84.1845 106.857 84.2685 106.857 84.3673C106.857 84.466 106.941 84.55 107.04 84.55H130.272C130.371 84.55 130.455 84.4664 130.455 84.3673ZM106.185 75.4057C106.185 74.9343 106.569 74.551 107.04 74.551H119.096C119.567 74.551 119.95 74.9347 119.95 75.4057C119.95 75.8768 119.567 76.2604 119.096 76.2604H107.04C106.569 76.2604 106.185 75.8768 106.185 75.4057ZM106.857 75.4057C106.857 75.5048 106.941 75.5885 107.04 75.5885H119.096C119.195 75.5885 119.278 75.5045 119.278 75.4057C119.278 75.3069 119.195 75.2229 119.096 75.2229H107.04C106.941 75.2226 106.857 75.3066 106.857 75.4057ZM107.04 54.0126H130.272C130.744 54.0126 131.127 54.3963 131.127 54.8677C131.127 55.3391 130.744 55.7224 130.272 55.7224H107.04C106.569 55.7224 106.185 55.3387 106.185 54.8677C106.185 54.3963 106.569 54.0126 107.04 54.0126ZM130.272 54.6846H107.04C106.941 54.6846 106.857 54.7686 106.857 54.8677C106.857 54.9668 106.941 55.0505 107.04 55.0505H130.272C130.371 55.0505 130.455 54.9665 130.455 54.8677C130.455 54.7686 130.371 54.6846 130.272 54.6846ZM131.127 82.052C131.127 82.5234 130.744 82.9068 130.272 82.9068H107.04C106.569 82.9068 106.185 82.5231 106.185 82.052C106.185 81.581 106.569 81.1973 107.04 81.1973H130.272C130.744 81.197 131.127 81.5807 131.127 82.052ZM130.455 82.052C130.455 81.9529 130.371 81.8693 130.272 81.8693H107.04C106.941 81.8693 106.857 81.9533 106.857 82.052C106.857 82.1508 106.941 82.2348 107.04 82.2348H130.272C130.371 82.2348 130.455 82.1512 130.455 82.052ZM118.254 86.6825C118.254 87.1539 117.87 87.5372 117.399 87.5372H107.04C106.569 87.5372 106.185 87.1535 106.185 86.6825C106.185 86.2115 106.569 85.8278 107.04 85.8278H117.399C117.87 85.8278 118.254 86.2111 118.254 86.6825ZM117.582 86.6825C117.582 86.5834 117.498 86.4997 117.399 86.4997H107.04C106.941 86.4997 106.857 86.5837 106.857 86.6825C106.857 86.7813 106.941 86.8653 107.04 86.8653H117.399C117.498 86.8653 117.582 86.7816 117.582 86.6825ZM131.127 70.7749C131.127 71.2463 130.744 71.63 130.272 71.63H107.04C106.569 71.63 106.185 71.2463 106.185 70.7749C106.185 70.3035 106.569 69.9202 107.04 69.9202H130.272C130.744 69.9202 131.127 70.3035 131.127 70.7749ZM130.455 70.7749C130.455 70.6758 130.371 70.5921 130.272 70.5921H107.04C106.941 70.5921 106.857 70.6761 106.857 70.7749C106.857 70.874 106.941 70.958 107.04 70.958H130.272C130.371 70.958 130.455 70.8744 130.455 70.7749ZM131.127 73.0902C131.127 73.5615 130.744 73.9449 130.272 73.9449H107.04C106.569 73.9449 106.185 73.5612 106.185 73.0902C106.185 72.6191 106.569 72.2354 107.04 72.2354H130.272C130.744 72.2354 131.127 72.6191 131.127 73.0902ZM130.455 73.0902C130.455 72.991 130.371 72.9074 130.272 72.9074H107.04C106.941 72.9074 106.857 72.9914 106.857 73.0902C106.857 73.1889 106.941 73.2729 107.04 73.2729H130.272C130.371 73.2733 130.455 73.1893 130.455 73.0902ZM131.127 68.4597C131.127 68.9311 130.744 69.3148 130.272 69.3148H107.04C106.569 69.3148 106.185 68.9311 106.185 68.4597C106.185 67.9883 106.569 67.605 107.04 67.605H130.272C130.744 67.605 131.127 67.9883 131.127 68.4597ZM130.455 68.4597C130.455 68.3606 130.371 68.2769 130.272 68.2769H107.04C106.941 68.2769 106.857 68.3609 106.857 68.4597C106.857 68.5588 106.941 68.6428 107.04 68.6428H130.272C130.371 68.6428 130.455 68.5591 130.455 68.4597ZM131.127 57.1829C131.127 57.6543 130.744 58.0376 130.272 58.0376H107.04C106.569 58.0376 106.185 57.6539 106.185 57.1829C106.185 56.7115 106.569 56.3278 107.04 56.3278H130.272C130.744 56.3278 131.127 56.7115 131.127 57.1829ZM130.455 57.1829C130.455 57.0838 130.371 56.9998 130.272 56.9998H107.04C106.941 56.9998 106.857 57.0838 106.857 57.1829C106.857 57.282 106.941 57.3657 107.04 57.3657H130.272C130.371 57.366 130.455 57.282 130.455 57.1829ZM78.8319 99.536C78.8181 99.8653 78.677 100.17 78.4345 100.393C78.205 100.604 77.9103 100.719 77.6005 100.719C77.5827 100.719 77.5653 100.718 77.5475 100.718C77.2182 100.704 76.9138 100.562 76.6907 100.32C76.4673 100.077 76.3521 99.7622 76.3658 99.4329C76.3941 98.7532 76.9672 98.216 77.6503 98.2513C78.3303 98.2802 78.8601 98.856 78.8319 99.536ZM78.1606 99.5082C78.1737 99.1984 77.9322 98.9356 77.6224 98.9229C77.6143 98.9225 77.6063 98.9225 77.5982 98.9225C77.4571 98.9225 77.3227 98.9749 77.2182 99.071C77.1077 99.1728 77.0432 99.3113 77.0371 99.4615C77.024 99.7712 77.2656 100.034 77.5754 100.047C77.7299 100.054 77.869 100.001 77.9795 99.8989C78.0901 99.7968 78.1542 99.6583 78.1606 99.5082ZM106.185 59.4981C106.185 59.0268 106.569 58.6434 107.04 58.6434H127.189C127.66 58.6434 128.044 59.0271 128.044 59.4981C128.044 59.9695 127.66 60.3532 127.189 60.3532H107.04C106.569 60.3532 106.185 59.9695 106.185 59.4981ZM106.857 59.4981C106.857 59.5973 106.941 59.6812 107.04 59.6812H127.189C127.288 59.6812 127.372 59.5973 127.372 59.4981C127.372 59.399 127.288 59.3154 127.189 59.3154H107.04C106.941 59.315 106.857 59.399 106.857 59.4981ZM106.185 61.8134C106.185 61.342 106.569 60.9586 107.04 60.9586H116.142C116.613 60.9586 116.996 61.3423 116.996 61.8134C116.996 62.2847 116.613 62.6684 116.142 62.6684H107.04C106.569 62.6684 106.185 62.2847 106.185 61.8134ZM106.857 61.8134C106.857 61.9125 106.941 61.9965 107.04 61.9965H116.142C116.241 61.9965 116.324 61.9125 116.324 61.8134C116.324 61.7143 116.241 61.6306 116.142 61.6306H107.04C106.941 61.6306 106.857 61.7143 106.857 61.8134Z" fill="#828282"/>
</svg>
