<svg width="200" height="200" viewBox="0 0 200 200" fill="none" xmlns="http://www.w3.org/2000/svg">
<path fill-rule="evenodd" clip-rule="evenodd" d="M32.3689 145.464C33.7991 145.489 35.1209 146.023 36.161 146.894C35.1585 148.077 33.7192 148.89 32.053 149.033C30.3862 149.175 28.8297 148.618 27.6406 147.623C28.6432 146.44 30.0832 145.627 31.7493 145.485C31.9576 145.467 32.1646 145.461 32.3689 145.464ZM169.715 144.613C169.919 144.609 170.126 144.616 170.334 144.634C172.001 144.776 173.44 145.59 174.442 146.772C173.253 147.768 171.697 148.324 170.031 148.182C168.365 148.04 166.925 147.227 165.922 146.044C166.962 145.172 168.284 144.637 169.715 144.613ZM40.6682 139.159C41.0949 140.65 40.9702 142.299 40.1629 143.763C39.3555 145.228 38.0281 146.214 36.5394 146.649C36.1127 145.158 36.2373 143.51 37.0447 142.045C37.8517 140.58 39.1791 139.594 40.6682 139.159ZM161.416 138.308C162.904 138.743 164.232 139.729 165.039 141.194C165.846 142.659 165.971 144.308 165.544 145.798C164.055 145.363 162.728 144.377 161.921 142.912C161.113 141.448 160.988 139.799 161.416 138.308ZM174.33 139.257C175.76 139.305 177.074 139.862 178.099 140.751C177.078 141.917 175.624 142.706 173.955 142.821C172.289 142.935 170.744 142.355 169.572 141.342C169.632 141.276 169.693 141.21 169.753 141.145C170.762 140.088 172.138 139.377 173.711 139.268C173.919 139.253 174.126 139.25 174.33 139.257ZM168.892 132.558C170.037 133.605 170.795 135.074 170.875 136.745C170.955 138.416 170.34 139.95 169.3 141.101C168.156 140.054 167.398 138.585 167.318 136.914C167.239 135.254 167.845 133.727 168.892 132.558ZM158.44 132.41C159.871 132.443 161.189 132.986 162.225 133.864C161.215 135.041 159.77 135.845 158.102 135.977C156.435 136.109 154.882 135.543 153.699 134.54C154.709 133.362 156.153 132.559 157.821 132.427C158.03 132.41 158.236 132.405 158.44 132.41ZM148.957 126.981C150.458 127.37 151.816 128.314 152.668 129.753C153.52 131.192 153.695 132.836 153.315 134.34C151.814 133.95 150.456 133.006 149.604 131.567C148.752 130.129 148.576 128.484 148.957 126.981ZM161.09 126.196C161.294 126.192 161.501 126.199 161.709 126.217C163.375 126.359 164.816 127.172 165.819 128.355C164.63 129.35 163.072 129.907 161.405 129.764C159.739 129.622 158.299 128.81 157.297 127.627C158.337 126.755 159.659 126.22 161.09 126.196ZM152.79 119.891C154.279 120.325 155.606 121.312 156.414 122.777C157.221 124.242 157.346 125.891 156.919 127.381C155.43 126.947 154.103 125.96 153.295 124.496C152.488 123.031 152.364 121.382 152.79 119.891ZM165.33 124.403C163.664 124.518 162.119 123.938 160.948 122.925C161.044 122.819 161.145 122.714 161.244 122.608C162.241 121.617 163.573 120.955 165.086 120.851C165.294 120.836 165.501 120.833 165.705 120.839C167.135 120.888 168.449 121.444 169.474 122.333C168.453 123.499 167 124.288 165.331 124.403H165.33ZM160.268 114.141C161.412 115.187 162.17 116.657 162.25 118.328C162.329 119.998 161.715 121.533 160.675 122.683C159.53 121.637 158.773 120.167 158.693 118.497V118.497C158.613 116.826 159.228 115.291 160.268 114.141ZM53.7697 80.1236L52.2487 80.3214C52.1654 80.3322 52.1029 80.4041 52.1029 80.4878C52.1029 80.4975 52.1036 80.5072 52.1052 80.5166C52.3774 82.0494 52.0559 83.5102 50.8077 84.9321C50.7842 84.959 50.7697 84.9926 50.7664 85.0278C49.4883 93.3477 48.1646 98.6266 45.7354 101.011C43.8959 102.738 41.0499 102.787 39.1526 101.123C37.255 99.4588 36.9311 96.6295 38.404 94.58C38.777 94.0613 39.0783 93.6416 39.2484 93.4048C39.3481 93.2664 39.452 93.1313 39.5605 92.9996V92.9989C41.1742 91.0321 42.1529 88.6218 42.3669 86.0872C42.459 84.9983 42.5547 83.8674 42.6303 82.9737C42.7197 81.917 43.2186 80.937 44.0213 80.2438C44.6304 79.7177 45.2234 79.206 45.2234 79.206C45.2294 79.2003 45.2352 79.1946 45.2402 79.1882C45.2402 79.1882 45.3544 79.0561 45.5352 78.8458C46.8028 77.3749 48.6259 76.5212 50.5419 76.4701C50.8158 76.4631 51.0909 76.4718 51.3671 76.4977C52.2447 76.5807 53.2009 76.671 54.1369 76.7594C55.3585 76.8746 56.4615 77.5372 57.1362 78.5616C57.8112 79.5863 57.9845 80.861 57.6086 82.0285C57.2702 83.0781 57.1197 83.5472 56.9931 83.9396C56.8946 83.3741 56.7905 82.7751 56.7045 82.2829C56.4632 80.8953 55.1677 79.9415 53.771 80.1232L53.7697 80.1236Z" fill="#D25412"/>
<path fill-rule="evenodd" clip-rule="evenodd" d="M51.8103 121.946C51.8197 122.119 51.9252 124.011 52.0237 125.77C52.1198 127.477 52.6294 129.133 53.5097 130.598L54.7921 132.732L53.1576 149.609C53.1573 149.615 53.1569 149.62 53.1569 149.625C53.1569 149.769 53.1495 149.914 53.1348 150.06V150.06C53.1082 150.325 53.0581 150.58 52.9873 150.826C52.9859 150.832 52.9849 150.837 52.9839 150.842L50.8968 161.678L49.1171 163.805C49.1171 163.805 47.8989 165.261 46.9511 166.395C46.2862 167.189 46.3917 168.377 47.1863 169.042C47.7389 169.504 48.4562 170.104 49.1598 170.692L48.345 174.925L42.031 174.288L43.2943 161.739C43.2993 161.721 43.3013 161.702 43.3003 161.684L44.5223 149.553C44.5236 149.539 44.5233 149.525 44.5216 149.511L42.1063 132.987C41.5986 129.514 41.9158 125.971 43.0299 122.644L51.8103 121.946ZM63.9764 120.976L72.767 145.271C72.7697 145.279 72.773 145.286 72.7767 145.293C73.572 146.795 73.4322 148.693 72.2741 150.078C72.1038 150.282 71.9186 150.466 71.7214 150.63C71.7177 150.633 71.714 150.637 71.7103 150.64L54.35 167.964L49.4817 163.892L63.621 146.989C63.6667 146.934 63.6727 146.856 63.6361 146.795L53.7976 130.425C52.9456 129.006 52.452 127.403 52.359 125.751C52.2602 123.988 52.154 122.085 52.145 121.919L63.9764 120.976ZM123.544 158.844H111.821C111.104 158.844 110.524 158.264 110.524 157.547V145.824C110.524 145.107 111.104 144.527 111.821 144.527H123.544C124.262 144.527 124.841 145.107 124.841 145.824V157.547C124.841 158.264 124.262 158.844 123.544 158.844ZM123.544 103.047C124.262 103.047 124.841 103.627 124.841 104.344V116.066C124.841 116.784 124.262 117.364 123.544 117.364H111.822C111.104 117.364 110.525 116.784 110.525 116.066V104.344C110.525 103.627 111.104 103.047 111.822 103.047H123.544ZM81.2447 81.6193H89.8142C90.5322 81.6193 91.1121 82.1985 91.1121 82.9161V94.6384C91.1121 95.3561 90.5322 95.936 89.8142 95.936H78.0923C77.3743 95.936 76.7954 95.3564 76.7954 94.6384V92.3078L77.0252 92.1492L78.437 91.1755C78.4551 91.1627 78.4706 91.1463 78.4823 91.1275L78.483 91.1268C79.2027 90.6097 79.7402 89.8323 79.9126 88.8925L81.2447 81.6193ZM106.679 74.5073H94.9574C94.2394 74.5073 93.6595 73.928 93.6595 73.2104V61.4881C93.6595 60.7805 94.2233 60.207 94.9574 60.1906H106.679C107.397 60.1906 107.977 60.7705 107.977 61.4881V73.2104C107.977 73.928 107.397 74.5073 106.679 74.5073Z" fill="#3F3F3F"/>
<path fill-rule="evenodd" clip-rule="evenodd" d="M78.0915 59.855C77.1918 59.855 76.459 60.5888 76.459 61.4882V67.3077C76.0955 67.2008 75.6879 67.2643 75.3701 67.5166C74.8514 67.9282 74.7637 68.6875 75.1756 69.2063L76.5994 71.0017L73.2776 86.0207L71.3427 87.2104V49.3677C71.3427 48.4176 72.1014 47.6499 73.0777 47.6334H84.6656C84.7567 50.6925 87.2533 53.1519 90.3339 53.1519H111.301C114.382 53.1519 116.879 50.6925 116.97 47.6334H128.557C129.517 47.6334 130.292 48.4075 130.292 49.3677V163.844C130.292 164.804 129.517 165.579 128.557 165.579H73.0774C72.1175 165.579 71.3424 164.804 71.3424 163.844V151.48L71.9462 150.878C72.1548 150.704 72.351 150.509 72.5311 150.294C73.7739 148.807 73.9288 146.768 73.0787 145.15L71.3424 140.351V96.0715L76.4587 92.5397V94.6382C76.4587 95.5379 77.1914 96.2714 78.0912 96.2714H89.8131C90.7129 96.2714 91.4467 95.5379 91.4467 94.6382V82.9159C91.4467 82.0165 90.7129 81.2834 89.8131 81.2834H81.3055C81.7497 78.8589 81.962 77.7015 82.4861 74.8426H89.8131C90.7129 74.8426 91.4467 74.1095 91.4467 73.2101V61.4878C91.4467 60.5884 90.7129 59.8546 89.8131 59.8546L78.0915 59.855ZM106.679 144.191H94.9567C94.0569 144.191 93.3231 144.925 93.3231 145.825V157.547C93.3231 158.446 94.0569 159.179 94.9567 159.179H106.679C107.578 159.179 108.311 158.447 108.311 157.547V145.825C108.311 144.925 107.578 144.191 106.679 144.191ZM89.8135 144.191H78.0915C77.1918 144.191 76.459 144.925 76.459 145.825V157.547C76.459 158.446 77.1918 159.179 78.0915 159.179H89.8135C90.7132 159.179 91.447 158.446 91.447 157.547V145.825C91.447 144.925 90.7132 144.191 89.8135 144.191ZM123.543 144.191H111.821C110.921 144.191 110.188 144.925 110.188 145.825V157.547C110.188 158.447 110.921 159.179 111.821 159.179H123.543C124.443 159.179 125.176 158.447 125.176 157.547V145.825C125.176 144.925 124.443 144.191 123.543 144.191ZM31.4782 116.458L37.5157 118.653L31.1641 134.326C31.1449 134.373 31.1483 134.426 31.1725 134.47L32.3165 136.547C32.548 136.968 32.3954 137.494 31.9741 137.726C31.5535 137.958 31.028 137.805 30.7962 137.384L30.4639 136.781C30.4343 136.727 30.3779 136.694 30.3174 136.694C30.2492 136.694 30.1874 136.736 30.1622 136.799L29.3756 138.74C29.1206 139.369 28.4164 139.682 27.7784 139.45C27.0399 139.182 26.1032 138.841 25.2952 138.548C24.3927 138.219 23.9298 137.226 24.2577 136.324C26.1368 131.154 31.3945 116.687 31.4782 116.458ZM106.679 102.712H94.9567C94.0569 102.712 93.3231 103.445 93.3231 104.344V116.067C93.3231 116.966 94.0569 117.7 94.9567 117.7H106.679C107.578 117.7 108.311 116.966 108.311 116.067V104.344C108.311 103.445 107.578 102.712 106.679 102.712ZM89.8135 102.712H78.0915C77.1918 102.712 76.459 103.445 76.459 104.344V116.067C76.459 116.966 77.1918 117.7 78.0915 117.7H89.8135C90.7132 117.7 91.447 116.966 91.447 116.067V104.344C91.447 103.445 90.7132 102.712 89.8135 102.712ZM123.543 102.712H111.821C110.921 102.712 110.188 103.445 110.188 104.344V116.067C110.188 116.966 110.921 117.7 111.821 117.7H123.543C124.443 117.7 125.176 116.966 125.176 116.067V104.344C125.176 103.445 124.443 102.712 123.543 102.712ZM106.679 81.2837H94.9567C94.0569 81.2837 93.3231 82.0168 93.3231 82.9162V94.6385C93.3231 95.5383 94.0569 96.2717 94.9567 96.2717H106.679C107.578 96.2717 108.311 95.5383 108.311 94.6385V82.9162C108.311 82.0168 107.578 81.2837 106.679 81.2837ZM123.543 81.2837H111.821C110.921 81.2837 110.188 82.0168 110.188 82.9162V94.6385C110.188 95.5383 110.921 96.2717 111.821 96.2717H123.543C124.443 96.2717 125.176 95.5383 125.176 94.6385V82.9162C125.176 82.0168 124.443 81.2837 123.543 81.2837ZM54.0418 80.4384C55.1734 80.4024 56.1753 81.2017 56.3739 82.3404C56.684 84.1237 57.109 86.5707 57.4171 88.3416C57.569 89.2131 57.3489 90.1085 56.8103 90.8094C56.2721 91.5105 55.4647 91.9544 54.5838 92.033C52.3825 92.2295 51.7223 92.1566 51.7223 92.1566C51.7152 92.1556 51.7081 92.1553 51.7011 92.1553C51.6087 92.1553 51.5334 92.2309 51.5334 92.3229C51.5334 92.4093 51.6003 92.4822 51.686 92.4899C51.686 92.4899 52.3616 92.5474 54.2579 92.3935L54.568 95.1374L48.9367 95.5924C49.7719 92.876 50.4341 89.3949 51.0923 85.1149C52.323 83.6927 52.6771 82.175 52.4483 80.6339C52.5736 80.6175 53.0857 80.5509 53.8134 80.4562C53.8903 80.4468 53.9666 80.4407 54.0418 80.4384ZM79.1808 65.3583C79.2628 65.357 79.3454 65.364 79.4291 65.3795C80.2018 65.5209 81.1822 65.701 82.0279 65.8559C82.9723 66.0286 83.5942 66.93 83.4215 67.8745C82.4223 73.3294 79.5813 88.8318 79.5813 88.8318C79.4217 89.7057 78.9221 90.4307 78.2451 90.8987C78.2404 90.9018 78.236 90.9048 78.232 90.9085L76.9815 91.7716L73.6049 86.0979L76.9448 70.9967C76.9556 70.9473 76.9435 70.8956 76.9119 70.8566L75.4386 68.9986C75.1396 68.622 75.2025 68.0787 75.5788 67.78C75.955 67.481 76.4993 67.5439 76.7977 67.9202L77.225 68.4587C77.257 68.4994 77.3053 68.5229 77.3571 68.5229C77.4354 68.5229 77.5036 68.4678 77.5207 68.3912L77.9726 66.3464C78.1013 65.7659 78.6086 65.367 79.1808 65.3583ZM94.9567 59.855C94.0569 59.855 93.3231 60.5884 93.3231 61.4882V73.2105C93.3231 74.1099 94.0569 74.843 94.9567 74.843H106.679C107.578 74.843 108.311 74.1099 108.311 73.2105V61.4882C108.311 60.5884 107.578 59.855 106.679 59.855H94.9567ZM111.821 59.855C110.921 59.855 110.188 60.5884 110.188 61.4882V73.2105C110.188 74.1099 110.921 74.843 111.821 74.843H123.543C124.443 74.843 125.176 74.1099 125.176 73.2105V61.4882C125.176 60.5884 124.443 59.855 123.543 59.855H111.821Z" fill="#FFD2BB"/>
<path fill-rule="evenodd" clip-rule="evenodd" d="M65.6369 161.528H61.2722L65.6369 157.172V161.528ZM42.9775 161.528H26.6543C26.7443 156.038 31.2233 151.611 36.7353 151.611C37.5131 151.611 38.2694 151.7 38.9971 151.867C39.0116 151.873 39.0267 151.877 39.0425 151.878C39.1104 151.898 40.42 152.277 41.31 153.315C41.3419 153.352 41.3886 153.374 41.4377 153.374C41.5301 153.374 41.6053 153.298 41.6053 153.206C41.6053 153.166 41.5912 153.128 41.565 153.097C40.7412 152.136 39.6456 151.722 39.275 151.601C40.0323 149.272 41.6158 147.315 43.6787 146.073L44.1853 149.54L42.9775 161.528ZM175.101 161.528H145.5V134.282C149.111 135.816 151.651 139.391 151.652 143.561L151.61 144.382C151.252 144.425 149.753 144.665 148.696 145.852C148.665 145.884 148.648 145.926 148.648 145.97C148.648 146.062 148.724 146.138 148.815 146.138C148.867 146.138 148.915 146.114 148.946 146.075C150.032 144.854 151.764 144.698 151.779 144.697C151.783 144.697 151.787 144.696 151.791 144.696C152.151 144.653 152.517 144.633 152.889 144.633C157.363 144.633 161.153 147.554 162.47 151.59C162.472 151.596 162.473 151.603 162.475 151.608C162.068 151.727 160.75 152.176 159.804 153.345C159.779 153.375 159.765 153.414 159.765 153.453C159.765 153.545 159.841 153.621 159.932 153.621C159.984 153.621 160.033 153.597 160.065 153.556C161.097 152.281 162.726 151.883 162.73 151.882C162.731 151.882 162.732 151.882 162.732 151.882C162.732 151.882 162.733 151.882 162.733 151.882C163.462 151.702 164.23 151.611 165.02 151.611C170.532 151.611 175.011 156.038 175.101 161.528ZM57.0331 138.98C57.5885 138.98 58.1291 139.041 58.6506 139.154L63.285 146.865L51.3393 161.146L53.3115 150.905C53.3861 150.644 53.4395 150.373 53.4674 150.094C53.4829 149.942 53.4899 149.791 53.4903 149.642L54.4794 139.423C55.2783 139.138 56.1364 138.98 57.0331 138.98ZM106.678 158.844H94.9557C94.2377 158.844 93.6578 158.264 93.6578 157.547V145.824C93.6578 145.107 94.2377 144.527 94.9557 144.527H106.678C107.395 144.527 107.975 145.107 107.975 145.824V157.547C107.975 158.264 107.395 158.844 106.678 158.844ZM37.6106 99.5817C37.9096 100.249 38.3477 100.865 38.9299 101.375C39.7978 102.136 40.8534 102.56 41.9309 102.652L42.5817 106.713L37.6442 118.342L31.5912 116.142L37.6106 99.5817ZM89.8126 117.364H78.0906C77.373 117.364 76.7937 116.784 76.7937 116.066V104.344C76.7937 103.626 77.3726 103.047 78.0906 103.047H89.8126C90.5306 103.047 91.1105 103.626 91.1105 104.344V116.066C91.1105 116.784 90.5306 117.364 89.8126 117.364ZM73.3684 86.3582L76.7037 91.962L63.073 101.371C61.3894 102.534 59.0836 102.111 57.9215 100.427C56.7593 98.7438 57.182 96.4373 58.8656 95.2751C58.9754 95.1995 59.0887 95.1303 59.2039 95.0675C59.2063 95.0661 59.2086 95.0645 59.211 95.0631L73.3684 86.3582ZM106.678 81.6193C107.396 81.6193 107.975 82.1985 107.975 82.9161V94.6384C107.975 95.3561 107.396 95.936 106.678 95.936H94.9557C94.2377 95.936 93.6578 95.3561 93.6578 94.6384V82.9161C93.6578 82.1985 94.2377 81.6193 94.9557 81.6193H106.678ZM123.542 74.5073H111.82C111.102 74.5073 110.522 73.928 110.522 73.2104V61.4881C110.522 60.7805 111.086 60.207 111.82 60.1906H123.542C124.26 60.1906 124.84 60.7705 124.84 61.4881V73.2104C124.84 73.928 124.26 74.5073 123.542 74.5073Z" fill="#F48850"/>
<path fill-rule="evenodd" clip-rule="evenodd" d="M137.723 170.948H130.996C133.893 170.027 135.997 167.313 135.997 164.113V49.0982C135.997 45.899 133.893 43.185 130.996 42.2644H137.723C139.697 42.2644 141.59 43.0482 142.986 44.4442C144.381 45.8399 145.165 47.7321 145.165 49.706V161.669C145.162 161.687 145.162 161.705 145.165 161.724V163.506C145.165 165.48 144.381 167.372 142.986 168.768C141.59 170.164 139.697 170.948 137.723 170.948ZM58.4669 95.1602C56.8125 96.4682 56.4315 98.8583 57.6464 100.618C58.5072 101.865 59.9485 102.475 61.3597 102.341L63.9007 120.647L43.1392 122.3L44.6363 117.515C44.6437 117.49 44.6457 117.464 44.6414 117.438L42.2754 102.668C43.6018 102.695 44.9343 102.225 45.9675 101.255C45.9685 101.254 45.9695 101.253 45.9701 101.252C47.1541 100.091 48.0636 98.3204 48.8287 95.9377L58.4669 95.1602ZM140.92 79.2385H140.92C139.842 79.2385 138.964 80.1158 138.964 81.1939V90.8452C138.964 91.9234 139.842 92.801 140.92 92.801H140.92C141.999 92.801 142.876 91.9234 142.876 90.8452V81.1939C142.876 80.1158 141.999 79.2385 140.92 79.2385ZM140.92 63.8799H140.92C139.842 63.8799 138.964 64.7578 138.964 65.8357V75.4866C138.964 76.5645 139.842 77.4424 140.92 77.4424H140.92C141.999 77.4424 142.876 76.5645 142.876 75.4866V65.8357C142.876 64.7578 141.999 63.8799 140.92 63.8799ZM108.974 49.0193H92.9222C92.5375 49.0193 92.2297 48.7115 92.2297 48.3268V48.3261C92.2297 47.9414 92.5378 47.6337 92.9222 47.6337H108.974C109.359 47.6337 109.667 47.9418 109.667 48.3261V48.3268C109.667 48.7115 109.358 49.0193 108.974 49.0193Z" fill="#DDDDDD"/>
<path fill-rule="evenodd" clip-rule="evenodd" d="M41.9952 174.622L48.3962 175.267C48.4611 175.343 50.4255 177.64 51.0505 178.371C51.1385 178.474 51.1808 178.609 51.167 178.743C51.1664 178.748 51.166 178.753 51.1657 178.758L51.1664 178.744C51.0794 179.608 50.312 180.236 49.4465 180.149C47.6467 179.968 44.8453 179.685 43.0552 179.504C42.2048 179.419 41.5883 178.664 41.674 177.814C41.8147 176.417 41.9777 174.796 41.9952 174.622ZM49.2651 164.149L54.1986 168.275C54.2093 168.373 54.5456 171.379 54.6525 172.335C54.6676 172.47 54.6273 172.604 54.5403 172.708C54.5399 172.708 54.5399 172.709 54.5396 172.709C53.9822 173.376 52.9944 173.463 52.3275 172.905C50.9396 171.745 48.7802 169.939 47.4004 168.784C46.7446 168.236 46.6582 167.265 47.2065 166.61C48.1073 165.532 49.1535 164.281 49.2651 164.149ZM73.0765 47.2981C71.9352 47.2981 71.0062 48.2267 71.0062 49.3681V87.417L65.9726 90.512V49.0983C65.9726 45.3249 69.0334 42.2645 72.8074 42.2645H128.825C132.599 42.2645 135.66 45.3249 135.66 49.0983V164.113C135.66 167.887 132.599 170.948 128.825 170.948H72.8074C69.0334 170.948 65.9726 167.887 65.9726 164.113V156.837L71.0062 151.815V163.843C71.0062 164.985 71.9356 165.914 73.0765 165.914H128.556C129.697 165.914 130.626 164.985 130.626 163.843V49.3677C130.626 48.2264 129.697 47.2978 128.556 47.2978H116.818C116.726 47.2978 116.65 47.3737 116.65 47.4654C116.65 50.422 114.257 52.8162 111.3 52.8162H90.3327C87.3758 52.8162 84.9826 50.4227 84.9826 47.4654C84.9826 47.3733 84.9067 47.2978 84.815 47.2978L73.0765 47.2981ZM89.8126 158.844H78.0907C77.3727 158.844 76.7938 158.264 76.7938 157.547V145.824C76.7938 145.107 77.3727 144.527 78.0907 144.527H89.8126C90.5306 144.527 91.1105 145.107 91.1105 145.824V157.547C91.1105 158.264 90.5306 158.844 89.8126 158.844ZM71.0062 96.3029V139.423L65.9726 125.51V99.7776L71.0062 96.3029ZM106.678 103.047C107.396 103.047 107.975 103.627 107.975 104.344V116.067C107.975 116.784 107.396 117.364 106.678 117.364H94.9558C94.2378 117.364 93.6579 116.784 93.6579 116.067V104.344C93.6579 103.627 94.2378 103.047 94.9558 103.047H106.678ZM123.542 81.6193C124.276 81.6358 124.84 82.2086 124.84 82.9162V94.6385C124.84 95.3561 124.26 95.936 123.542 95.936H111.82C111.103 95.936 110.523 95.3561 110.523 94.6385V82.9162C110.523 82.1985 111.103 81.6193 111.82 81.6193H123.542ZM140.919 92.4654H140.918C140.022 92.4654 139.298 91.7423 139.298 90.8453V81.194C139.298 80.2969 140.022 79.5742 140.918 79.5742H140.919C141.816 79.5742 142.539 80.2969 142.539 81.194V90.8453C142.539 91.7423 141.816 92.4654 140.919 92.4654ZM140.919 77.1068H140.918C140.022 77.1068 139.298 76.3834 139.298 75.4867V65.8357C139.298 64.939 140.022 64.2156 140.918 64.2156H140.919C141.816 64.2156 142.539 64.939 142.539 65.8357V75.4867C142.539 76.3834 141.816 77.1068 140.919 77.1068ZM89.8126 74.5073H82.5468C83.078 71.6085 83.4375 69.6457 83.7509 67.9349C83.9565 66.8121 83.2103 65.7312 82.0875 65.5256C81.2418 65.3707 80.2618 65.1913 79.4887 65.0499C78.6464 64.896 77.8293 65.4376 77.6445 66.2738L77.2682 67.9745L77.0599 67.7118C77.0599 67.7115 77.0599 67.7115 77.0599 67.7111C76.983 67.614 76.8909 67.5378 76.7938 67.4713V61.4888C76.7938 60.7708 77.373 60.1913 78.0907 60.1913H89.8126C90.5306 60.1913 91.1105 60.7712 91.1105 61.4888V73.2111C91.1105 73.9281 90.5306 74.5073 89.8126 74.5073ZM172.073 67.094H166.752C166.844 65.6949 167.971 64.5805 169.412 64.5674C170.842 64.5674 171.981 65.6875 172.073 67.094ZM163.368 67.094H145.5V58.976C146.15 58.8178 146.827 58.7301 147.525 58.7301C150.952 58.7301 153.908 60.754 155.264 63.6686C155.292 63.7278 155.352 63.7654 155.416 63.7654C155.457 63.7654 155.497 63.7503 155.528 63.7231C156.362 62.9836 157.457 62.5354 158.658 62.5354C161.211 62.5357 163.277 64.5634 163.368 67.094ZM108.973 47.2981H92.9208C92.355 47.2981 91.8927 47.7604 91.8927 48.3262V48.3269C91.8927 48.8926 92.355 49.3546 92.9208 49.3546H108.973C109.538 49.3546 110.001 48.8926 110.001 48.3269V48.3262C110.001 47.7604 109.538 47.2981 108.973 47.2981ZM85.2739 30.0073H60.9161C61.0079 25.7313 64.4889 22.2878 68.7864 22.2878C72.2537 22.2878 75.1989 24.5285 76.2536 27.639C76.2767 27.7065 76.3409 27.7522 76.4121 27.7522C76.4699 27.7522 76.5237 27.7226 76.5543 27.6736C77.3878 26.3377 78.8725 25.4477 80.5645 25.4477C83.1169 25.4477 85.1829 27.4747 85.2739 30.0073ZM56.7634 30.0073H50.0113C50.103 28.2162 51.5457 26.7816 53.3875 26.7644C55.2109 26.7644 56.6697 28.2038 56.7634 30.0073Z" fill="#A0A0A0"/>
<path d="M112.735 19.0961C112.553 19.0991 112.405 19.2496 112.405 19.4317C112.405 19.4337 112.405 19.4354 112.405 19.4371V21.9072C112.405 21.9089 112.405 21.9106 112.405 21.9122C112.405 22.096 112.556 22.2479 112.74 22.2479C112.924 22.2479 113.076 22.0964 113.076 21.9122C113.076 21.9106 113.076 21.9089 113.076 21.9072V19.4371C113.076 19.4354 113.076 19.4337 113.076 19.4317C113.076 19.2479 112.924 19.0961 112.74 19.0961C112.738 19.0961 112.737 19.0961 112.735 19.0961ZM108.502 20.8522C108.318 20.8526 108.167 21.0038 108.167 21.1879C108.167 21.2786 108.203 21.3649 108.268 21.4284L110.015 23.1759C110.078 23.2417 110.166 23.279 110.257 23.279C110.441 23.279 110.593 23.1278 110.593 22.9434C110.593 22.852 110.556 22.7646 110.49 22.7015L108.743 20.954C108.68 20.8885 108.592 20.8519 108.502 20.8522ZM116.969 20.8522C116.882 20.8549 116.799 20.8912 116.739 20.954L114.991 22.7015C114.925 22.7646 114.888 22.852 114.888 22.9434C114.888 23.1275 115.039 23.279 115.223 23.279C115.315 23.279 115.402 23.2417 115.466 23.1759L117.213 21.4284C117.278 21.3649 117.315 21.2786 117.315 21.1875C117.315 21.0038 117.163 20.8519 116.979 20.8519C116.976 20.8519 116.972 20.8522 116.969 20.8522ZM68.7863 21.7859C64.1592 21.7859 60.3956 25.5489 60.3956 30.1766C60.3956 30.3608 60.5471 30.5123 60.7312 30.5123H85.4586C85.6424 30.5123 85.7942 30.3608 85.7942 30.1766C85.7942 30.1763 85.7942 30.1763 85.7942 30.176C85.7932 27.2909 83.4464 24.9458 80.5647 24.9458C78.9097 24.9458 77.4603 25.7437 76.5024 26.9476C75.2351 23.9221 72.2657 21.7859 68.7863 21.7859ZM68.7863 22.4572C72.1814 22.4572 75.0621 24.6501 76.0945 27.6941C76.1405 27.8298 76.2686 27.9216 76.4124 27.9216C76.5279 27.9216 76.6355 27.8618 76.6966 27.764C77.5009 26.4758 78.9319 25.6171 80.5651 25.6171C82.969 25.6171 84.914 27.4794 85.0893 29.8413H76.8411H61.1015C61.2802 25.736 64.6373 22.4572 68.7863 22.4572ZM106.751 25.0906C106.75 25.0906 106.748 25.0906 106.747 25.0906C106.562 25.0906 106.411 25.2418 106.411 25.4262C106.411 25.61 106.562 25.7619 106.747 25.7619C106.748 25.7619 106.75 25.7619 106.751 25.7619H109.222C109.224 25.7619 109.225 25.7619 109.227 25.7619C109.411 25.7619 109.563 25.6104 109.563 25.4262C109.563 25.2421 109.411 25.0906 109.227 25.0906C109.225 25.0906 109.224 25.0906 109.222 25.0906H106.751ZM116.258 25.0906C116.257 25.0906 116.255 25.0906 116.254 25.0906C116.07 25.0906 115.918 25.2418 115.918 25.4262C115.918 25.61 116.069 25.7619 116.254 25.7619C116.255 25.7619 116.257 25.7619 116.258 25.7619H118.729C118.731 25.7619 118.733 25.7619 118.734 25.7619C118.918 25.7619 119.07 25.6104 119.07 25.4262C119.07 25.2421 118.918 25.0906 118.734 25.0906C118.733 25.0906 118.731 25.0906 118.729 25.0906H116.258ZM53.3877 26.2625C51.2314 26.2625 49.4739 28.02 49.4739 30.1766C49.4743 30.3608 49.6255 30.5123 49.8096 30.5123H56.9656C57.1494 30.5123 57.3012 30.3608 57.3012 30.1766C57.3012 30.1763 57.3012 30.1763 57.3012 30.176C57.2989 28.0176 55.5427 26.2625 53.3877 26.2625ZM53.3877 26.9334C55.0606 26.9334 56.3853 28.2115 56.5621 29.8407H50.2131C50.3878 28.2139 51.7139 26.9334 53.3877 26.9334ZM115.225 27.5745C115.225 27.5745 115.225 27.5745 115.224 27.5745C115.04 27.5745 114.889 27.7257 114.889 27.9101C114.889 28.0012 114.926 28.0879 114.991 28.1514L116.739 29.8988C116.802 29.9646 116.889 30.0019 116.98 30.0019C117.165 30.0019 117.316 29.8507 117.316 29.6663C117.316 29.5749 117.279 29.4876 117.213 29.4244L115.466 27.677C115.402 27.6118 115.316 27.5748 115.225 27.5745ZM110.246 27.5752C110.158 27.5778 110.076 27.6141 110.015 27.677L108.268 29.4244C108.202 29.4876 108.165 29.5749 108.165 29.6663C108.165 29.8504 108.316 30.0019 108.501 30.0019C108.592 30.0019 108.679 29.9646 108.743 29.8988L110.49 28.1514C110.555 28.0882 110.591 28.0015 110.591 27.9108C110.591 27.7267 110.44 27.5752 110.256 27.5752C110.252 27.5752 110.249 27.5752 110.246 27.5752ZM112.735 28.6039C112.553 28.607 112.405 28.7575 112.405 28.9396C112.405 28.9416 112.405 28.9433 112.405 28.9449V31.4151C112.405 31.4167 112.405 31.4184 112.405 31.4201C112.405 31.6039 112.556 31.7557 112.74 31.7557C112.924 31.7557 113.076 31.6042 113.076 31.4201C113.076 31.4184 113.076 31.4167 113.076 31.4151V28.9449C113.076 28.9433 113.076 28.9416 113.076 28.9396C113.076 28.7558 112.924 28.6039 112.74 28.6039C112.738 28.6039 112.737 28.6039 112.735 28.6039ZM72.8073 41.7622C68.7608 41.7622 65.4692 45.0534 65.4692 49.0996V90.6259L58.9818 94.614L55.0502 94.9315L54.7767 92.5151C55.7389 92.3888 56.6152 91.8899 57.2082 91.1171C57.8324 90.3044 58.0881 89.2672 57.912 88.2573C57.7276 87.1969 57.5055 85.9215 57.2868 84.6643C57.3083 84.5968 57.6469 83.5472 58.0857 82.1848C58.5081 80.8725 58.3129 79.4378 57.5542 78.2858C56.7956 77.134 55.5548 76.3892 54.182 76.2598C53.246 76.1714 52.2898 76.0814 51.4122 75.9984C49.0409 75.7753 46.7065 76.7141 45.1519 78.5186C45.1519 78.5186 45.1519 78.5189 45.1519 78.5193C44.9822 78.7161 44.8882 78.8247 44.8751 78.8398C44.8596 78.8532 44.2911 79.3454 43.6901 79.8645C42.788 80.6437 42.2265 81.7457 42.1264 82.9334C42.0508 83.8271 41.9557 84.957 41.8637 86.0459C41.6584 88.479 40.7183 90.7932 39.1691 92.6814C39.0539 92.8219 38.9434 92.966 38.8375 93.1132C38.6675 93.35 38.3668 93.769 37.9939 94.2877C36.9591 95.7277 36.7346 97.5212 37.2477 99.1077L31.0603 116.13C31.0603 116.13 25.6769 130.942 23.7827 136.155C23.362 137.312 23.9634 138.602 25.1215 139.023C25.9296 139.317 26.8666 139.657 27.6047 139.926C28.4931 140.249 29.4856 139.806 29.8407 138.931L30.3635 137.64C30.7307 138.29 31.5609 138.529 32.2157 138.169C32.8756 137.805 33.1182 136.966 32.755 136.307L31.6886 134.369L38.0463 118.682L42.6075 107.94L44.1295 117.442L42.582 122.389C42.582 122.389 42.582 122.39 42.582 122.39C41.4165 125.82 41.0815 129.477 41.6056 133.062L43.4421 145.629C41.4437 146.825 39.8878 148.668 39.0277 150.862C38.4424 149.655 37.7439 148.381 36.9083 147.072C38.427 146.568 39.7699 145.518 40.6017 144.009C41.5079 142.365 41.6369 140.497 41.1097 138.837C41.0641 138.693 40.9276 138.597 40.7771 138.603C40.7526 138.603 40.7281 138.607 40.7046 138.613C39.0183 139.054 37.5081 140.16 36.6023 141.804C35.9662 142.958 35.7206 144.221 35.8087 145.446C35.3722 144.838 34.9096 144.226 34.4073 143.614C34.3438 143.533 34.247 143.486 34.1446 143.486C33.9608 143.486 33.8086 143.638 33.8086 143.822C33.8086 143.902 33.8368 143.978 33.8882 144.039C34.3173 144.563 34.713 145.084 35.093 145.605C34.0713 145.117 32.9125 144.882 31.705 144.985C29.835 145.145 28.2095 146.076 27.1219 147.437C27.0107 147.576 27.0282 147.78 27.1613 147.898C28.4642 149.055 30.2237 149.696 32.0938 149.536C33.7898 149.391 35.2792 148.608 36.3543 147.45C37.1993 148.775 37.9008 150.065 38.4861 151.283C37.9156 151.18 37.334 151.11 36.7343 151.11C31.0065 151.11 26.3327 155.677 26.1543 161.363H17.0396C17.0379 161.363 17.0365 161.363 17.0349 161.363C16.8507 161.363 16.6992 161.514 16.6992 161.699C16.6992 161.882 16.8504 162.034 17.0349 162.034C17.0365 162.034 17.0379 162.034 17.0396 162.034H42.7581L41.5116 174.407C41.5116 174.407 41.3211 176.296 41.1726 177.766C41.0597 178.887 41.8835 179.894 43.0043 180.007C44.7948 180.188 47.5958 180.47 49.396 180.652C50.5024 180.763 51.4918 179.971 51.648 178.88V178.879C51.6504 178.863 51.6544 178.847 51.6564 178.829C51.6568 178.828 51.6568 178.828 51.6571 178.827C51.6585 178.816 51.6659 178.807 51.6672 178.796C51.6672 178.795 51.6672 178.794 51.6672 178.793C51.6672 178.791 51.6642 178.789 51.6645 178.786V178.785C51.6884 178.518 51.6074 178.25 51.4324 178.046C50.8215 177.332 48.9884 175.189 48.8389 175.014L49.5636 171.252C50.4412 171.986 51.3168 172.719 52.0042 173.294C52.8441 173.997 54.0745 173.898 54.8207 173.117C54.8271 173.114 54.8335 173.111 54.8398 173.107C54.8402 173.107 54.8405 173.107 54.8412 173.107C54.8419 173.106 54.8429 173.105 54.8439 173.105C54.8439 173.105 54.8466 173.103 54.8472 173.103C54.8603 173.095 54.8731 173.085 54.8852 173.075C54.8855 173.075 54.8859 173.074 54.8865 173.074C54.8872 173.073 54.8909 173.07 54.8909 173.07C54.8912 173.07 54.906 173.056 54.906 173.056C54.9134 173.049 54.9201 173.041 54.9265 173.034C55.1012 172.825 55.1836 172.553 55.1533 172.282C55.0485 171.348 54.735 168.544 54.7095 168.316L61.0054 162.034H65.4695V164.116C65.4695 168.162 68.7611 171.453 72.8073 171.453H137.722C139.829 171.453 141.85 170.616 143.34 169.126C144.83 167.636 145.668 165.615 145.668 163.507V162.033H182.715C182.717 162.033 182.719 162.033 182.72 162.033C182.904 162.033 183.056 161.882 183.056 161.698C183.056 161.514 182.904 161.362 182.72 161.362C182.719 161.362 182.717 161.362 182.715 161.362H175.6C175.422 155.677 170.748 151.109 165.02 151.109C164.365 151.109 163.733 151.196 163.113 151.319C163.777 149.823 164.626 148.231 165.707 146.576C166.783 147.747 168.281 148.539 169.988 148.685C171.858 148.845 173.617 148.203 174.92 147.046C175.053 146.928 175.07 146.724 174.959 146.586C173.871 145.224 172.247 144.294 170.377 144.134C169.162 144.03 167.996 144.269 166.97 144.762C167.682 143.799 168.473 142.821 169.356 141.83C170.61 142.864 172.244 143.445 173.99 143.325C175.862 143.195 177.502 142.291 178.612 140.948C178.725 140.811 178.711 140.607 178.58 140.488C177.297 139.309 175.548 138.639 173.675 138.768C173.089 138.808 172.525 138.925 171.993 139.107C172.323 138.793 172.661 138.478 173.01 138.163C173.083 138.099 173.124 138.007 173.124 137.911C173.124 137.729 172.978 137.579 172.796 137.575C172.709 137.573 172.625 137.605 172.561 137.665C172.037 138.138 171.541 138.61 171.059 139.081C171.301 138.341 171.416 137.545 171.377 136.723C171.287 134.848 170.418 133.189 169.098 132.051C169.039 131.999 168.962 131.97 168.884 131.969C168.791 131.968 168.702 132.006 168.637 132.073C167.432 133.331 166.725 135.065 166.815 136.94C166.898 138.697 167.673 140.259 168.855 141.386C167.893 142.464 167.038 143.529 166.273 144.577C166.358 143.357 166.112 142.101 165.479 140.953C164.573 139.309 163.063 138.203 161.377 137.762C161.344 137.754 161.311 137.75 161.277 137.751C161.136 137.757 161.014 137.851 160.972 137.985C160.444 139.646 160.573 141.514 161.479 143.158C162.305 144.657 163.637 145.704 165.144 146.211C164.128 147.767 163.309 149.271 162.657 150.695C161.071 146.848 157.301 144.132 152.889 144.132C152.66 144.132 152.434 144.151 152.207 144.169C152.146 143.654 151.903 140.961 153.065 136.827C153.218 136.281 153.398 135.712 153.604 135.124C154.853 136.088 156.449 136.614 158.142 136.48C160.013 136.332 161.644 135.411 162.74 134.057C162.852 133.918 162.835 133.714 162.703 133.596C161.407 132.431 159.652 131.779 157.781 131.927C156.483 132.03 155.307 132.511 154.338 133.244C155.022 131.649 155.918 129.941 157.082 128.159C158.158 129.33 159.655 130.122 161.362 130.268C163.232 130.428 164.991 129.786 166.294 128.629C166.427 128.511 166.444 128.308 166.334 128.17C165.246 126.808 163.621 125.877 161.751 125.718C160.537 125.613 159.372 125.852 158.346 126.345C159.058 125.383 159.848 124.404 160.731 123.414C161.985 124.447 163.618 125.028 165.363 124.908C167.236 124.779 168.876 123.875 169.986 122.532C170.1 122.395 170.086 122.191 169.955 122.071C168.671 120.893 166.922 120.222 165.05 120.352C164.467 120.392 163.906 120.507 163.378 120.687C163.706 120.374 164.037 120.061 164.384 119.747C164.457 119.683 164.499 119.591 164.499 119.494C164.499 119.313 164.352 119.162 164.17 119.159C164.083 119.157 163.999 119.189 163.935 119.249C163.41 119.722 162.914 120.195 162.432 120.666C162.675 119.926 162.79 119.13 162.751 118.306C162.661 116.431 161.792 114.773 160.473 113.634C160.413 113.583 160.337 113.554 160.258 113.553C160.165 113.552 160.076 113.589 160.011 113.656C158.806 114.914 158.099 116.649 158.189 118.524C158.273 120.281 159.047 121.842 160.23 122.97C159.269 124.047 158.412 125.113 157.648 126.16C157.732 124.94 157.486 123.684 156.854 122.536C156.853 122.536 156.853 122.536 156.853 122.536C155.947 120.892 154.437 119.786 152.751 119.346C152.718 119.337 152.685 119.334 152.651 119.335C152.511 119.341 152.389 119.435 152.346 119.568C151.818 121.229 151.947 123.097 152.854 124.741C152.854 124.741 152.854 124.741 152.854 124.742C153.68 126.242 155.012 127.288 156.52 127.795C155.481 129.386 154.652 130.921 153.992 132.373C153.921 131.389 153.635 130.405 153.099 129.5V129.499C152.143 127.884 150.598 126.825 148.9 126.436C148.878 126.431 148.856 126.428 148.834 126.428C148.681 126.424 148.545 126.525 148.503 126.672C148.027 128.348 148.213 130.211 149.17 131.826C150.058 133.326 151.455 134.339 153.009 134.788C152.781 135.43 152.585 136.051 152.417 136.645C152.027 138.035 151.796 139.283 151.659 140.359C150.718 137.399 148.506 135.005 145.667 133.809V67.5986H163.552C163.736 67.5983 163.887 67.4471 163.887 67.263C163.887 64.3799 161.54 62.0335 158.657 62.0335C157.477 62.0335 156.417 62.4726 155.541 63.1358C154.04 60.2272 151.018 58.2282 147.524 58.2282C146.887 58.2282 146.267 58.2977 145.667 58.4234V49.7071C145.667 47.6002 144.83 45.5796 143.34 44.0895C141.849 42.5995 139.828 41.7619 137.721 41.7619H128.825L72.8073 41.7622ZM72.8073 42.4331H128.825C132.508 42.4331 135.492 45.4166 135.492 49.0996V164.115C135.492 167.798 132.508 170.781 128.825 170.781H72.8073C69.124 170.781 66.1401 167.798 66.1401 164.115V156.909L70.8381 152.221V163.845C70.8381 165.077 71.8444 166.083 73.0764 166.083H128.556C129.788 166.083 130.794 165.077 130.794 163.845V49.3687C130.794 48.1367 129.788 47.1311 128.556 47.1311H116.818C116.634 47.1311 116.482 47.2827 116.482 47.4668C116.482 50.3333 114.166 52.6499 111.3 52.6499H90.3326C87.4664 52.6499 85.1505 50.333 85.1505 47.4668C85.1505 47.283 84.999 47.1311 84.8148 47.1311H73.0761C71.8441 47.1311 70.8378 48.1367 70.8378 49.3687V87.3246L66.1398 90.213V49.0996C66.1405 45.417 69.1243 42.4331 72.8073 42.4331ZM131.885 42.4331H137.722C139.651 42.4331 141.501 43.1995 142.866 44.5639C144.23 45.9283 144.996 47.7776 144.996 49.7067V161.641C144.99 161.677 144.99 161.714 144.996 161.75V163.507C144.996 165.436 144.23 167.286 142.866 168.65C141.501 170.015 139.651 170.781 137.722 170.781H131.885C134.408 169.619 136.163 167.068 136.163 164.114V49.0996C136.163 46.1454 134.407 43.5953 131.885 42.4331ZM92.9207 47.1311C92.2642 47.1311 91.7246 47.6707 91.7246 48.3276V48.3282C91.7246 48.9847 92.2642 49.5236 92.9207 49.5236H108.972C109.629 49.5236 110.169 48.9847 110.169 48.3282V48.3276C110.169 47.6707 109.629 47.1311 108.972 47.1311H92.9207ZM73.0764 47.8024H84.5135C84.6912 50.8726 87.2188 53.3212 90.333 53.3212H111.3C114.414 53.3212 116.942 50.8729 117.12 47.8024H128.556C129.425 47.8024 130.123 48.4996 130.123 49.3687V163.845C130.123 164.715 129.425 165.412 128.556 165.412H73.0764C72.2072 165.412 71.5094 164.715 71.5094 163.845V151.551L72.0641 150.998C72.2758 150.82 72.4754 150.622 72.6585 150.403C73.9416 148.868 74.1059 146.763 73.234 145.088L71.5094 140.322V96.1602L76.2904 92.8602V94.6399C76.2904 95.63 77.1004 96.4407 78.0906 96.4407H89.8125C90.803 96.4407 91.6137 95.63 91.6137 94.6399V82.9176C91.6137 81.9274 90.803 81.1174 89.8125 81.1174H81.5061C81.9332 78.7854 82.1274 77.728 82.6249 75.012H89.8125C90.803 75.012 91.6137 74.2019 91.6137 73.2118V61.4895C91.6137 60.4994 90.803 59.6887 89.8125 59.6887H78.0906C77.1001 59.6887 76.2904 60.4994 76.2904 61.4895V67.1061C75.9359 67.06 75.565 67.1484 75.2653 67.3866C74.6754 67.8543 74.5749 68.7221 75.0432 69.3121L76.4174 71.0451L73.1288 85.9168L71.5098 86.9123V49.3687C71.5094 48.4996 72.2076 47.8024 73.0764 47.8024ZM92.9207 47.8024H108.972C109.266 47.8024 109.498 48.0336 109.498 48.3276V48.3282C109.498 48.6219 109.266 48.8524 108.972 48.8524H92.9207C92.627 48.8524 92.3959 48.6219 92.3959 48.3282V48.3276C92.3959 48.0336 92.627 47.8024 92.9207 47.8024ZM48.515 51.1525C48.3313 51.1551 48.1821 51.3087 48.1848 51.4925V53.9636C48.1848 53.9649 48.1848 53.9666 48.1848 53.9683C48.1848 54.1521 48.336 54.3039 48.5204 54.3039C48.7042 54.3039 48.8561 54.1524 48.8561 53.9683C48.8561 53.9666 48.8561 53.9649 48.8561 53.9636V51.4925C48.8561 51.4911 48.8561 51.4894 48.8561 51.4881C48.8561 51.304 48.7045 51.1525 48.5204 51.1525C48.5184 51.1525 48.5167 51.1525 48.515 51.1525ZM44.2821 52.9079C44.0979 52.9079 43.9464 53.0595 43.9464 53.2436C43.9464 53.3343 43.983 53.421 44.0482 53.4841L45.7956 55.2316C45.8585 55.2944 45.9438 55.33 46.0328 55.33C46.2166 55.33 46.3685 55.1785 46.3685 54.994C46.3685 54.9047 46.3329 54.8197 46.27 54.7565L44.5226 53.0097C44.4591 52.9446 44.3724 52.9079 44.2821 52.9079ZM52.7491 52.9079C52.662 52.9106 52.5794 52.9473 52.5186 53.0097L50.7711 54.7565C50.708 54.8197 50.6724 54.9047 50.6724 54.994C50.6724 55.1782 50.8239 55.33 51.0083 55.33C51.0974 55.33 51.1824 55.2944 51.2455 55.2316L52.993 53.4841C53.0578 53.421 53.0948 53.3343 53.0948 53.2436C53.0948 53.0595 52.9432 52.9079 52.7591 52.9079C52.7558 52.9079 52.7524 52.9079 52.7491 52.9079ZM42.5313 57.1467C42.5296 57.1467 42.5282 57.1467 42.5266 57.1467C42.3424 57.1467 42.1909 57.2978 42.1909 57.4823C42.1909 57.6668 42.3421 57.8179 42.5266 57.8179C42.5282 57.8179 42.5296 57.8179 42.5313 57.8179H45.0014C45.0031 57.8179 45.0047 57.8179 45.0061 57.8179C45.1902 57.8179 45.3421 57.6668 45.3421 57.4823C45.3421 57.2978 45.1905 57.1467 45.0061 57.1467C45.0047 57.1467 45.0031 57.1467 45.0014 57.1467H42.5313ZM52.0388 57.1467C52.0371 57.1467 52.0358 57.1467 52.0341 57.1467C51.85 57.1467 51.6984 57.2978 51.6984 57.4823C51.6984 57.6668 51.8496 57.8179 52.0341 57.8179C52.0358 57.8179 52.0371 57.8179 52.0388 57.8179H54.5096C54.5113 57.8179 54.5129 57.8179 54.5143 57.8179C54.6984 57.8179 54.8503 57.6668 54.8503 57.4823C54.8503 57.2978 54.6987 57.1467 54.5143 57.1467C54.5129 57.1467 54.5113 57.1467 54.5096 57.1467H52.0388ZM147.525 58.8995C150.885 58.8995 153.782 60.8837 155.112 63.7406C155.167 63.8588 155.286 63.9344 155.416 63.9344C155.498 63.9344 155.578 63.9045 155.639 63.8501C156.443 63.1365 157.498 62.7044 158.658 62.7044C161.062 62.7044 163.009 64.5674 163.184 66.9273H145.668V59.1108C146.265 58.9754 146.886 58.8995 147.525 58.8995ZM46.0258 59.6312C45.9384 59.6339 45.8561 59.6705 45.7953 59.733L44.0479 61.4798C43.9817 61.5433 43.9444 61.6303 43.9444 61.7217C43.9444 61.9058 44.0959 62.0577 44.28 62.0577C44.3714 62.0577 44.4588 62.0204 44.5223 61.9542L46.2697 60.2074C46.3345 60.1443 46.3715 60.0576 46.3715 59.9669C46.3715 59.7827 46.22 59.6312 46.0359 59.6312C46.0325 59.6312 46.0291 59.6312 46.0258 59.6312ZM51.005 59.6312C50.8209 59.6312 50.6693 59.7827 50.6693 59.9669C50.6693 60.0576 50.706 60.1443 50.7711 60.2074L52.5186 61.9542C52.5817 62.0204 52.6691 62.0577 52.7605 62.0577C52.9446 62.0577 53.0961 61.9061 53.0961 61.7217C53.0961 61.6303 53.0588 61.5433 52.993 61.4798L51.2455 59.733C51.1827 59.6682 51.0957 59.6312 51.005 59.6312ZM94.9557 59.6883C93.9652 59.6883 93.1545 60.4991 93.1545 61.4892V73.2115C93.1545 74.2016 93.9656 75.0116 94.9557 75.0116H106.678C107.668 75.0116 108.478 74.2016 108.478 73.2115V61.4892C108.478 60.4991 107.668 59.6883 106.678 59.6883H94.9557ZM111.82 59.6883C110.83 59.6883 110.019 60.4991 110.019 61.4892V73.2115C110.019 74.2016 110.83 75.0116 111.82 75.0116H123.542C124.532 75.0116 125.343 74.2016 125.343 73.2115V61.4892C125.343 60.4991 124.532 59.6883 123.542 59.6883H111.82ZM78.0906 60.3593H89.8125C90.4398 60.3593 90.9428 60.8622 90.9428 61.4892V73.2115C90.9428 73.8387 90.4398 74.3407 89.8125 74.3407H82.7482C83.2609 71.5417 83.612 69.6259 83.9161 67.9668C83.9161 67.9668 83.9161 67.9665 83.9161 67.9662C84.1378 66.7543 83.3295 65.5837 82.118 65.3613C81.2723 65.2064 80.2922 65.027 79.5192 64.8856C78.5895 64.7159 77.6847 65.316 77.4804 66.2386L77.1797 67.5979C77.1142 67.5173 77.0403 67.4484 76.9617 67.3869V61.4892C76.9614 60.8622 77.4636 60.3593 78.0906 60.3593ZM94.9557 60.3593H106.678C107.305 60.3593 107.807 60.8622 107.807 61.4892V73.2115C107.807 73.8387 107.305 74.3407 106.678 74.3407H94.9557C94.3284 74.3407 93.8255 73.8387 93.8255 73.2115V61.4892C93.8255 60.8626 94.3284 60.3593 94.9557 60.3593ZM111.82 60.3593H123.542C124.169 60.3593 124.672 60.8622 124.672 61.4892V73.2115C124.672 73.8387 124.169 74.3407 123.542 74.3407H111.82C111.193 74.3407 110.69 73.8387 110.69 73.2115V61.4892C110.69 60.8626 111.193 60.3593 111.82 60.3593ZM48.515 60.6603C48.3313 60.663 48.1821 60.8165 48.1848 61.0003V63.4715C48.1848 63.4728 48.1848 63.4745 48.1848 63.4762C48.1848 63.6599 48.336 63.8118 48.5204 63.8118C48.7042 63.8118 48.8561 63.6603 48.8561 63.4762C48.8561 63.4745 48.8561 63.4728 48.8561 63.4715V61.0003C48.8561 60.999 48.8561 60.9973 48.8561 60.996C48.8561 60.8118 48.7045 60.6603 48.5204 60.6603C48.5184 60.6603 48.5167 60.6603 48.515 60.6603ZM140.918 63.713C139.749 63.713 138.795 64.6682 138.795 65.8367V75.4874C138.795 76.6563 139.75 77.6108 140.918 77.6108H140.919C142.088 77.6108 143.042 76.6559 143.042 75.4874V65.8367C143.042 64.6679 142.088 63.713 140.919 63.713H140.918ZM169.412 64.0651C167.652 64.0651 166.216 65.5008 166.215 67.263C166.215 67.4468 166.366 67.5983 166.55 67.5986H172.275C172.459 67.5983 172.61 67.4471 172.61 67.263C172.61 65.5014 171.173 64.0651 169.412 64.0651ZM140.918 64.3843H140.919C141.725 64.3843 142.371 65.0311 142.371 65.8371V75.4877C142.371 76.2937 141.725 76.9402 140.919 76.9402H140.918C140.112 76.9402 139.466 76.2937 139.466 75.4877V65.8371C139.466 65.0311 140.112 64.3843 140.918 64.3843ZM169.412 64.7364C170.691 64.7364 171.701 65.6963 171.872 66.9277H166.953C167.125 65.6953 168.134 64.7364 169.412 64.7364ZM79.1825 65.5276C79.2534 65.5266 79.3253 65.5327 79.3979 65.5458C80.1706 65.6872 81.1513 65.8673 81.9967 66.0222C82.8521 66.1788 83.4118 66.9902 83.2549 67.8456C82.2557 73.3005 79.4157 88.8029 79.4157 88.8029C79.2641 89.6321 78.7911 90.3178 78.149 90.7613C78.143 90.7654 78.1373 90.7694 78.1319 90.7738L77.0326 91.5321L73.782 86.0704L77.1075 71.034C77.1293 70.9352 77.1055 70.8321 77.0427 70.7528L75.569 68.8948C75.5687 68.8948 75.5687 68.8948 75.5684 68.8948C75.3261 68.5894 75.3765 68.154 75.6819 67.9117C75.9873 67.6695 76.4228 67.7199 76.665 68.0253L77.0927 68.5639C77.1566 68.6442 77.2533 68.6912 77.3558 68.6912C77.5123 68.6912 77.6491 68.5814 77.6834 68.4285L78.1353 66.3834C78.2475 65.8787 78.6853 65.5344 79.1825 65.5276ZM50.5444 76.6395C50.8115 76.6324 51.0802 76.6408 51.3497 76.6663C52.2273 76.7493 53.1835 76.8394 54.1195 76.9277C55.2904 77.0383 56.3474 77.6733 56.9945 78.6557C57.6416 79.6377 57.8079 80.8597 57.447 81.9792C57.2236 82.6733 57.189 82.7805 57.0398 83.2428C56.9837 82.9192 56.9192 82.549 56.8685 82.2557C56.6118 80.7811 55.2316 79.7651 53.7472 79.9586C52.9359 80.0644 52.2263 80.1562 52.2263 80.1562C52.06 80.178 51.934 80.3211 51.934 80.4891C51.934 80.5089 51.9356 80.5284 51.939 80.5476C52.2038 82.0393 51.9 83.4336 50.6808 84.8232C50.6357 84.8746 50.6072 84.9388 50.5995 85.0067C49.3227 93.3168 47.9808 98.5708 45.6182 100.891C43.8406 102.559 41.0953 102.606 39.2622 100.999C37.4284 99.3909 37.116 96.6601 38.5395 94.6795C38.9124 94.1608 39.2135 93.7418 39.3835 93.5049C39.4813 93.3688 39.5824 93.2365 39.6882 93.1075C39.6886 93.1075 39.6889 93.1075 39.6889 93.1075C41.3244 91.1144 42.3159 88.6719 42.5329 86.103C42.625 85.0141 42.7208 83.8835 42.7964 82.9898C42.882 81.9768 43.3601 81.0371 44.1295 80.3725C44.7386 79.8464 45.3317 79.3337 45.3317 79.3337C45.3441 79.3229 45.3555 79.3115 45.3663 79.2991C45.3663 79.2991 45.4805 79.167 45.6612 78.9567C46.8976 77.5217 48.6753 76.6889 50.5444 76.6395ZM140.918 79.0723C139.749 79.0723 138.795 80.0265 138.795 81.195V90.8467C138.795 92.0155 139.75 92.97 140.918 92.97H140.919C142.088 92.97 143.042 92.0152 143.042 90.8467V81.195C143.042 80.0261 142.088 79.0723 140.919 79.0723H140.918ZM140.918 79.7432H140.919C141.725 79.7432 142.371 80.3886 142.371 81.195V90.8467C142.371 91.653 141.725 92.2991 140.919 92.2991H140.918C140.112 92.2991 139.466 91.653 139.466 90.8467V81.195C139.466 80.3886 140.112 79.7432 140.918 79.7432ZM54.0459 80.6064C55.0959 80.5728 56.0232 81.3129 56.2069 82.3702C56.5171 84.1536 56.9427 86.6009 57.2508 88.3718C57.3943 89.197 57.186 90.0443 56.676 90.7086C56.1663 91.3728 55.4019 91.7928 54.5677 91.8674C52.3734 92.0629 51.7388 91.9907 51.7388 91.9907C51.727 91.9893 51.7149 91.9886 51.7028 91.9886C51.5187 91.9886 51.3668 92.1402 51.3668 92.3246C51.3668 92.4953 51.4972 92.6404 51.6669 92.6586C51.6669 92.6586 52.3361 92.7107 54.1081 92.5739L54.3806 94.9859L49.1769 95.4059C49.9776 92.7221 50.6129 89.3227 51.2492 85.1891C52.4369 83.7978 52.8058 82.2923 52.6251 80.7811C52.8364 80.7535 53.1895 80.7075 53.8346 80.6238C53.9055 80.6141 53.9764 80.6087 54.0459 80.6064ZM94.9557 81.1171C93.9656 81.1171 93.1545 81.9271 93.1545 82.9172V94.6395C93.1545 95.6297 93.9656 96.4404 94.9557 96.4404H106.678C107.668 96.4404 108.478 95.6297 108.478 94.6395V82.9172C108.478 81.9271 107.668 81.1171 106.678 81.1171H94.9557ZM111.82 81.1171C110.83 81.1171 110.019 81.9271 110.019 82.9172V94.6395C110.019 95.6297 110.83 96.4404 111.82 96.4404H123.542C124.532 96.4404 125.343 95.6297 125.343 94.6395V82.9172C125.343 81.9271 124.532 81.1171 123.542 81.1171H111.82ZM81.3832 81.7883H89.8122C90.4395 81.7883 90.9424 82.2903 90.9424 82.9176V94.6399C90.9424 95.2668 90.4395 95.7698 89.8122 95.7698H78.0906C77.4633 95.7698 76.9613 95.2668 76.9613 94.6399V92.3975L77.1182 92.2887L78.53 91.314C78.5657 91.2895 78.5962 91.2582 78.6201 91.2223C79.3495 90.6807 79.8995 89.8864 80.0759 88.9235C80.0759 88.9235 80.9094 84.374 81.3832 81.7883ZM94.9557 81.7883H106.678C107.305 81.7883 107.807 82.2903 107.807 82.9176V94.6399C107.807 95.2668 107.305 95.7698 106.678 95.7698H94.9557C94.3284 95.7698 93.8255 95.2668 93.8255 94.6399V82.9176C93.8255 82.2903 94.3284 81.7883 94.9557 81.7883ZM111.82 81.7883H123.542C124.169 81.7883 124.672 82.2903 124.672 82.9176V94.6399C124.672 95.2668 124.169 95.7698 123.542 95.7698H111.82C111.193 95.7698 110.69 95.2668 110.69 94.6399V82.9176C110.69 82.2903 111.193 81.7883 111.82 81.7883ZM73.3116 86.5925L76.4799 91.9144L62.9786 101.235C61.3696 102.346 59.1703 101.942 58.0595 100.333C56.9491 98.7243 57.3526 96.5257 58.9616 95.415C59.0665 95.3427 59.1743 95.2762 59.2842 95.2164C59.2892 95.2137 59.2943 95.2103 59.2993 95.2073L73.3116 86.5925ZM158.933 87.971C158.749 87.9737 158.6 88.1269 158.603 88.311V90.7818C158.603 90.7835 158.602 90.7852 158.602 90.7868C158.602 90.9706 158.754 91.1225 158.938 91.1225C159.122 91.1225 159.274 90.971 159.274 90.7868C159.274 90.7852 159.274 90.7835 159.274 90.7818V88.311C159.274 88.3097 159.274 88.308 159.274 88.3063C159.274 88.1225 159.123 87.9707 158.938 87.9707C158.936 87.9707 158.935 87.9707 158.933 87.971ZM154.7 89.7258C154.516 89.7262 154.365 89.8774 154.365 90.0615C154.365 90.1522 154.401 90.2389 154.466 90.302L156.213 92.0495C156.276 92.1153 156.364 92.1526 156.455 92.1526C156.639 92.1526 156.791 92.0014 156.791 91.817C156.791 91.7256 156.754 91.6382 156.688 91.5751L154.941 89.8276C154.877 89.7625 154.79 89.7255 154.7 89.7258ZM163.167 89.7258C163.079 89.7285 162.997 89.7648 162.936 89.8276L161.19 91.5751C161.123 91.6382 161.086 91.7256 161.086 91.817C161.086 92.0011 161.238 92.1526 161.422 92.1526C161.513 92.1526 161.6 92.1153 161.664 92.0495L163.411 90.302C163.476 90.2389 163.512 90.1522 163.512 90.0615C163.512 89.8774 163.361 89.7258 163.177 89.7258C163.173 89.7258 163.17 89.7258 163.167 89.7258ZM152.949 93.9645C152.947 93.9645 152.946 93.9645 152.944 93.9645C152.76 93.9645 152.609 94.1157 152.609 94.3002C152.609 94.484 152.76 94.6358 152.944 94.6358C152.946 94.6358 152.947 94.6358 152.949 94.6358H155.42C155.421 94.6358 155.423 94.6358 155.424 94.6358C155.609 94.6358 155.76 94.4843 155.76 94.3002C155.76 94.1161 155.609 93.9645 155.424 93.9645C155.423 93.9645 155.421 93.9645 155.42 93.9645H152.949ZM162.457 93.9645C162.455 93.9645 162.454 93.9645 162.452 93.9645C162.268 93.9645 162.117 94.1157 162.117 94.3002C162.117 94.484 162.268 94.6358 162.452 94.6358C162.454 94.6358 162.455 94.6358 162.457 94.6358H164.927C164.929 94.6358 164.931 94.6358 164.932 94.6358C165.116 94.6358 165.268 94.4843 165.268 94.3002C165.268 94.1161 165.116 93.9645 164.932 93.9645C164.931 93.9645 164.929 93.9645 164.927 93.9645H162.457ZM57.9792 95.3689C56.5866 96.7777 56.3417 99.0267 57.5068 100.715C58.37 101.965 59.7959 102.598 61.2134 102.518L63.7083 120.495L43.3719 122.114L44.7948 117.566C44.8102 117.516 44.8139 117.464 44.8058 117.413L42.4711 102.841C43.773 102.82 45.0672 102.331 46.0805 101.379C46.0822 101.377 46.0842 101.375 46.0859 101.373C47.283 100.199 48.1962 98.4431 48.9592 96.097L57.9792 95.3689ZM156.444 96.4491C156.356 96.4518 156.274 96.4884 156.213 96.5509L154.466 98.2983C154.4 98.3615 154.363 98.4488 154.363 98.5402C154.363 98.7243 154.514 98.8759 154.699 98.8759C154.79 98.8759 154.877 98.8386 154.941 98.7727L156.688 97.0253C156.753 96.9621 156.79 96.8755 156.79 96.7847C156.79 96.6006 156.638 96.4491 156.454 96.4491C156.451 96.4491 156.447 96.4491 156.444 96.4491ZM161.423 96.4491C161.239 96.4494 161.088 96.6006 161.088 96.7847C161.088 96.8755 161.125 96.9621 161.19 97.0253L162.937 98.7727C163 98.8386 163.087 98.8759 163.178 98.8759C163.363 98.8759 163.514 98.7247 163.514 98.5402C163.514 98.4488 163.477 98.3615 163.411 98.2983L161.664 96.5509C161.601 96.4857 161.513 96.4491 161.423 96.4491ZM70.8385 96.6235V138.468L66.1405 125.483V99.8663L70.8385 96.6235ZM158.933 97.4782C158.749 97.4809 158.6 97.6341 158.603 97.8182V100.289C158.603 100.291 158.602 100.292 158.602 100.294C158.602 100.478 158.754 100.63 158.938 100.63C159.122 100.63 159.274 100.478 159.274 100.294C159.274 100.292 159.274 100.291 159.274 100.289V97.8182C159.274 97.8169 159.274 97.8152 159.274 97.8139C159.274 97.6297 159.123 97.4779 158.938 97.4779C158.936 97.4779 158.935 97.4779 158.933 97.4782ZM37.634 100.01C37.9314 100.561 38.3248 101.069 38.8197 101.503C39.6798 102.257 40.7193 102.687 41.7854 102.804L42.409 106.692L37.5517 118.131L31.8072 116.044C31.8068 116.044 37.634 100.01 37.634 100.01ZM65.4692 100.33V123.628L64.4176 120.721L61.8783 102.429C62.3947 102.316 62.8979 102.105 63.3589 101.787L65.4692 100.33ZM78.0906 102.545C77.1004 102.545 76.2904 103.355 76.2904 104.345V116.068C76.2904 117.058 77.1001 117.869 78.0906 117.869H89.8125C90.803 117.869 91.6137 117.058 91.6137 116.068V104.345C91.6137 103.355 90.803 102.545 89.8125 102.545H78.0906ZM94.9557 102.545C93.9656 102.545 93.1545 103.355 93.1545 104.345V116.068C93.1545 117.058 93.9652 117.869 94.9557 117.869H106.678C107.668 117.869 108.478 117.058 108.478 116.068V104.345C108.478 103.355 107.668 102.545 106.678 102.545H94.9557ZM111.82 102.545C110.83 102.545 110.019 103.355 110.019 104.345V116.068C110.019 117.058 110.83 117.869 111.82 117.869H123.542C124.532 117.869 125.343 117.058 125.343 116.068V104.345C125.343 103.355 124.532 102.545 123.542 102.545H111.82ZM78.0906 103.216H89.8125C90.4398 103.216 90.9428 103.718 90.9428 104.345V116.068C90.9428 116.695 90.4398 117.197 89.8125 117.197H78.0906C77.4633 117.197 76.9613 116.695 76.9613 116.068V104.345C76.9613 103.718 77.4636 103.216 78.0906 103.216ZM94.9557 103.216H106.678C107.305 103.216 107.807 103.718 107.807 104.345V116.068C107.807 116.695 107.305 117.197 106.678 117.197H94.9557C94.3284 117.197 93.8255 116.695 93.8255 116.068V104.345C93.8255 103.718 94.3284 103.216 94.9557 103.216ZM111.82 103.216H123.542C124.169 103.216 124.672 103.718 124.672 104.345V116.068C124.672 116.695 124.169 117.197 123.542 117.197H111.82C111.193 117.197 110.69 116.695 110.69 116.068V104.345C110.69 103.719 111.193 103.216 111.82 103.216ZM160.279 114.397C161.317 115.406 162.007 116.776 162.081 118.337C162.155 119.897 161.599 121.327 160.662 122.43C159.624 121.421 158.934 120.05 158.859 118.49C158.785 116.93 159.341 115.5 160.279 114.397ZM31.5774 116.675L37.2947 118.752L31.0072 134.265C30.9692 134.358 30.9756 134.464 31.0243 134.552L32.168 136.63C32.3558 136.971 32.2345 137.392 31.8928 137.58C31.5515 137.768 31.1305 137.647 30.9424 137.305L30.6107 136.702C30.5516 136.595 30.4391 136.528 30.3164 136.528C30.18 136.528 30.0571 136.612 30.0056 136.738L29.2191 138.679C29.2188 138.679 29.2188 138.679 29.2185 138.679C28.9967 139.226 28.3899 139.496 27.8349 139.294C27.0964 139.026 26.1597 138.685 25.3517 138.392C24.5346 138.095 24.1173 137.201 24.4143 136.384C26.279 131.254 31.4127 117.128 31.5774 116.675ZM152.912 120.116C154.289 120.564 155.512 121.491 156.266 122.859C157.02 124.227 157.151 125.755 156.795 127.158C155.418 126.71 154.195 125.783 153.441 124.415H153.442C152.688 123.048 152.557 121.519 152.912 120.116ZM165.675 121.008C167.01 121.049 168.236 121.552 169.218 122.352C168.232 123.411 166.876 124.129 165.318 124.237C163.76 124.344 162.318 123.819 161.196 122.905C161.2 122.901 161.204 122.897 161.208 122.892C162.193 121.84 163.544 121.126 165.096 121.019C165.291 121.006 165.484 121.002 165.675 121.008ZM63.8609 121.156L72.6074 145.33C72.6128 145.345 72.6192 145.359 72.6266 145.373C73.3906 146.816 73.2582 148.64 72.1441 149.972C71.9805 150.167 71.8021 150.344 71.6126 150.502C71.6048 150.508 71.5974 150.515 71.5904 150.522L54.3382 167.737L49.7172 163.872L63.7476 147.097C63.839 146.988 63.8511 146.831 63.7775 146.709L53.9394 130.339C53.1015 128.944 52.6163 127.367 52.525 125.743V125.742C52.4302 124.055 52.3371 122.384 52.32 122.075L63.8609 121.156ZM51.6501 122.128C51.6682 122.45 51.7613 124.1 51.855 125.781C51.9524 127.514 52.4705 129.197 53.3646 130.685L54.6184 132.771L52.9889 149.594C52.9879 149.605 52.9876 149.616 52.9876 149.626C52.9876 149.765 52.9809 149.904 52.9668 150.044C52.9668 150.044 52.9668 150.044 52.9668 150.044C52.9412 150.298 52.8925 150.544 52.8246 150.781C52.8216 150.791 52.8193 150.801 52.8173 150.81L50.7386 161.604L48.9958 163.687C48.9925 163.691 48.9894 163.694 48.9864 163.698V163.698C48.9861 163.699 47.7682 165.155 46.8204 166.288C46.0977 167.152 46.2129 168.448 47.0774 169.171C47.6089 169.616 48.3014 170.195 48.9753 170.759L48.2073 174.743L42.2131 174.139L43.4569 161.788C43.467 161.751 43.471 161.713 43.4687 161.675L44.6879 149.571C44.6906 149.544 44.6899 149.516 44.6859 149.489L42.2705 132.964C41.7723 129.553 42.076 126.076 43.1535 122.804L51.6501 122.128ZM161.116 126.365C161.306 126.362 161.499 126.368 161.694 126.385C163.25 126.518 164.593 127.259 165.563 128.334C164.425 129.23 162.975 129.732 161.419 129.598C159.863 129.465 158.519 128.725 157.55 127.649C158.545 126.866 159.78 126.383 161.116 126.365ZM149.086 127.202C150.476 127.608 151.726 128.496 152.522 129.84C153.319 131.184 153.496 132.708 153.184 134.122C151.794 133.716 150.544 132.828 149.747 131.484V131.483C148.952 130.139 148.773 128.615 149.086 127.202ZM158.412 132.578C159.747 132.605 160.979 133.095 161.97 133.885C160.994 134.954 159.646 135.687 158.089 135.81C156.532 135.934 155.085 135.423 153.953 134.521C154.928 133.451 156.277 132.719 157.834 132.595C158.029 132.58 158.221 132.574 158.412 132.578ZM168.903 132.814C169.942 133.823 170.632 135.193 170.706 136.754C170.781 138.314 170.225 139.744 169.287 140.847C168.249 139.838 167.559 138.468 167.485 136.907C167.41 135.347 167.966 133.917 168.903 132.814ZM55.199 133.737L58.0908 138.55C57.744 138.504 57.3919 138.478 57.0331 138.478C56.2244 138.478 55.4446 138.602 54.7061 138.823L55.199 133.737ZM145.668 134.54C149.093 136.101 151.481 139.549 151.484 143.559L151.449 144.236C150.875 144.331 149.535 144.657 148.57 145.742C148.515 145.804 148.485 145.883 148.485 145.965C148.485 146.149 148.636 146.301 148.821 146.301C148.917 146.301 149.008 146.26 149.071 146.188C150.107 145.025 151.793 144.866 151.797 144.865C151.801 144.865 151.805 144.864 151.81 144.864C151.814 144.863 151.819 144.863 151.823 144.862C151.826 144.862 151.829 144.862 151.831 144.862C152.178 144.822 152.53 144.802 152.888 144.802C157.236 144.802 160.923 147.607 162.26 151.501C161.685 151.697 160.52 152.195 159.673 153.241C159.625 153.3 159.598 153.375 159.598 153.452C159.598 153.636 159.749 153.788 159.934 153.788C160.035 153.788 160.131 153.742 160.195 153.663C161.179 152.448 162.744 152.053 162.764 152.048C162.767 152.048 162.77 152.047 162.773 152.046C163.488 151.87 164.243 151.78 165.02 151.78C170.384 151.78 174.751 156.04 174.928 161.362H145.667L145.668 134.54ZM161.538 138.533C162.914 138.981 164.137 139.908 164.891 141.276C165.645 142.643 165.776 144.173 165.419 145.576C164.043 145.127 162.82 144.201 162.066 142.833C161.312 141.465 161.181 139.936 161.538 138.533ZM57.0331 139.149C57.5519 139.149 58.0572 139.205 58.546 139.306L63.0801 146.85L51.6269 160.542L53.4768 150.938C53.552 150.672 53.6065 150.396 53.6347 150.111L53.634 150.112C53.6495 149.96 53.6559 149.809 53.6569 149.659L53.6575 149.651L54.6359 139.55C55.3885 139.294 56.1932 139.149 57.0331 139.149ZM40.544 139.383C40.9001 140.787 40.7691 142.316 40.0151 143.684C39.2612 145.052 38.0379 145.978 36.6614 146.427C36.3053 145.023 36.4363 143.495 37.1902 142.126C37.9442 140.759 39.1671 139.832 40.544 139.383ZM174.3 139.425C175.635 139.467 176.862 139.969 177.844 140.769C176.858 141.829 175.501 142.547 173.943 142.654C172.385 142.761 170.943 142.236 169.82 141.322C170.807 140.262 172.163 139.544 173.721 139.437C173.916 139.423 174.109 139.42 174.3 139.425ZM78.0906 144.025C77.1004 144.025 76.2904 144.836 76.2904 145.826V157.548C76.2904 158.538 77.1004 159.348 78.0906 159.348H89.8125C90.803 159.348 91.6137 158.538 91.6137 157.548V145.826C91.6137 144.836 90.803 144.025 89.8125 144.025H78.0906ZM94.9557 144.025C93.9656 144.025 93.1545 144.836 93.1545 145.826V157.548C93.1545 158.538 93.9656 159.348 94.9557 159.348H106.678C107.668 159.348 108.478 158.538 108.478 157.548V145.826C108.478 144.835 107.668 144.025 106.678 144.025H94.9557ZM111.82 144.025C110.83 144.025 110.019 144.835 110.019 145.826V157.548C110.019 158.538 110.83 159.348 111.82 159.348H123.542C124.532 159.348 125.343 158.538 125.343 157.548V145.826C125.343 144.835 124.532 144.025 123.542 144.025H111.82ZM78.0906 144.696H89.8125C90.4398 144.696 90.9428 145.199 90.9428 145.826V157.548C90.9428 158.175 90.4398 158.677 89.8125 158.677H78.0906C77.4633 158.677 76.9613 158.175 76.9613 157.548V145.826C76.9613 145.199 77.4636 144.696 78.0906 144.696ZM94.9557 144.696H106.678C107.305 144.696 107.807 145.199 107.807 145.826V157.548C107.807 158.175 107.305 158.677 106.678 158.677H94.9557C94.3284 158.677 93.8255 158.175 93.8255 157.548V145.826C93.8255 145.199 94.3288 144.696 94.9557 144.696ZM111.82 144.696H123.542C124.169 144.696 124.672 145.199 124.672 145.826V157.548C124.672 158.175 124.169 158.677 123.542 158.677H111.82C111.193 158.677 110.69 158.175 110.69 157.548V145.826C110.69 145.199 111.193 144.696 111.82 144.696ZM169.741 144.782C169.932 144.779 170.125 144.785 170.319 144.802C171.875 144.936 173.219 145.676 174.188 146.751C173.05 147.647 171.6 148.149 170.044 148.015C168.488 147.882 167.144 147.143 166.175 146.067C167.17 145.283 168.405 144.801 169.741 144.782ZM32.341 145.633C33.6766 145.652 34.9109 146.134 35.9064 146.918C34.9375 147.993 33.5936 148.733 32.0376 148.867C30.4807 149 29.031 148.498 27.8934 147.602C28.8623 146.526 30.2069 145.787 31.7628 145.654C31.9574 145.637 32.1502 145.63 32.341 145.633ZM43.5483 146.349L44.0156 149.545L42.8253 161.362H26.8259C27.003 156.04 31.3701 151.78 36.7346 151.78C37.4919 151.78 38.2277 151.866 38.936 152.027C38.9642 152.039 38.9937 152.047 39.024 152.05C39.1597 152.091 40.3585 152.465 41.182 153.426C41.2458 153.502 41.3399 153.546 41.4393 153.546C41.6235 153.546 41.775 153.395 41.775 153.21C41.775 153.129 41.7454 153.05 41.6913 152.989C40.9528 152.127 39.9856 151.686 39.4853 151.5C40.2214 149.358 41.6695 147.546 43.5483 146.349ZM65.4692 157.578V161.362H61.678L65.4692 157.578ZM49.2861 164.387L54.0399 168.364C54.0614 168.557 54.3812 171.415 54.4861 172.355C54.4961 172.444 54.4693 172.533 54.4118 172.602C54.4118 172.602 54.4115 172.603 54.4111 172.603C53.9119 173.2 53.0323 173.278 52.4352 172.778C51.0473 171.618 48.8876 169.812 47.5078 168.657C46.9215 168.167 46.8452 167.305 47.3354 166.719C48.1891 165.698 49.0808 164.632 49.2861 164.387ZM42.1459 174.807L48.3121 175.428C48.4381 175.575 50.3075 177.762 50.9227 178.481C50.9227 178.481 50.9227 178.482 50.9227 178.482C50.9808 178.55 51.009 178.638 50.9999 178.727C50.9989 178.737 50.9983 178.747 50.9979 178.757L50.9993 178.728C50.9213 179.503 50.2383 180.061 49.4632 179.982C47.6633 179.801 44.862 179.519 43.0715 179.339C42.3119 179.262 41.7642 178.592 41.8405 177.832C41.9739 176.508 42.114 175.124 42.1459 174.807Z" fill="#828282"/>
</svg>
