<svg width="585" height="390" viewBox="0 0 585 390" fill="none" xmlns="http://www.w3.org/2000/svg">
<path d="M87.8194 251.636H67.165V260.364H87.8194V251.636Z" fill="#EBEBEB"/>
<path d="M76.2989 262.641H55.6445V271.37H76.2989V262.641Z" fill="#EBEBEB"/>
<path d="M353.573 168.94H332.919V177.668H353.573V168.94Z" fill="#EBEBEB"/>
<path d="M342.053 179.946H321.398V188.674H342.053V179.946Z" fill="#EBEBEB"/>
<path d="M330.579 168.94H309.925V177.668H330.579V168.94Z" fill="#EBEBEB"/>
<path d="M529.354 262.641H508.699V271.37H529.354V262.641Z" fill="#EBEBEB"/>
<path d="M517.833 49.0151H497.179V57.7433H517.833V49.0151Z" fill="#EBEBEB"/>
<path d="M529.354 60.021H508.699V68.7492H529.354V60.021Z" fill="#EBEBEB"/>
<path d="M87.8194 49.0151H67.165V57.7433H87.8194V49.0151Z" fill="#EBEBEB"/>
<path d="M166.31 178.955L161.287 190.016L164.68 191.576C165.165 191.8 165.578 192.154 165.874 192.599C166.17 193.043 166.337 193.561 166.357 194.095C166.386 194.701 166.445 195.305 166.537 195.905C166.62 196.431 166.556 196.971 166.353 197.464C166.149 197.956 165.813 198.383 165.382 198.697L162.356 200.865L169.43 210.74L172.457 208.58C172.892 208.27 173.404 208.087 173.937 208.051C174.47 208.015 175.003 208.128 175.475 208.377C176.012 208.667 176.564 208.928 177.129 209.157C177.629 209.347 178.067 209.673 178.393 210.097C178.719 210.521 178.922 211.027 178.978 211.559L179.336 215.264L191.426 214.071L191.06 210.358C191.012 209.825 191.112 209.289 191.351 208.81C191.589 208.331 191.955 207.927 192.409 207.644C192.659 207.488 192.908 207.316 193.15 207.145C193.392 206.973 193.634 206.794 193.868 206.606C194.278 206.267 194.775 206.049 195.303 205.976C195.83 205.903 196.368 205.978 196.855 206.193L200.264 207.753L205.279 196.693L201.886 195.133C201.401 194.908 200.988 194.554 200.692 194.11C200.396 193.665 200.229 193.147 200.209 192.613C200.183 192.01 200.126 191.409 200.038 190.811C199.954 190.285 200.018 189.745 200.221 189.252C200.425 188.76 200.761 188.333 201.192 188.019L204.218 185.851L197.136 175.976L194.117 178.144C193.681 178.451 193.168 178.632 192.635 178.666C192.103 178.7 191.571 178.587 191.099 178.339C190.566 178.059 190.016 177.811 189.453 177.598C188.952 177.409 188.514 177.083 188.188 176.659C187.861 176.235 187.659 175.728 187.604 175.196L187.238 171.483L175.148 172.676L175.514 176.389C175.559 176.92 175.457 177.452 175.219 177.928C174.981 178.404 174.616 178.806 174.165 179.088C173.908 179.252 173.658 179.423 173.385 179.595L172.667 180.133C172.254 180.474 171.755 180.693 171.224 180.766C170.694 180.839 170.154 180.763 169.664 180.547L166.31 178.955ZM177.488 185.195C179.088 184.047 180.992 183.4 182.96 183.334C184.928 183.269 186.871 183.789 188.544 184.829C190.216 185.868 191.543 187.38 192.356 189.174C193.168 190.967 193.431 192.962 193.11 194.905C192.789 196.847 191.898 198.651 190.552 200.088C189.205 201.525 187.463 202.53 185.545 202.976C183.627 203.422 181.62 203.289 179.777 202.594C177.935 201.899 176.34 200.673 175.195 199.072C173.673 196.929 173.06 194.273 173.49 191.68C173.919 189.088 175.356 186.771 177.488 185.234V185.195Z" fill="#EBEBEB"/>
<path d="M503.762 85.5737L498.677 88.5143L499.573 90.0743C499.703 90.299 499.767 90.5552 499.758 90.8142C499.75 91.0732 499.67 91.3247 499.527 91.5407C499.361 91.7906 499.213 92.0511 499.082 92.3207C498.969 92.5534 498.792 92.7498 498.573 92.8876C498.354 93.0255 498.101 93.0993 497.842 93.1007H496.079V98.9741H497.873C498.132 98.9756 498.385 99.0494 498.604 99.1872C498.824 99.3251 499 99.5214 499.113 99.7541C499.246 100.023 499.394 100.283 499.558 100.534C499.701 100.75 499.781 101.002 499.789 101.261C499.798 101.52 499.734 101.776 499.605 102.001L498.708 103.561L503.793 106.493L504.69 104.933C504.824 104.711 505.016 104.53 505.246 104.41C505.476 104.29 505.734 104.237 505.993 104.255H506.851C507.109 104.235 507.367 104.289 507.595 104.409C507.824 104.529 508.015 104.71 508.146 104.933L509.051 106.493L514.136 103.561L513.239 102.001C513.111 101.777 513.047 101.522 513.055 101.265C513.064 101.007 513.143 100.757 513.286 100.542C513.446 100.29 513.591 100.03 513.723 99.7619C513.837 99.5286 514.015 99.332 514.236 99.1941C514.456 99.0563 514.711 98.9828 514.971 98.9819H516.765V93.1085H514.971C514.711 93.1059 514.457 93.0316 514.237 92.894C514.017 92.7564 513.839 92.5607 513.723 92.3285C513.595 92.0589 513.449 91.7983 513.286 91.5485C513.143 91.3325 513.063 91.081 513.054 90.822C513.046 90.563 513.11 90.3068 513.239 90.0821L514.136 88.5221L509.051 85.5815L508.146 87.1415C508.014 87.362 507.825 87.542 507.598 87.6617C507.371 87.7814 507.115 87.8362 506.859 87.8201H505.993C505.733 87.8384 505.474 87.7839 505.244 87.6626C505.014 87.5413 504.822 87.3581 504.69 87.1337L503.762 85.5737ZM506.391 91.1897C507.343 91.1897 508.273 91.472 509.064 92.0008C509.856 92.5296 510.473 93.2812 510.837 94.1606C511.201 95.04 511.297 96.0077 511.111 96.9412C510.925 97.8748 510.467 98.7323 509.794 99.4054C509.121 100.078 508.263 100.537 507.33 100.722C506.396 100.908 505.428 100.813 504.549 100.449C503.67 100.084 502.918 99.4675 502.389 98.6761C501.86 97.8846 501.578 96.9542 501.578 96.0023C501.577 95.37 501.701 94.7438 501.942 94.1594C502.184 93.5751 502.538 93.0441 502.985 92.597C503.432 92.1499 503.963 91.7955 504.548 91.554C505.132 91.3125 505.758 91.1887 506.391 91.1897Z" fill="#EBEBEB"/>
<path d="M68.9442 111.173L72.5088 115.853L73.9362 114.754C74.1428 114.598 74.3889 114.503 74.6466 114.479C74.9044 114.456 75.1635 114.505 75.3948 114.621C75.66 114.746 75.933 114.855 76.1748 114.956C76.4195 115.04 76.636 115.19 76.8 115.39C76.964 115.59 77.0689 115.831 77.103 116.087L77.337 117.866L83.1636 117.086L82.9296 115.307C82.8975 115.051 82.9366 114.791 83.0425 114.556C83.1485 114.321 83.3172 114.119 83.5302 113.974C83.7739 113.81 84.0083 113.633 84.2322 113.443C84.4268 113.273 84.6648 113.161 84.9195 113.118C85.1743 113.075 85.4359 113.104 85.6752 113.201L87.36 113.88L89.6142 108.42L87.945 107.734C87.7075 107.631 87.5031 107.464 87.3545 107.252C87.2058 107.04 87.1186 106.791 87.1026 106.532C87.1026 106.392 87.1026 106.252 87.0558 106.103C87.009 105.955 87.0168 105.823 86.9934 105.674C86.9414 105.422 86.9614 105.16 87.051 104.919C87.1407 104.678 87.2964 104.466 87.5004 104.309L88.92 103.272L85.3554 98.592L83.9202 99.684C83.7136 99.8394 83.4681 99.9348 83.2107 99.9596C82.9533 99.9843 82.6941 99.9376 82.4616 99.8244C82.2078 99.6988 81.9474 99.5868 81.6816 99.489C81.4379 99.404 81.2223 99.2535 81.0586 99.0539C80.8948 98.8544 80.7892 98.6136 80.7534 98.358L80.5194 96.5718L74.6928 97.3518L74.9268 99.138C74.9593 99.3929 74.9203 99.6519 74.8142 99.886C74.7082 100.12 74.5393 100.32 74.3262 100.464C74.085 100.63 73.8532 100.81 73.632 101.002C73.4354 101.171 73.1958 101.283 72.9397 101.324C72.6836 101.365 72.4211 101.335 72.1812 101.236L70.5198 100.55L68.2656 105.971L69.927 106.665C70.165 106.765 70.3701 106.93 70.519 107.141C70.6679 107.352 70.7547 107.601 70.7694 107.858L70.8162 108.287C70.8162 108.436 70.8162 108.576 70.8864 108.716C70.9363 108.97 70.9146 109.233 70.8237 109.476C70.7328 109.718 70.5763 109.931 70.3716 110.089L68.9442 111.173ZM74.1702 107.843C74.0485 106.899 74.2094 105.94 74.6326 105.087C75.0558 104.235 75.7223 103.527 76.5478 103.053C77.3733 102.579 78.3208 102.361 79.2703 102.426C80.2199 102.49 81.129 102.835 81.8827 103.417C82.6363 103.998 83.2007 104.79 83.5044 105.692C83.808 106.594 83.8374 107.566 83.5888 108.484C83.3402 109.403 82.8248 110.227 82.1077 110.853C81.3906 111.479 80.504 111.878 79.56 112C78.9331 112.081 78.2964 112.038 77.6863 111.873C77.0761 111.708 76.5045 111.424 76.004 111.038C75.5034 110.652 75.0839 110.171 74.7693 109.623C74.4546 109.075 74.2511 108.47 74.1702 107.843Z" fill="#EBEBEB"/>
<path d="M235.496 59.3892H172.277V136.071H235.496V59.3892Z" fill="#EBEBEB"/>
<path d="M228.274 66.3857H179.501V129.074H228.274V66.3857Z" fill="white"/>
<path d="M181.404 66.3857H179.501V129.074H181.404V66.3857Z" fill="#DBDBDB"/>
<path d="M237.4 59.3892H235.497V136.071H237.4V59.3892Z" fill="#DBDBDB"/>
<path d="M207.347 75.0281H195.85V109.293H207.347V75.0281Z" fill="#DBDBDB"/>
<path d="M221.488 98.3579H190.826V115.144H221.488V98.3579Z" stroke="#EBEBEB" stroke-width="0.78" stroke-miterlimit="10"/>
<path d="M410.818 59.3892H347.599V136.071H410.818V59.3892Z" fill="#EBEBEB"/>
<path d="M403.595 66.3857H354.821V129.074H403.595V66.3857Z" fill="white"/>
<path d="M356.724 66.3857H354.821V129.074H356.724V66.3857Z" fill="#DBDBDB"/>
<path d="M412.722 59.3892H410.818V136.071H412.722V59.3892Z" fill="#DBDBDB"/>
<path d="M382.667 75.0281H371.17V109.293H382.667V75.0281Z" fill="#DBDBDB"/>
<path d="M396.808 98.3579H366.146V115.144H396.808V98.3579Z" stroke="#EBEBEB" stroke-width="0.78" stroke-miterlimit="10"/>
<path d="M323.154 59.3892H259.935V136.071H323.154V59.3892Z" fill="#EBEBEB"/>
<path d="M315.938 66.3857H267.165V129.074H315.938V66.3857Z" fill="white"/>
<path d="M269.068 66.3857H267.165V129.074H269.068V66.3857Z" fill="#DBDBDB"/>
<path d="M325.064 59.3892H323.161V136.071H325.064V59.3892Z" fill="#DBDBDB"/>
<path d="M296.68 82.5862H286.829V107.499H296.68V82.5862Z" fill="#EBEBEB"/>
<path d="M307.054 97.7261H280.589V114.902H307.054V97.7261Z" stroke="#DBDBDB" stroke-width="0.78" stroke-miterlimit="10"/>
<path d="M292.5 357.646C427.636 357.646 537.186 349.023 537.186 338.387C537.186 327.751 427.636 319.129 292.5 319.129C157.363 319.129 47.8135 327.751 47.8135 338.387C47.8135 349.023 157.363 357.646 292.5 357.646Z" fill="#EBEBEB"/>
<path d="M173.698 236.293H149.011V289.629H173.698V236.293Z" fill="#FFC727"/>
<g opacity="0.1">
<path d="M173.706 236.293H168.051V289.629H173.706V236.293Z" fill="black"/>
</g>
<path d="M206.224 216.13H181.537V289.63H206.224V216.13Z" fill="#FFC727"/>
<g opacity="0.1">
<path d="M206.232 216.13H200.577V289.63H206.232V216.13Z" fill="black"/>
</g>
<path d="M141.243 248.305H116.556V289.63H141.243V248.305Z" fill="#FFC727"/>
<g opacity="0.1">
<path d="M141.242 248.305H135.587V289.63H141.242V248.305Z" fill="black"/>
</g>
<path d="M238.758 189.29H214.071V289.629H238.758V189.29Z" fill="#FFC727"/>
<g opacity="0.1">
<path d="M238.758 189.29H233.103V289.629H238.758V189.29Z" fill="black"/>
</g>
<path d="M107.804 273.608V263.32C107.804 263.32 197.73 257.4 234.07 180.71L237.682 181.428C237.682 181.428 213.556 260.06 107.804 273.608Z" fill="#37474F"/>
<path d="M241.051 184.01L229.694 181.108L239.109 173.885L241.051 184.01Z" fill="#37474F"/>
<path d="M41.1602 289.466L103.997 289.278L166.834 289.208L292.5 289.076L418.166 289.208L481.002 289.278L543.839 289.466L481.002 289.661L418.166 289.723L292.5 289.856L166.834 289.723L103.997 289.661L41.1602 289.466Z" fill="#263238"/>
<path d="M511.93 242.682C511.93 242.682 519.223 216.52 525.041 207.636C530.86 198.752 541.71 188.994 541.71 188.994C541.71 188.994 541.453 229.32 511.93 242.682Z" fill="#FFC727"/>
<path d="M512.46 242.229C514.915 238.134 517.134 233.902 519.106 229.554C519.942 224.881 521.153 220.282 522.725 215.803C522.725 215.717 522.873 215.764 522.857 215.849C521.89 219.976 520.759 224.078 519.737 228.197C522.686 221.832 525.478 215.381 528.98 209.36C529.792 206.453 530.925 203.646 532.358 200.99C532.358 200.912 532.529 200.99 532.49 201.037C531.604 203.082 530.843 205.179 530.213 207.316C531.868 204.633 533.719 202.075 535.751 199.664C535.883 199.516 536.133 199.664 536.008 199.844C531.328 205.826 528.091 212.628 525.01 219.515C528.323 215.922 531.38 212.101 534.16 208.081C534.16 208.081 534.245 208.081 534.222 208.127C531.326 212.633 528.048 216.881 524.425 220.826C522.187 225.872 519.979 230.966 517.304 235.739C522.647 231.223 526.757 225.373 530.829 219.734C530.85 219.712 530.877 219.699 530.907 219.696C530.936 219.692 530.966 219.7 530.991 219.717C531.015 219.734 531.033 219.759 531.04 219.788C531.048 219.817 531.045 219.847 531.032 219.874C526.96 226.06 522.748 231.886 516.89 236.473C515.706 238.58 514.404 240.619 512.99 242.58C512.944 242.65 512.871 242.699 512.789 242.716C512.706 242.733 512.62 242.716 512.55 242.67C512.479 242.623 512.43 242.551 512.414 242.468C512.397 242.385 512.413 242.299 512.46 242.229Z" fill="#263238"/>
<path d="M508.014 242.713C508.014 242.713 521.118 218.595 517.312 195.211C513.505 171.826 509.434 163.496 509.434 163.496C509.434 163.496 488.834 199.867 508.014 242.713Z" fill="#FFC727"/>
<path d="M502.639 204.797C503.747 211.433 505.438 217.958 507.694 224.297C507.733 215.717 507.897 207.137 508.123 198.557C506.65 193.332 505.819 187.946 505.65 182.52C505.65 182.364 505.884 182.372 505.892 182.52C506.305 187.159 507.074 191.759 508.193 196.279C508.391 189.197 508.619 182.117 508.879 175.04C508.879 175.015 508.889 174.991 508.907 174.974C508.924 174.956 508.948 174.946 508.973 174.946C508.998 174.946 509.022 174.956 509.039 174.974C509.057 174.991 509.067 175.015 509.067 175.04C509.067 186.092 509.067 197.153 508.989 208.213C510.585 203.939 511.85 199.547 512.772 195.078C512.772 195.031 512.85 195.078 512.842 195.078C512.452 200.25 510.884 205.218 508.942 210.031C508.887 217.105 508.809 224.172 508.653 231.239C510.868 223.727 513.24 216.419 513.879 208.502C513.885 208.484 513.896 208.469 513.91 208.458C513.925 208.448 513.943 208.442 513.961 208.442C513.979 208.442 513.997 208.448 514.012 208.458C514.027 208.469 514.038 208.484 514.043 208.502C513.871 217.253 511.617 226.145 508.723 234.382C508.695 234.465 508.643 234.538 508.575 234.593C508.513 237.175 508.443 239.757 508.349 242.338C508.338 242.406 508.303 242.467 508.251 242.511C508.199 242.555 508.133 242.58 508.064 242.58C507.996 242.58 507.93 242.555 507.878 242.511C507.826 242.467 507.791 242.406 507.78 242.338C507.681 237.05 507.637 231.764 507.647 226.481C504.794 219.562 503.051 212.236 502.483 204.773C502.487 204.753 502.498 204.734 502.514 204.722C502.531 204.709 502.552 204.704 502.573 204.707C502.594 204.71 502.612 204.721 502.625 204.738C502.637 204.755 502.642 204.776 502.639 204.797Z" fill="#263238"/>
<path d="M503.536 201.069C503.992 203.168 504.297 205.298 504.449 207.441C504.449 207.511 504.34 207.519 504.324 207.441C503.817 205.353 503.458 203.231 503.248 201.092C503.232 200.936 503.505 200.905 503.536 201.069Z" fill="#263238"/>
<path d="M511.196 183.433C511.196 183.363 511.321 183.386 511.321 183.433C511.302 184.919 511.081 186.397 510.666 187.824C510.659 187.848 510.642 187.868 510.62 187.88C510.598 187.891 510.573 187.894 510.549 187.887C510.525 187.879 510.505 187.863 510.493 187.841C510.482 187.819 510.479 187.793 510.486 187.77C510.767 186.342 510.947 184.86 511.196 183.433Z" fill="#263238"/>
<path d="M504.66 244.07C504.66 244.07 501.899 219.04 493.1 207.574C484.302 196.108 471.596 191.357 471.596 191.357C471.596 191.357 482.173 234.725 504.66 244.07Z" fill="#FFC727"/>
<path d="M488.787 224.445C492.239 228.427 496.022 232.109 500.097 235.451C498.017 230.537 495.703 225.737 493.155 221.052C488.678 218.057 484.216 214.937 481.12 210.444C481.111 210.43 481.109 210.412 481.112 210.396C481.115 210.379 481.124 210.365 481.137 210.354C481.151 210.344 481.167 210.338 481.184 210.339C481.201 210.34 481.217 210.347 481.229 210.358C484.435 214.258 488.428 217.222 492.586 220.015C488.733 212.958 484.448 206.146 479.755 199.618C479.737 199.583 479.732 199.544 479.74 199.506C479.749 199.468 479.77 199.435 479.801 199.412C479.832 199.388 479.87 199.377 479.909 199.379C479.947 199.381 479.984 199.396 480.012 199.423C482.786 202.801 485.372 206.329 487.758 209.992C486.736 207.418 485.847 204.758 484.809 202.192C484.808 202.179 484.811 202.165 484.818 202.154C484.824 202.143 484.835 202.134 484.847 202.129C484.859 202.123 484.872 202.122 484.885 202.125C484.898 202.128 484.91 202.135 484.918 202.145C486.771 205.357 488.225 208.783 489.247 212.347C492.493 217.551 495.36 222.98 497.827 228.595C497.149 224.882 496.423 221.185 495.55 217.503C495.55 217.433 495.651 217.402 495.675 217.503C497.015 221.532 497.935 225.688 498.42 229.905C499.939 233.493 501.301 237.133 502.507 240.825C502.507 240.927 502.39 240.989 502.351 240.888C501.753 239.328 501.132 237.804 500.487 236.317C500.487 236.317 500.433 236.317 500.401 236.317C496.049 232.978 491.821 229.071 488.779 224.476C488.733 224.445 488.764 224.422 488.787 224.445Z" fill="#263238"/>
<path d="M477.812 205.226C478.725 206.006 479.575 206.786 480.464 207.566C481.299 208.215 482.082 208.93 482.804 209.703C482.804 209.703 482.804 209.781 482.757 209.766C481.77 209.215 480.865 208.529 480.066 207.73C479.201 206.993 478.4 206.184 477.672 205.312C477.656 205.265 477.75 205.14 477.812 205.226Z" fill="#263238"/>
<path d="M524.698 241.488L523.785 253.414L521.04 289.466H497.117L494.372 253.414L493.459 241.488H524.698Z" fill="#455A64"/>
<path d="M524.698 241.488L523.785 253.414H494.372L493.459 241.488H524.698Z" fill="#37474F"/>
<path d="M491.33 244.78H526.82V235.638H491.33V244.78Z" fill="#455A64"/>
<path d="M186.21 325.018C184.65 325.533 138.856 325.135 137.117 324.012C136.461 323.591 136.126 316.93 135.962 308.857C135.923 307.117 132.468 279.045 132.468 279.045L163.059 279.224L165.462 309.036C165.462 309.036 182.91 317.023 184.681 318.451C186.452 319.878 187.817 324.48 186.21 325.018Z" fill="#EB9481"/>
<path d="M186.21 325.018C184.65 325.533 138.856 325.135 137.117 324.012C136.602 323.676 136.282 319.464 136.087 313.731C143.887 314.909 170.407 318.84 176.288 318.263C180.274 317.873 177.708 315.416 174.845 313.412C179.299 315.533 183.831 317.764 184.681 318.45C186.42 319.886 187.817 324.48 186.21 325.018Z" fill="#263238"/>
<path d="M88.9199 165.688C88.9199 165.688 123.692 226.527 124.589 230.802C125.978 237.338 134.035 308.583 134.035 308.583L168.262 308.373C168.262 308.373 161.46 244.764 155.672 225.989C152.506 215.74 135.845 187.957 128.037 174.236C127.343 173.012 127.546 167.403 127.546 167.403L88.9199 165.688Z" fill="#455A64"/>
<path d="M164.962 302.64C159.65 302.538 143.59 302.094 136.516 302.64C136.461 302.64 136.461 302.733 136.516 302.741C138.941 303.116 159.65 302.866 164.962 302.741C164.973 302.753 164.986 302.762 165.002 302.766C165.017 302.77 165.034 302.769 165.048 302.764C165.063 302.758 165.076 302.748 165.085 302.735C165.095 302.722 165.099 302.707 165.099 302.691C165.099 302.675 165.095 302.659 165.085 302.646C165.076 302.633 165.063 302.623 165.048 302.617C165.034 302.612 165.017 302.611 165.002 302.615C164.986 302.619 164.973 302.628 164.962 302.64Z" fill="#263238"/>
<path d="M94.9022 171.303C97.1876 174.985 99.5822 178.589 101.922 182.223C104.262 185.858 106.602 189.524 108.88 193.198C113.466 200.546 117.946 207.956 122.319 215.428C124.442 218.873 126.251 222.501 127.725 226.27C129.073 230.047 130.073 233.94 130.712 237.9C131.391 241.878 131.82 245.887 132.217 249.896C132.649 254.171 133.073 258.44 133.489 262.704C134.355 271.44 136.32 286.946 137.194 295.682C137.295 296.751 137.397 297.827 137.49 298.896C137.49 299.052 137.225 299.083 137.209 298.896C136.227 290.214 134.331 274.716 133.45 266.042C133.008 261.721 132.568 257.395 132.132 253.063C131.726 249.038 131.352 245.013 130.767 241.004C130.24 237.048 129.416 233.137 128.302 229.304C127.075 225.34 125.409 221.525 123.333 217.932C119.145 210.491 114.699 203.174 110.253 195.873C105.807 188.573 101.251 181.178 96.5558 173.94C95.9786 173.043 95.3936 172.161 94.7852 171.28C94.7462 171.296 94.8632 171.233 94.9022 171.303Z" fill="#263238"/>
<path d="M102.671 327.499C100.986 327.374 57.6963 309.215 56.5029 307.523C56.453 307.424 56.4314 307.313 56.4405 307.203C56.4405 305.705 59.5605 300.511 62.1501 293.67C62.3139 293.233 77.1729 268.133 77.1729 268.133L105.471 279.778L89.4267 304.894C89.4267 304.894 102.609 318.848 103.709 320.837C104.808 322.826 104.348 327.6 102.671 327.499Z" fill="#EB9481"/>
<path d="M102.671 327.499C100.986 327.374 57.6963 309.215 56.5029 307.523C56.453 307.424 56.4314 307.313 56.4405 307.203C56.4405 306.002 58.4607 302.398 60.5979 297.476C68.3979 303.225 92.8431 318.419 97.4451 318.747C99.8709 318.919 97.8585 314.909 96.2595 312.234C99.6603 315.939 103.17 319.855 103.709 320.814C104.801 322.826 104.348 327.6 102.671 327.499Z" fill="#263238"/>
<path d="M91.9776 305.526L60.3096 292.266C60.3096 292.266 102.328 228.064 102.671 223.751C102.976 219.929 86.0496 186.42 85.5114 176.709C84.903 166.226 90.0432 158.184 95.6514 153.223L127.577 167.388C127.577 167.388 124.784 173.09 119.293 176.108C119.293 176.108 135.673 214.796 134.558 226.621C133.442 238.446 91.9776 305.526 91.9776 305.526Z" fill="#455A64"/>
<path d="M93.467 299.52C88.8884 297.484 90.23 298.007 85.667 296.018C83.4206 295.05 68.6162 288.678 66.3542 288.147C66.3074 288.147 66.2762 288.21 66.3542 288.241C68.3198 289.473 83.2334 295.581 85.5032 296.509C90.1832 298.404 88.8338 297.812 93.4904 299.629C93.4961 299.62 93.5001 299.611 93.502 299.6C93.504 299.59 93.5039 299.58 93.5017 299.57C93.4995 299.559 93.4953 299.55 93.4893 299.541C93.4834 299.533 93.4758 299.525 93.467 299.52Z" fill="#263238"/>
<path d="M124.675 175.5C121.255 176.257 117.904 177.301 114.659 178.62C114.637 178.633 114.62 178.652 114.611 178.676C114.603 178.7 114.602 178.726 114.611 178.75C114.619 178.774 114.635 178.795 114.657 178.808C114.679 178.821 114.704 178.826 114.73 178.823C118.099 177.879 121.523 177.005 124.831 175.89C124.882 175.869 124.924 175.829 124.946 175.778C124.968 175.726 124.968 175.669 124.948 175.617C124.927 175.565 124.887 175.524 124.835 175.502C124.784 175.48 124.726 175.479 124.675 175.5Z" fill="#263238"/>
<path d="M120.791 174.088C120.465 174.65 120.178 175.234 119.933 175.835C119.684 176.288 119.531 176.787 119.48 177.302C119.48 177.403 119.613 177.426 119.675 177.372C120.022 176.955 120.306 176.49 120.518 175.991C120.799 175.453 121.103 174.915 121.368 174.369C121.547 174.01 121.001 173.737 120.791 174.088Z" fill="#263238"/>
<path d="M121.228 170.999C121.438 170.5 121.649 170.001 121.867 169.502C122.086 169.002 122.351 168.472 122.538 167.942C122.538 167.864 122.702 167.942 122.663 168.004C122.46 168.511 122.32 169.049 122.156 169.564C121.992 170.079 121.813 170.601 121.633 171.124C121.298 172.091 120.892 173.043 120.463 173.971C120.996 174.004 121.529 173.916 122.023 173.714C122.527 173.401 122.922 172.941 123.154 172.395C123.451 171.834 123.724 171.257 124.028 170.703C124.394 170.099 124.707 169.465 124.964 168.807C124.964 168.722 125.12 168.807 125.089 168.862C124.624 170.263 124.02 171.614 123.287 172.895C122.983 173.394 122.725 173.909 122.171 174.096C121.559 174.262 120.918 174.297 120.292 174.197C120.214 174.197 120.12 174.197 120.143 174.08C120.479 173.043 120.822 171.998 121.228 170.999Z" fill="#263238"/>
<path d="M119.753 177.38C120.892 179.868 121.89 182.348 122.951 184.829C124.012 187.309 124.956 189.696 125.892 192.161C127.787 197.129 129.48 202.191 130.962 207.308C131.69 209.835 132.355 212.383 132.958 214.952C133.621 217.515 134.098 220.121 134.386 222.752C134.628 225.378 134.363 228.026 133.606 230.552C132.826 233.134 128.614 241.886 127.42 244.296C126.687 245.77 126.445 245.567 126.796 244.818C127.803 242.712 133.606 230.552 133.91 225.513C134.066 222.908 132.966 219.219 132.412 216.676C131.859 214.133 131.196 211.512 130.486 208.946C129.09 203.907 127.42 198.962 125.697 194.025C124.729 191.256 123.692 188.518 122.709 185.757C121.726 182.996 120.705 180.468 119.589 177.426C119.586 177.416 119.585 177.404 119.586 177.393C119.588 177.382 119.591 177.371 119.597 177.362C119.602 177.352 119.609 177.343 119.618 177.336C119.627 177.329 119.637 177.324 119.648 177.321C119.658 177.318 119.67 177.317 119.681 177.318C119.692 177.32 119.703 177.323 119.712 177.329C119.722 177.334 119.731 177.341 119.738 177.35C119.745 177.359 119.75 177.369 119.753 177.38Z" fill="#263238"/>
<path d="M95.6823 168.909C96.2595 168.706 97.0473 169.065 97.6245 169.174C98.3694 169.308 99.1225 169.391 99.8787 169.424C100.625 169.459 101.373 169.443 102.117 169.377C102.867 169.364 103.603 169.18 104.27 168.839C105.361 168.062 106.298 167.089 107.031 165.968C107.918 164.828 108.647 163.574 109.2 162.24C109.2 162.162 109.348 162.24 109.324 162.295C109.075 163.075 108.888 163.855 108.544 164.564C108.243 165.263 107.885 165.936 107.476 166.577C106.793 167.856 105.804 168.946 104.598 169.751C103.264 170.492 101.563 170.422 100.097 170.321C99.2438 170.265 98.3961 170.143 97.5621 169.954C96.9615 169.822 95.9475 169.712 95.5731 169.174C95.5604 169.15 95.5532 169.123 95.552 169.096C95.5507 169.069 95.5554 169.041 95.5659 169.016C95.5763 168.991 95.5921 168.968 95.6122 168.95C95.6323 168.931 95.6562 168.917 95.6823 168.909Z" fill="#263238"/>
<path d="M69.4663 286.322C74.7937 278.475 97.2265 239.865 102.226 231.761C103.546 229.873 104.669 227.855 105.58 225.74C106.431 223.4 105.986 221.114 105.276 218.805C103.933 214.58 102.353 210.434 100.542 206.388C98.7553 202.324 96.8287 198.315 94.9333 194.298C92.937 190.346 91.1687 186.284 89.6371 182.13C88.1705 178.218 87.9231 173.954 88.9273 169.899C90.0427 165.82 92.3905 162.17 94.8397 158.769C95.4871 157.872 96.1423 156.99 96.7897 156.093C96.8365 156.023 96.9379 156.093 96.8911 156.179C94.2001 159.72 91.5637 163.472 89.9647 167.645C89.1445 169.706 88.6726 171.888 88.5685 174.104C88.5292 176.353 88.8505 178.594 89.5201 180.741C90.7603 184.922 92.7415 188.885 94.5901 192.824C96.4387 196.763 98.4121 200.842 100.237 204.898C102.095 208.969 103.738 213.135 105.159 217.378C105.783 219.266 106.477 221.278 106.407 223.267C106.329 225.482 105.253 227.456 104.137 229.312C99.2779 237.369 76.9621 275.699 71.6581 283.522C70.9977 284.51 70.3295 285.495 69.6535 286.478C69.5599 286.595 69.4195 286.447 69.4663 286.322Z" fill="#263238"/>
<path d="M98.716 92.1103C91.9924 97.8745 93.8644 106.275 91.0564 110.83C89.3404 113.615 83.7478 116.563 82.6402 119.777C80.8072 125.057 85.2844 126.953 84.286 129.815C82.8664 133.887 77.422 133.567 76.486 140.221C75.55 146.874 82.8196 153.941 100.182 155.86C117.545 157.778 127.092 151.414 127.716 145.774C128.34 140.135 122.561 138.255 122.163 134.074C121.913 131.375 125.478 129.503 125.665 124.55C125.852 119.597 120.985 117.983 120.322 113.779C119.659 109.574 121.882 99.3409 115.642 94.1227C109.402 88.9045 102.039 89.2633 98.716 92.1103Z" fill="#263238"/>
<path d="M99.4965 92.2584C97.6193 93.5933 96.0894 95.3586 95.0349 97.4064C93.9465 99.5777 93.1142 101.868 92.5545 104.231C92.2607 105.64 91.808 107.012 91.2051 108.319C90.6018 109.409 89.8095 110.384 88.8651 111.197C86.9853 112.897 84.7467 114.192 83.0541 116.095C81.3615 117.998 80.2149 120.323 80.8545 122.788C81.1977 124.129 82.0869 125.221 82.6329 126.477C83.1789 127.733 83.3661 129.129 82.3443 130.112C81.4785 130.954 80.2227 131.344 79.2243 132.031C78.2524 132.708 77.3963 133.537 76.6893 134.488C75.9816 135.432 75.4777 136.513 75.2091 137.662C74.9406 138.812 74.9134 140.004 75.1293 141.164C76.1511 146.57 81.2211 149.643 85.9011 151.577L87.8667 152.357C87.9681 152.396 88.0539 152.248 87.9525 152.201C83.2725 150.103 77.8125 147.631 76.0029 142.381C75.5912 141.238 75.4475 140.015 75.5827 138.808C75.718 137.6 76.1285 136.44 76.7829 135.416C77.4476 134.402 78.2906 133.516 79.2711 132.803C80.2149 132.109 81.2991 131.68 82.2663 131.017C82.7414 130.713 83.128 130.288 83.3868 129.787C83.6457 129.286 83.7677 128.725 83.7405 128.162C83.59 126.923 83.1461 125.739 82.4457 124.706C81.7168 123.635 81.3305 122.367 81.3381 121.072C81.4786 119.81 81.9584 118.611 82.7265 117.601C84.1929 115.534 86.3535 114.176 88.2957 112.609C90.2808 111.148 91.7591 109.102 92.5233 106.759C92.8821 105.518 93.1005 104.247 93.4125 102.999C93.6954 101.837 94.0417 100.691 94.4499 99.567C95.2185 97.3057 96.4724 95.2398 98.1237 93.5142C98.5602 93.0732 99.0412 92.6785 99.5589 92.3364C99.6135 92.313 99.5589 92.2194 99.4965 92.2584Z" fill="#263238"/>
<path d="M128.45 141.64C128.234 140.72 127.822 139.858 127.241 139.113C126.64 138.333 125.907 137.701 125.244 136.999C124.556 136.371 124.064 135.559 123.824 134.659C123.708 133.56 123.984 132.454 124.604 131.539C125.198 130.57 125.72 129.559 126.164 128.513C126.753 126.924 126.962 125.22 126.774 123.536C126.585 121.853 126.005 120.237 125.08 118.817C124.487 117.85 123.817 116.93 123.216 115.962C122.549 114.911 122.024 113.775 121.656 112.585C120.876 109.972 120.704 107.219 120.096 104.567C119.425 101.853 118.481 99.2133 117.28 96.6887C117.28 96.6263 117.155 96.6887 117.187 96.7511C118.253 99.0302 119.079 101.414 119.651 103.865C120.205 106.205 120.431 108.545 120.829 110.885C120.995 112.039 121.28 113.174 121.679 114.27C122.09 115.282 122.594 116.253 123.185 117.171C124.355 119.082 125.572 120.978 125.891 123.24C126.216 125.472 125.825 127.749 124.776 129.745C123.863 131.469 122.584 133.372 123.38 135.392C124.058 137.108 125.72 138.13 126.773 139.55C127.341 140.326 127.739 141.214 127.941 142.155C128.143 143.096 128.143 144.069 127.943 145.01C127.015 149.869 122.14 152.279 117.577 152.521C117.552 152.528 117.53 152.542 117.514 152.563C117.498 152.583 117.49 152.608 117.49 152.634C117.49 152.66 117.498 152.685 117.514 152.706C117.53 152.726 117.552 152.741 117.577 152.747C121.539 152.7 125.852 150.953 127.717 147.24C128.594 145.512 128.853 143.536 128.45 141.64Z" fill="#263238"/>
<path d="M118.045 128.622C128.965 138.52 143.216 148.949 150.68 146.882C157.435 145.018 166.779 136.414 176.99 127.124C179.018 125.284 163.847 110.269 161.889 112.445C157.989 116.743 150.189 127.585 147.131 128.911C145.813 129.48 130.26 122.85 120.12 119.675C107.874 115.814 113.708 124.683 118.045 128.622Z" fill="#EB9481"/>
<path d="M185.196 123.591C181.639 126.204 175.836 129.722 173.207 130.135C170.735 130.525 160.212 114.59 161.788 112.562C166.679 106.236 176.475 101.642 180.976 101.829C185.477 102.016 188.877 120.9 185.196 123.591Z" fill="#EB9481"/>
<path d="M69.4193 264.194C64.8218 264.146 60.3031 262.993 56.2451 260.832L56.6195 260.146C61.2995 262.681 68.7719 264.638 75.6749 262.486C78.049 261.749 80.2448 260.528 82.1241 258.901C84.0035 257.274 85.5257 255.276 86.5949 253.032C91.3217 243.836 101.914 205.803 108.24 183.082C111.82 170.219 113.56 164.011 113.957 163.449C115.276 161.561 186.178 99.1379 187.613 98.5997C189.048 98.0616 397.519 42.8375 406.387 40.4897L406.59 41.2697C404.422 41.8469 189.844 98.6777 187.886 99.3563C185.944 100.378 116.056 161.944 114.566 163.925C114.199 164.533 111.773 173.238 108.965 183.316C102.179 207.527 92.0393 244.14 87.2345 253.406C84.6683 258.398 80.8463 261.713 75.8699 263.25C73.7788 263.884 71.6045 264.202 69.4193 264.194Z" fill="#263238"/>
<path d="M173.995 102.96C173.105 105.113 176.163 104.933 176.163 104.933C176.163 104.933 171.818 106.259 171.756 108.833C171.694 111.407 175.391 110.97 175.656 110.955C175.422 111.025 171.467 112.343 171.678 114.948C171.889 117.554 175.531 116.664 175.765 116.602C175.57 116.735 173.027 118.575 173.628 120.502C174.673 123.84 181.311 119.316 184.064 119.964C184.064 119.964 184.915 123.653 184.93 123.794C184.93 123.794 189.922 120.728 190.585 116.961C190.691 116.416 190.607 115.851 190.347 115.36C190.088 114.869 189.668 114.482 189.158 114.262C189.158 114.262 191.365 113.147 191.272 111.087C191.217 110.034 189.485 109.184 189.485 109.184C189.977 108.908 190.383 108.5 190.659 108.008C190.934 107.515 191.068 106.956 191.045 106.392C190.889 104.933 189.173 104.309 189.173 104.309C189.173 104.309 190.414 102.601 189.774 101.189C188.464 98.2799 175.921 98.2799 173.995 102.96Z" fill="#EB9481"/>
<path d="M189.539 109.153C189.586 109.153 189.594 109.075 189.539 109.067C184.8 107.959 179.82 108.581 175.499 110.822C175.351 110.9 175.304 111.126 175.499 111.041C178.495 109.66 185.507 108.818 189.539 109.153Z" fill="#263238"/>
<path d="M175.5 116.86C179.743 114.707 184.244 114.13 188.955 114.208C189.018 114.208 189.018 114.122 188.955 114.106C186.662 113.443 183.651 113.708 181.327 114.106C179.161 114.436 177.122 115.332 175.414 116.704C175.375 116.766 175.43 116.906 175.5 116.86Z" fill="#263238"/>
<path d="M176.163 104.91C175.346 105.238 174.563 105.643 173.823 106.119C173.095 106.549 172.492 107.162 172.076 107.897C171.9 108.245 171.861 108.646 171.966 109.021C172.082 109.397 172.288 109.74 172.567 110.019C172.872 110.267 173.224 110.449 173.603 110.554C173.982 110.659 174.378 110.684 174.767 110.627L176.67 110.417L174.954 111.275C174.187 111.647 173.486 112.142 172.879 112.741C172.581 113.002 172.342 113.324 172.178 113.684C172.014 114.044 171.929 114.436 171.927 114.832C171.921 115.201 172.047 115.56 172.281 115.846C172.515 116.132 172.843 116.325 173.207 116.392C174.013 116.542 174.845 116.486 175.625 116.228L177.801 115.58L175.968 116.899C175.451 117.26 174.987 117.69 174.587 118.178C174.177 118.608 173.906 119.152 173.807 119.738C173.778 120.004 173.824 120.272 173.94 120.514C174.056 120.755 174.237 120.959 174.462 121.103C175.018 121.349 175.632 121.433 176.233 121.345C177.538 121.174 178.826 120.897 180.086 120.518C180.726 120.354 181.373 120.182 182.028 120.042C182.677 119.868 183.355 119.834 184.017 119.941C183.358 119.905 182.698 120 182.075 120.221C181.436 120.409 180.812 120.627 180.18 120.838C178.917 121.314 177.611 121.667 176.28 121.891C175.561 122.029 174.818 121.953 174.143 121.672C173.794 121.477 173.51 121.186 173.323 120.833C173.136 120.48 173.055 120.081 173.09 119.683C173.182 118.948 173.488 118.256 173.971 117.694C174.41 117.149 174.919 116.664 175.484 116.251L175.827 116.922C174.909 117.244 173.923 117.322 172.965 117.148C172.437 117.032 171.966 116.737 171.631 116.314C171.312 115.889 171.133 115.377 171.116 114.847C171.118 114.346 171.225 113.852 171.433 113.396C171.64 112.94 171.941 112.533 172.317 112.203C172.995 111.561 173.772 111.034 174.618 110.643L174.806 111.29C174.323 111.348 173.833 111.298 173.372 111.144C172.911 110.99 172.49 110.737 172.138 110.401C171.807 110.046 171.573 109.61 171.459 109.138C171.347 108.655 171.413 108.147 171.647 107.71C172.138 106.935 172.834 106.311 173.659 105.908C174.453 105.482 175.293 105.147 176.163 104.91Z" fill="#263238"/>
<path d="M163.082 111.041C163.082 111.041 173.76 93.7561 178.237 100.565C179.571 102.586 182.629 112.484 180.655 113.131C178.105 113.974 176.061 110.081 175.195 107.437C175.195 107.437 172.731 113.381 168.082 112.897C166.287 112.701 164.57 112.063 163.082 111.041Z" fill="#EB9481"/>
<path d="M177.839 100.019C178.456 100.751 178.963 101.568 179.345 102.445C179.742 103.315 180.086 104.209 180.374 105.12C180.965 106.944 181.398 108.815 181.669 110.713C181.74 111.218 181.74 111.73 181.669 112.234C181.621 112.514 181.512 112.781 181.349 113.014C181.264 113.151 181.153 113.27 181.022 113.365C180.893 113.459 180.751 113.533 180.601 113.583C180.052 113.752 179.46 113.722 178.931 113.498C178.452 113.28 178.014 112.982 177.637 112.616C176.94 111.911 176.368 111.094 175.944 110.198C175.518 109.33 175.153 108.434 174.852 107.515H175.476C175.172 108.183 174.803 108.821 174.376 109.418C173.963 110.018 173.487 110.573 172.957 111.072C172.421 111.565 171.817 111.977 171.163 112.296C170.514 112.616 169.809 112.807 169.088 112.858C169.782 112.709 170.446 112.445 171.053 112.078C171.647 111.711 172.187 111.265 172.66 110.752C173.137 110.279 173.566 109.759 173.939 109.2C174.304 108.613 174.615 107.994 174.868 107.351L175.172 106.571L175.492 107.351C175.81 108.225 176.185 109.077 176.615 109.902C177.015 110.711 177.542 111.451 178.175 112.094C178.438 112.399 178.774 112.63 179.153 112.767C179.531 112.904 179.939 112.94 180.335 112.874C180.959 112.718 180.991 111.68 180.913 110.791C180.835 109.902 180.663 108.95 180.491 108.03C180.32 107.109 180.125 106.181 179.883 105.269C179.479 103.423 178.79 101.652 177.839 100.019Z" fill="#263238"/>
<path d="M136.102 143.918L141.96 126.968C141.96 126.968 127.616 120.409 119.402 118.646C111.189 116.883 109.2 120.346 116.524 127.92C123.848 135.494 136.102 143.918 136.102 143.918Z" fill="#FFC727"/>
<path d="M138.98 126.563C137.935 128.755 137.085 131.056 136.235 133.333C135.384 135.611 134.612 137.873 133.949 140.189C133.949 140.228 134.012 140.26 134.027 140.189C134.963 137.943 135.829 135.665 136.664 133.38C137.498 131.095 138.364 128.872 139.066 126.571C139.082 126.547 139.004 126.516 138.98 126.563Z" fill="#263238"/>
<path opacity="0.1" d="M139.121 135.221L136.102 143.918C136.102 143.918 123.872 135.431 116.524 127.889C113.989 125.291 112.577 123.209 112.148 121.594L139.121 135.221Z" fill="black"/>
<path d="M128.13 167.903L86.8838 160.75C86.8838 160.75 96.8678 131.524 105.604 121.048C109.878 115.908 116.173 117.998 118.747 120.229C119.566 120.939 127.608 132.046 128.403 136.664C129.09 140.751 126.305 145.111 126.305 145.111L128.13 167.903Z" fill="#FFC727"/>
<path d="M124.324 145.135C122.782 144.975 121.233 144.905 119.683 144.924C118.903 144.924 118.123 144.986 117.343 145.064L116.235 145.189C115.83 145.244 115.455 145.353 115.026 145.392C114.987 145.392 114.987 145.47 115.026 145.462C115.409 145.462 115.806 145.462 116.181 145.462H117.335L119.675 145.408C121.235 145.353 122.795 145.314 124.308 145.306C124.41 145.259 124.402 145.142 124.324 145.135Z" fill="#263238"/>
<path d="M100.94 123.661C85.1916 136.921 70.1532 166.46 76.6038 170.118C82.4928 173.456 102.383 173.238 110.666 172.208C113.1 171.904 110.393 153.012 107.788 153.332C104.668 153.714 96.6888 153.956 96.3768 153.902C95.706 153.777 105.667 133.06 108.857 125.439C113.287 114.824 106.86 118.685 100.94 123.661Z" fill="#EB9481"/>
<path d="M132.67 151.858C132.914 152.402 132.986 153.007 132.876 153.593C132.766 154.178 132.479 154.716 132.054 155.134C132.92 155.675 133.569 156.503 133.887 157.474C134.37 159.19 131.89 160.703 131.89 160.703C132.675 161.44 133.219 162.397 133.45 163.449C133.746 165.141 131.461 167.021 131.461 167.021C131.801 168.095 131.743 169.255 131.297 170.289C129.994 173.004 125.431 173.511 122.53 173.87C119.628 174.228 111.079 172.512 109.418 172.356L106.977 153.769C106.977 153.769 119.527 148.481 122.99 148.543C125.899 148.574 131.656 149.814 132.67 151.858Z" fill="#EB9481"/>
<path d="M131.89 154.853C128.77 154.073 125.65 154.198 122.476 154.175C122.461 154.175 122.447 154.181 122.437 154.191C122.427 154.201 122.421 154.215 122.421 154.229C122.421 154.244 122.427 154.258 122.437 154.268C122.447 154.278 122.461 154.284 122.476 154.284C125.596 154.284 128.716 154.885 131.836 155.002C131.855 155.009 131.877 155.008 131.896 154.999C131.915 154.99 131.93 154.974 131.937 154.955C131.944 154.935 131.943 154.913 131.935 154.894C131.926 154.875 131.91 154.861 131.89 154.853Z" fill="#263238"/>
<path d="M131.819 160.438C131.099 160.326 130.368 160.308 129.643 160.384C128.863 160.384 128.083 160.462 127.303 160.516C125.743 160.633 124.222 160.781 122.693 160.976C122.623 160.976 122.623 161.093 122.693 161.086C124.253 160.976 125.766 160.883 127.303 160.836L129.643 160.781C130.37 160.83 131.1 160.796 131.819 160.68C131.851 160.68 131.882 160.667 131.905 160.645C131.927 160.622 131.94 160.591 131.94 160.559C131.94 160.527 131.927 160.496 131.905 160.474C131.882 160.451 131.851 160.438 131.819 160.438Z" fill="#263238"/>
<path d="M131.383 166.998C130.73 166.905 130.066 166.92 129.418 167.045L127.319 167.24C125.915 167.357 124.511 167.474 123.1 167.544C123.085 167.544 123.071 167.55 123.061 167.56C123.051 167.57 123.045 167.584 123.045 167.599C123.045 167.613 123.051 167.627 123.061 167.637C123.071 167.647 123.085 167.653 123.1 167.653C124.535 167.591 125.962 167.544 127.39 167.466L129.496 167.341C130.139 167.364 130.781 167.272 131.391 167.068L131.383 166.998Z" fill="#263238"/>
<path d="M84.0215 140.439L100.511 147.521C100.511 147.521 108.069 133.684 110.424 125.619C112.78 117.554 109.457 115.26 101.408 122.054C93.3581 128.848 84.0215 140.439 84.0215 140.439Z" fill="#FFC727"/>
<path d="M101.096 143.988C98.9821 142.795 96.7513 141.773 94.5439 140.767C92.3365 139.76 90.1291 138.824 87.8671 137.998C87.8568 137.998 87.8469 138.002 87.8396 138.009C87.8322 138.016 87.8281 138.026 87.8281 138.037C87.8281 138.047 87.8322 138.057 87.8396 138.064C87.8469 138.071 87.8568 138.076 87.8671 138.076C90.0355 139.168 92.2429 140.197 94.4659 141.196C96.6889 142.194 98.8495 143.208 101.088 144.074C101.104 144.089 101.135 144.019 101.096 143.988Z" fill="#263238"/>
<path d="M108.263 131.679C107.202 134.433 106.001 137.139 104.737 139.768C104.098 141.094 103.443 142.412 102.756 143.715C102.07 145.017 101.368 146.312 100.58 147.56V147.63H100.518C100.12 147.435 99.7377 147.24 99.3477 147.038L100.58 147.474L100.471 147.513L102.343 143.52L104.254 139.55C104.901 138.231 105.549 136.913 106.227 135.611C106.906 134.308 107.538 132.966 108.263 131.679Z" fill="#263238"/>
<path d="M105.144 138.309C105.471 137.596 105.859 136.912 106.306 136.266C106.743 135.616 107.239 135.007 107.788 134.448C107.469 135.169 107.08 135.856 106.626 136.5C106.189 137.148 105.692 137.753 105.144 138.309Z" fill="#263238"/>
<path d="M108.662 120.463C109.044 121.095 113.802 124.441 116.875 123.248C117.881 122.858 115.994 117.296 115.994 117.296L115.947 116.852L115.315 110.659L107.086 108.576L105.916 108.326C105.916 108.326 106.205 110.011 106.579 112.102C106.579 112.203 106.618 112.297 106.634 112.406C106.649 112.515 106.634 112.632 106.688 112.741C106.743 113.061 106.797 113.381 106.86 113.693C106.922 114.005 106.946 114.169 107.008 114.426C107.07 114.683 107.109 114.925 107.164 115.206C107.54 116.991 108.041 118.748 108.662 120.463Z" fill="#EB9481"/>
<path d="M106.579 112.102C107.701 113.526 109.119 114.688 110.735 115.509C112.352 116.329 114.127 116.787 115.939 116.852L115.307 110.659L107.078 108.576L105.908 108.326C105.908 108.326 106.205 109.98 106.579 112.102Z" fill="#263238"/>
<path d="M120.978 98.4124C125.603 108.318 120.198 112.211 118.053 113.232C116.111 114.137 109.395 116.961 103.771 107.585C98.1474 98.2096 101.299 92.929 105.628 90.6358C109.957 88.3426 116.36 88.5064 120.978 98.4124Z" fill="#EB9481"/>
<path d="M116.891 96.2519C116.649 96.3299 116.407 96.3689 116.157 96.4235C115.904 96.5073 115.631 96.5073 115.377 96.4235C115.303 96.383 115.243 96.3192 115.208 96.2417C115.173 96.1643 115.164 96.0774 115.182 95.9945C115.244 95.8313 115.35 95.6882 115.487 95.5809C115.625 95.4736 115.789 95.4062 115.962 95.3861C116.298 95.2821 116.661 95.31 116.976 95.4641C117.059 95.4986 117.127 95.5586 117.173 95.6354C117.218 95.7121 117.237 95.8014 117.227 95.89C117.218 95.9785 117.18 96.0615 117.119 96.1268C117.058 96.192 116.978 96.2358 116.891 96.2519Z" fill="#263238"/>
<path d="M111.61 101.252C111.849 101.173 112.084 101.082 112.312 100.979C112.575 100.917 112.808 100.769 112.975 100.557C113.017 100.482 113.032 100.395 113.018 100.31C113.004 100.225 112.961 100.147 112.897 100.089C112.755 99.9934 112.59 99.937 112.418 99.926C112.247 99.9151 112.076 99.9499 111.922 100.027C111.591 100.135 111.313 100.363 111.142 100.667C111.108 100.737 111.094 100.816 111.102 100.894C111.11 100.973 111.141 101.047 111.19 101.108C111.239 101.17 111.305 101.216 111.379 101.241C111.454 101.266 111.534 101.27 111.61 101.252Z" fill="#263238"/>
<path d="M113.723 101.813C113.723 101.813 113.684 101.868 113.723 101.899C114.074 102.554 114.371 103.365 113.872 103.888C114.558 103.451 114.16 102.383 113.723 101.813Z" fill="#263238"/>
<path d="M112.779 101.4C111.672 101.852 112.655 104.044 113.684 103.623C114.714 103.202 113.715 101.033 112.779 101.4Z" fill="#263238"/>
<path d="M112.406 101.72C112.266 101.93 112.18 102.234 111.961 102.359C111.743 102.484 111.4 102.359 111.127 102.227C111.127 102.227 111.088 102.227 111.127 102.266C111.314 102.695 111.665 103.046 112.149 102.913C112.349 102.821 112.509 102.657 112.597 102.454C112.685 102.251 112.695 102.023 112.624 101.813C112.578 101.72 112.461 101.642 112.406 101.72Z" fill="#263238"/>
<path d="M117.351 99.8401C117.351 99.8401 117.413 99.8401 117.429 99.8401C117.702 100.526 118.138 101.275 118.856 101.228V101.267C118.068 101.525 117.499 100.526 117.351 99.8401Z" fill="#263238"/>
<path d="M117.647 98.8494C118.708 98.2878 119.753 100.409 118.778 100.971C117.803 101.533 116.758 99.3252 117.647 98.8494Z" fill="#263238"/>
<path d="M118.162 98.7712C118.388 98.7712 118.661 98.935 118.872 98.8492C119.082 98.7634 119.176 98.428 119.223 98.1316C119.223 98.1316 119.223 98.1316 119.262 98.1316C119.472 98.5372 119.55 99.0364 119.192 99.3016C118.833 99.5668 118.412 99.3016 118.131 98.9662C118.068 98.9038 118.076 98.7634 118.162 98.7712Z" fill="#263238"/>
<path d="M116.064 107.367C116.296 107.514 116.572 107.575 116.844 107.539C117.099 107.433 117.328 107.274 117.515 107.071C117.515 107.071 117.569 107.071 117.562 107.071C117.515 107.246 117.423 107.406 117.294 107.533C117.165 107.661 117.004 107.752 116.828 107.796C116.673 107.815 116.516 107.788 116.377 107.717C116.238 107.646 116.124 107.535 116.048 107.398C115.986 107.383 116.033 107.351 116.064 107.367Z" fill="#263238"/>
<path d="M117.78 103.615C117.78 103.615 118.381 104.559 118.607 105.035C118.607 105.081 118.521 105.152 118.365 105.237C117.992 105.502 117.552 105.659 117.095 105.689C116.638 105.719 116.181 105.622 115.776 105.409C115.721 105.409 115.776 105.308 115.822 105.315C116.622 105.45 117.443 105.321 118.162 104.949C118.162 104.801 117.063 103.389 117.141 103.326C117.526 103.189 117.927 103.103 118.334 103.069C117.125 101.064 115.612 99.2705 114.434 97.2581C114.426 97.2434 114.423 97.2263 114.426 97.2098C114.429 97.1933 114.438 97.1785 114.452 97.1681C114.465 97.1577 114.481 97.1524 114.498 97.1531C114.515 97.1539 114.531 97.1607 114.543 97.1723C116.229 99.0471 117.723 101.085 119.005 103.256C119.137 103.514 117.991 103.607 117.78 103.615Z" fill="#263238"/>
<path d="M117.982 105.3C117.87 105.767 117.639 106.196 117.312 106.548C117.131 106.733 116.896 106.856 116.641 106.899C116.079 106.992 115.861 106.54 115.775 106.119C115.732 105.885 115.717 105.647 115.728 105.409C116.472 105.613 117.262 105.575 117.982 105.3Z" fill="#263238"/>
<path d="M117.312 106.509C117.131 106.694 116.896 106.817 116.641 106.86C116.08 106.953 115.861 106.501 115.775 106.08C116.042 105.967 116.34 105.947 116.619 106.025C116.898 106.103 117.142 106.274 117.312 106.509Z" fill="#FF9CBD"/>
<path d="M104.855 108.092C107.195 106.743 104.075 98.935 103.654 97.9522C103.935 98.545 105.448 101.649 105.745 101.649C106.005 101.514 106.237 101.331 106.431 101.111C106.24 100.742 106.079 100.359 105.947 99.9646C105.877 99.7852 106.205 100.3 106.642 100.916L107.024 100.557C106.589 99.788 106.259 98.9644 106.041 98.1082C105.963 97.7806 106.72 99.0442 107.601 100.035C109.353 98.352 111.286 96.8687 113.365 95.6122C113.958 95.2768 114.481 95.0116 114.925 94.8322C114.449 93.9196 113.849 93.0148 114.02 93.1864C114.486 93.6381 114.907 94.1345 115.276 94.6684C115.534 94.5514 115.775 94.45 115.994 94.3642C115.385 93.0538 113.716 91.33 114.083 91.5328C115.189 92.1812 116.166 93.0303 116.961 94.0366C117.92 93.7558 118.248 93.7948 118.154 93.5608C117.502 92.2731 116.601 91.1276 115.503 90.1904C114.405 89.2532 113.132 88.543 111.758 88.1008C107.242 86.8294 100.534 89.77 99.4188 95.9008C99.4188 95.9008 96.5718 100.23 97.6716 103.404C98.7714 106.579 103.483 108.872 104.855 108.092Z" fill="#263238"/>
<path d="M105.698 107.585C105.698 107.585 102.289 105.199 101.127 106.525C99.9651 107.851 103.342 111.883 105.285 111.899C105.534 111.918 105.784 111.886 106.021 111.806C106.257 111.725 106.475 111.598 106.661 111.431C106.847 111.264 106.997 111.061 107.102 110.835C107.208 110.608 107.266 110.362 107.274 110.113L105.698 107.585Z" fill="#EB9481"/>
<path d="M102.125 107.64V107.687C102.773 107.761 103.399 107.97 103.962 108.3C104.525 108.631 105.012 109.075 105.393 109.605C105.279 109.506 105.144 109.433 104.998 109.392C104.853 109.351 104.7 109.343 104.55 109.368C104.401 109.394 104.259 109.452 104.135 109.539C104.011 109.626 103.908 109.739 103.833 109.871C103.833 109.871 103.833 109.941 103.888 109.925C104.072 109.779 104.298 109.694 104.533 109.683C104.768 109.672 105.001 109.735 105.198 109.863C105.531 110.087 105.837 110.349 106.111 110.643C106.204 110.729 106.376 110.604 106.29 110.495C105.783 108.911 103.818 107.211 102.125 107.64Z" fill="#263238"/>
<path d="M116.048 117.296L115.331 122.632L107.749 118.03L106.54 120.432C106.54 120.432 114.909 128.677 114.831 128.232L115.767 123.552L119.387 125.728L117.304 118.49L116.048 117.296Z" fill="#EBEBEB"/>
<path d="M118.559 122.086C118.177 120.9 117.818 119.699 117.382 118.537C117.382 118.49 117.296 118.49 117.296 118.537C117.35 119.761 118.856 124.277 119.121 125.377C118.965 125.284 115.798 123.497 115.783 123.544C115.517 124.324 114.823 127.733 114.792 128.029C113.474 126.719 107.967 121.625 106.493 120.44C106.484 120.436 106.474 120.434 106.465 120.436C106.455 120.437 106.446 120.442 106.439 120.449C106.433 120.456 106.428 120.465 106.426 120.474C106.425 120.484 106.426 120.493 106.43 120.502C107.671 121.93 114.823 128.677 114.893 128.638C115.299 127.007 115.622 125.356 115.861 123.692C117.072 124.557 118.341 125.339 119.659 126.032C119.361 124.699 118.994 123.381 118.559 122.086Z" fill="#263238"/>
<path d="M128.7 89.7001C127.554 87.9979 126.936 85.9956 126.922 83.9437C126.922 76.6585 134.917 70.7539 144.784 70.7539C154.651 70.7539 162.638 76.6585 162.638 83.9437C162.638 91.2289 154.643 97.1413 144.784 97.1413C140.4 97.2103 136.099 95.9365 132.46 93.4909L126.306 95.0509L128.7 89.7001Z" fill="#FFC727"/>
<path d="M151.219 83.9592C151.217 84.3267 151.325 84.6864 151.528 84.9927C151.731 85.299 152.02 85.5381 152.359 85.6798C152.698 85.8215 153.072 85.8594 153.433 85.7887C153.793 85.7179 154.125 85.5417 154.385 85.2824C154.645 85.0231 154.823 84.6924 154.895 84.332C154.968 83.9717 154.931 83.5981 154.791 83.2584C154.651 82.9187 154.413 82.6283 154.107 82.424C153.802 82.2197 153.443 82.1106 153.075 82.1106C152.585 82.1126 152.115 82.3078 151.767 82.6538C151.42 82.9998 151.223 83.4688 151.219 83.9592Z" fill="#263238"/>
<path d="M144.799 85.8078C145.82 85.8078 146.647 84.9802 146.647 83.9592C146.647 82.9382 145.82 82.1106 144.799 82.1106C143.778 82.1106 142.95 82.9382 142.95 83.9592C142.95 84.9802 143.778 85.8078 144.799 85.8078Z" fill="#263238"/>
<path d="M136.516 85.8078C137.537 85.8078 138.364 84.9802 138.364 83.9592C138.364 82.9382 137.537 82.1106 136.516 82.1106C135.495 82.1106 134.667 82.9382 134.667 83.9592C134.667 84.9802 135.495 85.8078 136.516 85.8078Z" fill="#263238"/>
<path d="M248.469 302.882L185.53 314.262C151.686 319.925 111.282 321.5 52.7432 315.502L116.009 304.925C167.185 309.153 214.624 308.537 248.469 302.882Z" fill="#FFC727"/>
<path d="M252.393 323.443L184.86 334.558C207.808 330.72 231.77 324.121 248.727 315.775C342.795 270.294 382.349 112.765 382.887 111.267H458.64C458.079 112.765 449.156 138.567 411.38 210.514C388.019 253.274 353.489 284.77 311.985 305.199C295.012 313.56 275.34 319.605 252.393 323.443Z" fill="#FFC727"/>
<g opacity="0.3">
<path d="M252.393 323.443L184.86 334.558C207.808 330.72 231.77 324.121 248.727 315.775C342.795 270.294 382.349 112.765 382.887 111.267H458.64C458.079 112.765 449.156 138.567 411.38 210.514C388.019 253.274 353.489 284.77 311.985 305.199C295.012 313.56 275.34 319.605 252.393 323.443Z" fill="white"/>
</g>
<path d="M365.297 103.366L382.894 111.267C382.325 112.765 345.064 267.61 248.734 315.775C190.008 345.135 139.783 343.372 53.3828 336.235L52.7744 315.502C136.71 322.437 201.115 317.359 241.277 296.338C331.874 248.898 365.165 103.74 365.297 103.366Z" fill="#FFC727"/>
<g opacity="0.1">
<path d="M365.297 103.366L382.894 111.267C382.325 112.765 345.064 267.61 248.734 315.775C190.008 345.135 139.783 343.372 53.3828 336.235L52.7744 315.502C136.71 322.437 201.115 317.359 241.277 296.338C331.874 248.898 365.165 103.74 365.297 103.366Z" fill="black"/>
</g>
<path d="M365.297 103.366H446.924L458.624 111.267H382.894L365.297 103.366Z" fill="#FFC727"/>
<path d="M427.464 52.6267L480.543 119.964L355.454 119.629L427.464 52.6267Z" fill="#FFC727"/>
<g opacity="0.3">
<path d="M427.464 52.6267L480.543 119.964L355.454 119.629L427.464 52.6267Z" fill="white"/>
</g>
<path d="M355.454 119.629L333.941 103.124L405.951 36.1218L427.463 52.6266L355.454 119.629Z" fill="#FFC727"/>
<g opacity="0.1">
<path d="M355.454 119.629L333.941 103.124L405.951 36.1218L427.463 52.6266L355.454 119.629Z" fill="black"/>
</g>
<path d="M389.703 338.224C391.263 338.731 435.723 338.153 437.385 337.054C438.024 336.648 438.321 330.166 438.453 322.327V322.078C438.453 320.463 434.35 293.366 434.35 293.366L404.617 293.662L409.773 322.132V322.616C409.773 322.616 392.854 330.416 391.138 331.851C389.422 333.286 388.143 337.74 389.703 338.224Z" fill="#AD6359"/>
<path d="M389.694 338.224C390.474 338.481 402.572 338.45 414.374 338.224C416.714 338.177 419.108 338.122 421.394 338.06C429.81 337.826 436.76 337.483 437.407 337.061C438.054 336.64 438.343 330.353 438.468 322.663C438.468 322.553 438.468 322.444 438.468 322.335C438.468 322.226 438.468 322.163 438.468 322.085L409.818 322.14V322.624C409.818 322.624 392.9 330.424 391.192 331.851C389.484 333.278 388.142 337.74 389.694 338.224Z" fill="#A6A6A6"/>
<path d="M390.186 336.492C397.674 336.211 427.907 335.79 435.333 336.079C435.395 336.079 435.395 336.126 435.333 336.126C427.915 336.57 397.674 336.75 390.186 336.617C389.999 336.617 389.999 336.5 390.186 336.492Z" fill="#263238"/>
<path d="M406.582 322.257C409.522 321.664 413.134 322.07 415.419 324.145C415.505 324.223 415.419 324.348 415.294 324.316C412.463 323.448 409.548 322.883 406.598 322.632C406.548 322.634 406.499 322.616 406.463 322.582C406.426 322.549 406.405 322.502 406.403 322.452C406.4 322.403 406.418 322.354 406.452 322.318C406.485 322.281 406.532 322.259 406.582 322.257Z" fill="#263238"/>
<path d="M404.476 323.567C407.417 322.975 411.028 323.38 413.306 325.455C413.392 325.533 413.306 325.658 413.181 325.627C410.352 324.759 407.44 324.191 404.492 323.934C404.449 323.927 404.41 323.906 404.381 323.874C404.353 323.842 404.336 323.8 404.334 323.757C404.332 323.714 404.345 323.672 404.371 323.637C404.397 323.602 404.434 323.578 404.476 323.567Z" fill="#263238"/>
<path d="M402.362 324.878C405.303 324.285 408.914 324.691 411.192 326.765C411.285 326.843 411.192 326.968 411.075 326.937C408.243 326.075 405.328 325.513 402.378 325.26C402.327 325.262 402.278 325.244 402.24 325.21C402.203 325.175 402.181 325.127 402.179 325.077C402.177 325.026 402.195 324.977 402.229 324.939C402.264 324.902 402.311 324.88 402.362 324.878Z" fill="#263238"/>
<path d="M409.187 322.234H439.397C439.397 322.234 429.257 258.578 429.53 257.275C429.662 256.604 468.584 187.746 468.584 187.746H434.459C434.459 187.746 402.846 236.995 398.509 249.366C395.334 258.414 409.187 322.234 409.187 322.234Z" fill="#263238"/>
<path d="M408.454 316.368C410.279 316.22 412.097 316.072 413.914 315.994C415.731 315.916 417.549 315.892 419.374 315.853C423.009 315.775 426.644 315.728 430.294 315.682C431.331 315.682 432.369 315.682 433.414 315.682C434.459 315.682 435.504 315.791 436.534 315.682C436.612 315.682 436.612 315.799 436.534 315.799C435.621 315.799 434.709 315.994 433.804 316.056C432.899 316.118 431.987 316.212 431.074 316.274C429.257 316.391 427.439 316.477 425.614 316.555C421.979 316.711 418.344 316.75 414.694 316.774C412.611 316.774 410.544 316.625 408.454 316.477C408.44 316.463 408.432 316.443 408.432 316.423C408.432 316.402 408.44 316.383 408.454 316.368Z" fill="#455A64"/>
<path d="M425.426 254.717C426.02 252.834 426.89 251.049 428.008 249.421C430.291 245.645 432.571 241.87 434.849 238.095C439.472 230.441 444.118 222.799 448.787 215.171C451.127 211.396 453.467 207.636 455.753 203.869C457.898 200.39 462.773 191.085 463.319 190.188C463.319 190.117 463.467 190.149 463.428 190.188C461.868 193.464 459.817 197.559 457.898 200.975C455.784 204.727 453.522 208.4 451.33 212.106C446.83 219.726 442.259 227.261 437.696 234.78C435.397 238.592 433.091 242.401 430.777 246.207C429.67 248.032 428.523 249.85 427.454 251.667C426.357 253.435 425.779 255.476 425.785 257.556C425.906 259.733 426.14 261.901 426.487 264.054C426.776 266.23 427.057 268.398 427.353 270.574C427.941 274.922 428.552 279.261 429.186 283.592C430.455 292.313 431.778 301.023 433.156 309.722C433.328 310.807 433.507 311.883 433.679 312.967C433.679 313.069 433.538 313.108 433.523 313.006C431.963 304.302 430.45 295.597 429.131 286.853C427.813 278.109 426.612 269.342 425.45 260.575C425.079 258.64 425.071 256.654 425.426 254.717Z" fill="#455A64"/>
<path d="M534.775 340.642C533.215 341.125 488.755 340.096 487.11 338.98C486.47 338.567 486.244 332.085 486.197 324.238V323.997C486.197 322.382 474.419 295.222 474.419 295.222L503.466 295.815L514.87 324.34V324.831C514.87 324.831 531.702 332.826 533.41 334.246C535.119 335.665 536.343 340.158 534.775 340.642Z" fill="#AD6359"/>
<path d="M534.775 340.642C533.215 341.125 488.755 340.096 487.11 338.98C486.47 338.567 486.244 332.085 486.197 324.238V323.997C486.197 323.997 484.208 318.537 484.2 318.326L512.881 318.833L514.87 324.34V324.831C514.87 324.831 531.702 332.826 533.41 334.246C535.119 335.665 536.343 340.158 534.775 340.642Z" fill="#EBEBEB"/>
<path d="M534.775 340.642C533.215 341.125 488.755 340.096 487.109 338.98C486.469 338.567 486.243 332.085 486.196 324.238V323.997L514.869 324.34V324.831C514.869 324.831 531.701 332.826 533.41 334.246C535.118 335.665 536.342 340.158 534.775 340.642Z" fill="#A6A6A6"/>
<path d="M534.3 338.902C526.812 338.543 496.587 337.81 489.153 338.029C489.099 338.029 489.099 338.068 489.153 338.075C496.571 338.59 526.804 339.082 534.3 339.027C534.471 339.027 534.471 338.91 534.3 338.902Z" fill="#263238"/>
<path d="M518.059 324.48C515.127 323.864 511.508 324.23 509.207 326.282C509.121 326.36 509.206 326.485 509.331 326.454C512.168 325.613 515.086 325.077 518.036 324.855C518.086 324.858 518.135 324.841 518.172 324.808C518.209 324.775 518.232 324.729 518.235 324.679C518.238 324.629 518.221 324.581 518.188 324.543C518.156 324.506 518.109 324.483 518.059 324.48Z" fill="#263238"/>
<path d="M520.158 325.829C517.225 325.213 513.606 325.58 511.305 327.623C511.219 327.709 511.305 327.834 511.43 327.803C514.266 326.958 517.184 326.422 520.135 326.204C520.184 326.207 520.233 326.19 520.271 326.157C520.308 326.124 520.33 326.078 520.334 326.028C520.337 325.979 520.32 325.93 520.287 325.893C520.254 325.855 520.208 325.833 520.158 325.829Z" fill="#263238"/>
<path d="M522.256 327.163C519.323 326.539 515.704 326.914 513.403 328.957C513.317 329.035 513.403 329.16 513.528 329.137C516.364 328.294 519.282 327.755 522.232 327.53C522.275 327.524 522.315 327.504 522.345 327.472C522.374 327.441 522.392 327.4 522.395 327.356C522.398 327.313 522.385 327.27 522.36 327.235C522.334 327.2 522.298 327.174 522.256 327.163Z" fill="#263238"/>
<path d="M438.024 187.746C438.024 187.746 442.119 212.706 442.392 213.486C442.392 213.486 443.952 214.211 446.659 215.475L479.801 324.722L516.461 324.847L472.953 187.746H438.024Z" fill="#263238"/>
<path d="M441.066 212.722C444.248 214.051 447.31 215.653 450.215 217.511C450.234 217.527 450.246 217.549 450.251 217.574C450.255 217.598 450.251 217.623 450.239 217.645C450.228 217.667 450.209 217.684 450.186 217.693C450.163 217.703 450.138 217.705 450.114 217.698C446.994 216.201 443.874 214.758 440.879 213.088C440.83 213.064 440.793 213.02 440.777 212.968C440.76 212.917 440.764 212.86 440.789 212.811C440.814 212.763 440.857 212.726 440.909 212.709C440.961 212.692 441.017 212.697 441.066 212.722Z" fill="#455A64"/>
<path d="M442.26 198.432C442.759 201.419 443.04 204.446 443.375 207.457C443.461 208.174 443.547 208.9 443.625 209.617C443.644 210.283 443.821 210.935 444.14 211.52C444.787 212.527 445.949 212.995 447.002 213.455C447.127 213.509 447.08 213.704 446.94 213.658C445.808 213.383 444.763 212.83 443.898 212.051C442.939 211.037 442.97 209.5 442.822 208.19C442.397 204.959 442.162 201.706 442.12 198.448C442.118 198.429 442.123 198.41 442.135 198.396C442.146 198.381 442.163 198.372 442.182 198.37C442.201 198.368 442.219 198.373 442.234 198.385C442.249 198.396 442.258 198.413 442.26 198.432Z" fill="#455A64"/>
<path d="M445.871 199.345C445.98 201.497 446.214 203.65 446.394 205.795C446.487 206.848 446.557 207.909 446.628 208.97C446.698 210.031 446.815 211.154 446.784 212.238C446.779 212.252 446.77 212.264 446.758 212.272C446.746 212.281 446.732 212.285 446.717 212.285C446.703 212.285 446.688 212.281 446.677 212.272C446.665 212.264 446.656 212.252 446.651 212.238C446.472 211.216 446.448 210.155 446.362 209.118C446.277 208.081 446.199 206.942 446.144 205.858C446.019 203.681 445.957 201.497 445.762 199.329C445.764 199.315 445.772 199.302 445.783 199.293C445.795 199.284 445.81 199.28 445.824 199.282C445.839 199.284 445.852 199.292 445.86 199.304C445.869 199.316 445.873 199.33 445.871 199.345Z" fill="#455A64"/>
<path d="M450.559 220.061C453.102 226.255 480.246 315.042 480.542 315.814C480.542 315.877 480.464 315.916 480.433 315.853C476.806 308.755 453.632 228.657 451.323 222.417L450.458 220.077C450.434 220.046 450.536 220.007 450.559 220.061Z" fill="#455A64"/>
<path d="M479.528 318.576C480.589 318.427 481.688 318.435 482.757 318.357C483.826 318.279 484.91 318.264 485.986 318.24C488.139 318.193 490.292 318.16 492.445 318.139C496.719 318.084 501.025 318.069 505.268 318.069C507.709 318.069 510.143 318.201 512.584 318.248C512.662 318.248 512.662 318.365 512.584 318.373C510.439 318.459 508.286 318.591 506.134 318.669C503.981 318.747 501.828 318.763 499.675 318.794C495.338 318.856 491.002 318.927 486.665 318.919C485.456 318.919 484.255 318.919 483.053 318.872C481.852 318.825 480.713 318.872 479.52 318.7C479.442 318.693 479.465 318.583 479.528 318.576Z" fill="#455A64"/>
<path d="M442.602 150.15C435.309 144.971 424.311 132.374 422.135 127.405C419.343 121.017 414.421 98.9586 416.636 96.3846C417.861 94.965 433.796 97.071 434.685 98.8494C435.574 100.628 436.027 120.05 436.245 121.524C436.464 122.998 443.764 136.937 447.836 143.575C452.641 151.32 447.352 153.52 442.602 150.15Z" fill="#AD6359"/>
<path d="M416.893 101.626C416.188 100.334 415.914 98.8498 416.113 97.3909C416.558 95.0509 418.149 92.5783 417.673 91.1509C416.964 88.9123 414.803 85.3165 415.653 84.5053C417.393 82.8283 419.553 83.9827 422.08 88.1011C422.736 89.1697 423.703 91.8763 424.506 92.0011C425.918 92.2429 426.511 89.7703 426.675 87.5083C426.994 83.1325 426.573 76.7209 429.467 75.8941C430.559 75.5743 431.082 77.1655 431.316 79.1311C431.425 76.2763 431.854 73.4527 433.055 73.0549C433.365 72.9634 433.699 72.9931 433.988 73.1378C434.278 73.2826 434.502 73.5317 434.615 73.8349C434.675 73.4866 434.842 73.1659 435.094 72.9181C435.346 72.6704 435.67 72.5081 436.019 72.4543C437.142 72.2671 437.93 73.2343 438.468 74.6773C438.564 74.5662 438.684 74.4793 438.82 74.4237C438.955 74.3682 439.102 74.3455 439.248 74.3575C442.282 74.4121 443.601 85.3867 442.54 88.1479C440.315 93.5788 437.354 98.6783 433.741 103.303C429.662 104.52 416.893 101.634 416.893 101.626Z" fill="#AD6359"/>
<path d="M430.91 91.8763C431.804 90.0407 432.279 88.029 432.299 85.9873C432.299 83.5927 431.651 81.2527 431.409 78.8737C431.409 78.8113 431.3 78.8269 431.308 78.8737C431.48 80.0281 431.534 81.2137 431.659 82.3759C431.784 83.5381 431.94 84.6535 431.987 85.7923C432.078 87.8701 431.699 89.9417 430.879 91.8529C430.879 91.8529 430.902 91.8997 430.91 91.8763Z" fill="#263238"/>
<path d="M434.763 92.6018C435.602 90.4345 436.217 88.1867 436.596 85.8938C436.916 83.3744 436.362 80.855 435.816 78.398C435.504 76.9238 435.169 75.4574 434.794 73.9988C434.794 73.9364 434.677 73.9442 434.693 73.9988C435.239 76.5026 435.715 79.0298 436.105 81.5726C436.484 83.9274 436.396 86.3338 435.847 88.655C435.527 89.9732 435.067 91.2758 434.693 92.555C434.724 92.6096 434.755 92.6252 434.763 92.6018Z" fill="#263238"/>
<path d="M438.702 92.4145C439.637 90.5201 440.221 88.472 440.426 86.3695C440.461 83.7905 440.173 81.2173 439.568 78.7099C439.264 77.3527 438.921 76.0111 438.554 74.6695C438.554 74.6149 438.445 74.6695 438.453 74.6695C439.21 77.6718 439.77 80.7203 440.13 83.7955C440.326 85.2582 440.292 86.7427 440.028 88.1947C439.703 89.6245 439.254 91.0234 438.687 92.3755C438.687 92.3755 438.694 92.4223 438.702 92.4145Z" fill="#263238"/>
<path d="M436.137 105.3L415.974 109.567C415.974 109.567 420.248 125.362 421.987 129.067C423.727 132.772 437.681 148.684 443.118 151.538C448.554 154.393 452.15 151.468 448.749 144.175C445.348 136.882 437.915 122.967 437.447 121.415C436.979 119.863 436.137 105.3 436.137 105.3Z" fill="#455A64"/>
<path d="M447.54 149.869C447.075 150.215 446.651 150.612 446.276 151.055C446.802 150.816 447.3 150.517 447.758 150.166C448.223 149.822 448.644 149.424 449.014 148.98C448.491 149.221 447.997 149.519 447.54 149.869ZM442.86 141.851C442.466 142.936 442.306 144.092 442.392 145.244C442.786 144.159 442.945 143.002 442.86 141.851ZM422.845 121.501C422.502 121.035 422.107 120.611 421.667 120.237C421.9 120.766 422.199 121.264 422.556 121.719C422.897 122.183 423.293 122.605 423.734 122.975C423.498 122.453 423.205 121.958 422.861 121.501H422.845ZM419.124 108.88L418.742 108.958C419.08 109.42 419.473 109.839 419.912 110.206C419.705 109.737 419.446 109.292 419.14 108.88H419.124ZM437.306 137.218C436.964 136.752 436.568 136.328 436.128 135.954C436.362 136.483 436.66 136.981 437.018 137.436C437.358 137.9 437.754 138.322 438.195 138.692C437.959 138.17 437.666 137.675 437.322 137.218H437.306ZM433.11 123.279C432.645 123.62 432.224 124.015 431.854 124.457C432.378 124.219 432.873 123.92 433.328 123.568C433.793 123.227 434.214 122.831 434.584 122.39C434.065 122.629 433.576 122.927 433.125 123.279H433.11ZM429.561 106.673L429.444 106.805L429.857 106.61L429.561 106.673ZM439.475 128.7C438.904 128.615 438.326 128.597 437.751 128.645C438.836 129.039 439.992 129.199 441.144 129.113C440.605 128.912 440.045 128.773 439.475 128.7ZM425.528 113.537C424.958 113.452 424.379 113.434 423.804 113.482C424.888 113.884 426.045 114.046 427.197 113.958C426.659 113.754 426.099 113.613 425.528 113.537ZM427.868 128.895C427.474 129.98 427.315 131.137 427.4 132.288C427.794 131.203 427.954 130.046 427.868 128.895ZM435.738 111.01C435.338 112.096 435.176 113.256 435.263 114.41C435.653 113.321 435.815 112.164 435.738 111.01Z" fill="white"/>
<path d="M435.286 110.932C432.439 111.712 420.669 114.317 418.126 114.715C417.946 114.715 417.892 114.637 418.071 114.59C423.72 113.016 429.451 111.755 435.239 110.815C435.247 110.812 435.255 110.81 435.263 110.81C435.272 110.81 435.28 110.812 435.287 110.815C435.295 110.819 435.302 110.823 435.308 110.829C435.313 110.835 435.318 110.842 435.321 110.85C435.324 110.858 435.326 110.866 435.325 110.874C435.325 110.882 435.324 110.891 435.32 110.898C435.317 110.906 435.312 110.913 435.306 110.918C435.301 110.924 435.294 110.929 435.286 110.932Z" fill="#263238"/>
<path d="M443.117 151.484C439.217 149.44 430.972 140.689 425.957 134.535L445.574 137.655C446.783 140.041 447.914 142.335 448.756 144.152C452.149 151.414 448.561 154.347 443.117 151.484Z" fill="#263238"/>
<path d="M475.144 191.194C475.144 191.194 428.04 197.699 427.938 197.613C427.244 197.059 429.685 146.702 431.557 142.381C433.562 137.748 439.802 135.361 443.312 137.296C452.118 142.217 463.288 162.318 465.932 168.558C470.339 178.831 474.847 188.386 475.144 191.194Z" fill="#455A64"/>
<path d="M437.322 137.218C437.205 137.254 437.09 137.298 436.979 137.35L437.049 137.452C437.39 137.916 437.785 138.338 438.227 138.708C437.982 138.179 437.678 137.679 437.322 137.218ZM436.199 186.748C435.798 187.834 435.636 188.994 435.723 190.149C436.114 189.06 436.276 187.902 436.199 186.748ZM452.579 155.267C452.178 156.353 452.016 157.513 452.103 158.668C452.494 157.579 452.656 156.421 452.579 155.267ZM442.907 141.851C442.513 142.936 442.354 144.093 442.439 145.244C442.833 144.159 442.992 143.002 442.907 141.851ZM455.293 193.791C455.272 193.839 455.254 193.889 455.239 193.939H455.301C455.293 193.889 455.28 193.839 455.262 193.791H455.293ZM444.678 173.16C444.284 174.245 444.124 175.402 444.21 176.553C444.603 175.468 444.763 174.312 444.678 173.16ZM432.198 159.12C431.804 160.208 431.645 161.367 431.73 162.521C432.123 161.433 432.282 160.274 432.198 159.12ZM464.037 176.062C463.828 176.601 463.687 177.165 463.616 177.739C463.531 178.309 463.513 178.888 463.561 179.463C463.764 178.922 463.903 178.359 463.975 177.786C464.069 177.213 464.093 176.632 464.045 176.054L464.037 176.062ZM455.824 150.79C455.621 150.778 455.418 150.778 455.215 150.79C455.47 150.89 455.73 150.973 455.995 151.039L455.824 150.79ZM442.338 157.81C441.767 157.725 441.189 157.707 440.614 157.755C441.697 158.157 442.855 158.319 444.007 158.231C443.472 158.019 442.914 157.87 442.345 157.786L442.338 157.81ZM456.339 172.63C455.768 172.545 455.19 172.527 454.615 172.575C455.7 172.969 456.856 173.129 458.008 173.043C457.473 172.831 456.915 172.682 456.346 172.599L456.339 172.63ZM429.951 169.947C429.594 169.898 429.235 169.869 428.875 169.861C428.875 169.939 428.875 170.017 428.875 170.095C429.219 170.184 429.568 170.254 429.92 170.305C430.491 170.39 431.069 170.408 431.644 170.36C431.102 170.146 430.536 169.997 429.959 169.915L429.951 169.947ZM458.64 189.057C458.069 188.972 457.491 188.954 456.916 189.002C458.004 189.395 459.163 189.555 460.317 189.47C459.775 189.269 459.212 189.131 458.64 189.057ZM444.038 184.439C443.467 184.354 442.889 184.336 442.314 184.384C443.402 184.778 444.561 184.937 445.715 184.852C445.176 184.652 444.616 184.513 444.046 184.439H444.038ZM429.436 183.035C429.025 182.983 428.611 182.954 428.196 182.949C428.192 183.014 428.192 183.079 428.196 183.144C428.588 183.254 428.987 183.338 429.39 183.394C429.96 183.482 430.539 183.501 431.113 183.448C430.575 183.247 430.015 183.108 429.444 183.035H429.436ZM447.532 149.869C447.067 150.215 446.643 150.613 446.269 151.055C446.795 150.816 447.292 150.517 447.751 150.166C448.215 149.822 448.637 149.424 449.007 148.98C448.487 149.222 447.995 149.52 447.54 149.869H447.532ZM463.959 168.652C463.495 168.992 463.073 169.388 462.703 169.83C463.228 169.591 463.722 169.293 464.178 168.94C464.642 168.6 465.064 168.204 465.433 167.763C464.912 168.001 464.42 168.3 463.967 168.652H463.959ZM449.521 166.234C449.057 166.574 448.635 166.97 448.266 167.412C448.79 167.173 449.285 166.875 449.74 166.522C450.204 166.182 450.626 165.786 450.996 165.345C450.474 165.583 449.982 165.882 449.529 166.234H449.521ZM468.577 187.746C468.111 188.085 467.689 188.48 467.321 188.924C468.367 188.433 469.3 187.729 470.059 186.857C469.532 187.091 469.037 187.39 468.585 187.746H468.577ZM447.517 191.209C447.051 191.548 446.629 191.944 446.261 192.387C447.307 191.896 448.24 191.192 448.999 190.32C448.475 190.555 447.982 190.853 447.532 191.209H447.517ZM435.403 176.577C434.937 176.915 434.515 177.311 434.148 177.754C435.194 177.263 436.126 176.559 436.885 175.687C436.362 175.922 435.869 176.221 435.419 176.577H435.403ZM450.223 143.442C450.168 143.363 450.108 143.288 450.044 143.216C449.836 142.972 449.625 142.738 449.412 142.514C449.308 142.412 449.199 142.315 449.085 142.225C449.321 142.753 449.619 143.251 449.974 143.707C450.315 144.172 450.71 144.593 451.152 144.963C450.905 144.421 450.593 143.91 450.223 143.442ZM459.053 161.499C458.71 161.034 458.315 160.61 457.875 160.236C458.111 160.763 458.41 161.261 458.764 161.718C459.105 162.182 459.501 162.604 459.942 162.973C459.704 162.449 459.406 161.954 459.053 161.499ZM471.408 181.062C471.155 180.754 470.873 180.472 470.566 180.219C470.799 180.748 471.098 181.246 471.455 181.701C471.611 181.896 471.751 182.083 471.923 182.271L471.408 181.062ZM440.988 195C441.11 195.288 441.256 195.564 441.425 195.827L441.768 195.78C441.524 195.494 441.253 195.233 440.957 195H440.988ZM429.647 193.69C429.304 193.225 428.909 192.801 428.469 192.426C428.702 192.955 429.001 193.453 429.358 193.908C429.699 194.373 430.095 194.794 430.536 195.164C430.285 194.64 429.977 194.145 429.616 193.69H429.647ZM454.17 181.475C453.828 181.01 453.432 180.586 452.992 180.211C453.226 180.741 453.524 181.238 453.882 181.693C454.222 182.158 454.618 182.579 455.059 182.949C454.808 182.425 454.5 181.931 454.139 181.475H454.17ZM436.924 150.275C436.582 149.81 436.187 149.386 435.747 149.011C435.98 149.541 436.279 150.038 436.636 150.493C436.976 150.958 437.372 151.379 437.814 151.749C437.564 151.217 437.255 150.715 436.893 150.252L436.924 150.275ZM439.709 165.781C439.366 165.316 438.971 164.892 438.531 164.518C438.764 165.047 439.063 165.545 439.42 166C439.761 166.464 440.157 166.886 440.598 167.256C440.349 166.723 440.04 166.221 439.678 165.758L439.709 165.781Z" fill="white"/>
<path d="M433.75 144.69C435.957 145.057 441.643 140.697 442.642 137.179C442.704 136.937 441.862 134.745 440.957 132.039C440.419 130.393 439.857 128.552 439.459 126.828L429.272 131.914C430.377 133.924 431.234 136.061 431.823 138.279C431.874 138.517 431.902 138.76 431.909 139.004C431.905 139.043 431.905 139.082 431.909 139.121C432.01 140.509 431.207 144.3 433.75 144.69Z" fill="#AD6359"/>
<path d="M438.944 127.085C439.1 129.503 439.147 137.389 433.048 138.926C432.677 139.026 432.299 139.094 431.917 139.129C431.913 139.087 431.913 139.045 431.917 139.004C431.906 138.76 431.877 138.518 431.831 138.278C431.245 136.06 430.389 133.922 429.28 131.914L438.944 127.085Z" fill="#263238"/>
<path d="M429.296 109.325C429.296 109.325 425.396 109.996 423.836 113.49C422.276 116.985 422.276 121.002 422.564 121.29C422.853 121.579 429.296 109.325 429.296 109.325Z" fill="#263238"/>
<path d="M442.556 117.055C442.852 121.15 438.297 131.734 435.013 133.575C430.255 136.243 423.719 135.135 421.753 129.675C419.866 124.41 426.043 110.721 429.553 109.177C434.842 106.899 442.127 111.01 442.556 117.055Z" fill="#AD6359"/>
<path d="M429.701 121.742C429.701 121.742 429.74 121.797 429.701 121.828C429.366 122.53 429.093 123.388 429.631 123.903C429.631 123.903 429.631 123.958 429.631 123.942C428.898 123.482 429.264 122.351 429.701 121.742Z" fill="#263238"/>
<path d="M430.661 121.282C431.838 121.703 430.91 124.036 429.818 123.622C428.726 123.209 429.67 120.9 430.661 121.282Z" fill="#263238"/>
<path d="M425.715 119.995C425.715 119.995 425.645 119.995 425.637 119.995C425.372 120.721 424.943 121.555 424.194 121.493V121.54C425.029 121.782 425.583 120.729 425.715 119.995Z" fill="#263238"/>
<path d="M425.373 118.981C424.249 118.428 423.228 120.721 424.273 121.228C425.318 121.735 426.316 119.442 425.373 118.981Z" fill="#263238"/>
<path d="M432.556 119.441C432.213 119.371 431.901 119.254 431.566 119.153C431.203 119.102 430.869 118.932 430.614 118.669C430.551 118.572 430.521 118.457 430.53 118.342C430.538 118.226 430.584 118.116 430.661 118.03C430.841 117.878 431.058 117.778 431.291 117.741C431.523 117.704 431.761 117.731 431.979 117.819C432.449 117.924 432.861 118.202 433.133 118.599C433.185 118.692 433.21 118.797 433.206 118.903C433.201 119.009 433.167 119.112 433.107 119.2C433.047 119.287 432.963 119.356 432.866 119.399C432.769 119.442 432.661 119.456 432.556 119.441Z" fill="#263238"/>
<path d="M424.553 117.71C424.801 117.937 425.062 118.151 425.333 118.35C425.586 118.613 425.917 118.788 426.277 118.849C426.395 118.846 426.508 118.804 426.599 118.729C426.689 118.654 426.752 118.55 426.777 118.435C426.795 118.201 426.75 117.967 426.645 117.757C426.541 117.546 426.381 117.368 426.184 117.242C425.831 116.918 425.368 116.739 424.889 116.743C424.781 116.752 424.679 116.793 424.594 116.86C424.508 116.926 424.444 117.016 424.409 117.118C424.374 117.22 424.368 117.33 424.394 117.435C424.42 117.54 424.475 117.636 424.553 117.71Z" fill="#263238"/>
<path d="M428.313 128.115C428.082 128.265 427.806 128.329 427.533 128.295C427.266 128.184 427.026 128.016 426.831 127.803C426.831 127.803 426.784 127.803 426.784 127.803C426.829 127.993 426.926 128.166 427.064 128.304C427.202 128.441 427.375 128.538 427.564 128.583C427.726 128.601 427.89 128.571 428.035 128.498C428.18 128.424 428.301 128.311 428.383 128.17C428.387 128.161 428.387 128.15 428.384 128.141C428.381 128.132 428.376 128.123 428.368 128.117C428.36 128.111 428.351 128.108 428.341 128.107C428.331 128.107 428.321 128.11 428.313 128.115Z" fill="#263238"/>
<path d="M428.415 125.658C428.117 125.869 427.78 126.017 427.423 126.092C427.066 126.167 426.697 126.168 426.34 126.095C426.029 126.03 425.727 125.925 425.443 125.783C425.387 125.755 425.332 125.723 425.279 125.689L425.1 125.58C425.065 125.557 425.039 125.523 425.025 125.484C425.011 125.444 425.01 125.402 425.022 125.362V125.291V125.229C425.224 124.667 425.614 123.841 425.614 123.841C425.373 123.841 424.156 123.919 424.288 123.63C425.348 121.164 426.655 118.812 428.188 116.61C428.198 116.593 428.213 116.581 428.231 116.576C428.25 116.571 428.269 116.573 428.286 116.583C428.302 116.592 428.315 116.607 428.32 116.626C428.325 116.644 428.322 116.664 428.313 116.68C427.338 118.973 425.973 121.079 424.959 123.373C425.396 123.343 425.836 123.38 426.262 123.482C426.332 123.536 425.482 125.042 425.404 125.315C425.84 125.543 426.318 125.68 426.808 125.719C427.299 125.758 427.792 125.697 428.259 125.541C428.446 125.58 428.485 125.619 428.415 125.658Z" fill="#263238"/>
<path d="M425.88 125.627C426.018 126.144 426.286 126.617 426.66 127C426.877 127.198 427.149 127.326 427.44 127.366C428.072 127.444 428.298 126.922 428.376 126.43C428.407 126.171 428.407 125.909 428.376 125.65C427.562 125.907 426.688 125.899 425.88 125.627Z" fill="#263238"/>
<path d="M426.659 127C426.876 127.198 427.148 127.325 427.439 127.366C428.071 127.444 428.297 126.922 428.375 126.43C428.067 126.318 427.73 126.314 427.418 126.417C427.107 126.52 426.84 126.726 426.659 127Z" fill="#FF9CBD"/>
<path d="M438.967 126.532C437.673 126.438 437.688 122.421 437.829 120.931C437.961 119.621 439.03 115.713 439.076 115.471C439.123 115.23 432.719 116.829 430.122 114.832C427.525 112.835 426.589 109.458 427.002 108.21C427.415 106.962 432.283 105.269 435.496 106.33C438.71 107.391 441.409 113.038 441.409 113.038C441.122 112.253 440.898 111.447 440.738 110.628C441.243 110.965 441.657 111.423 441.942 111.959C442.228 112.495 442.377 113.093 442.376 113.701C442.376 113.701 442.68 111.727 442.844 111.751C443.008 111.774 443.99 113.95 443.171 114.988C443.171 114.988 444.388 117.281 443.881 119.083C443.374 120.885 440.496 126.641 438.967 126.532Z" fill="#263238"/>
<path d="M428.274 113.381C428.962 114.185 429.767 114.882 430.661 115.448C431.704 115.958 432.855 116.204 434.015 116.165C435.174 116.162 436.325 115.973 437.424 115.604C438.383 115.284 439.319 114.824 440.31 114.574C440.559 114.512 440.676 114.886 440.481 115.019C438.462 116.349 436.07 116.997 433.656 116.867C432.534 116.807 431.446 116.456 430.5 115.849C429.554 115.242 428.781 114.4 428.259 113.404C428.259 113.404 428.267 113.373 428.274 113.381Z" fill="#263238"/>
<path d="M438.14 125.658C438.14 125.658 441.518 122.717 442.906 124.012C444.295 125.307 441.136 129.987 439.069 130.252C438.804 130.302 438.531 130.298 438.268 130.239C438.005 130.181 437.756 130.07 437.537 129.912C437.318 129.754 437.134 129.554 436.995 129.323C436.856 129.092 436.765 128.835 436.729 128.567L438.14 125.658Z" fill="#AD6359"/>
<path d="M441.971 125.33V125.385C440.513 125.588 439.506 126.649 438.695 127.803C438.805 127.689 438.939 127.601 439.087 127.544C439.235 127.487 439.393 127.463 439.551 127.473C439.709 127.483 439.863 127.528 440.002 127.604C440.141 127.68 440.262 127.785 440.357 127.912C440.357 127.912 440.357 127.99 440.302 127.975C440.088 127.841 439.838 127.777 439.586 127.792C439.335 127.808 439.094 127.901 438.898 128.06C438.567 128.323 438.269 128.624 438.009 128.957C437.915 129.059 437.72 128.957 437.798 128.817C438.196 127.085 440.107 125.05 441.971 125.33Z" fill="#263238"/>
<path d="M433.96 153.332C424.522 151.492 406.161 143.364 403.298 141.258C397.3 136.835 385.101 115.183 386.138 111.719C386.716 109.808 403.111 109.192 404.788 110.518C406.465 111.844 413.711 128.068 414.601 129.386C415.49 130.705 434.007 143.2 438.071 146.757C445.426 153.2 440.099 154.534 433.96 153.332Z" fill="#AD6359"/>
<path d="M403.665 116.478C403.665 116.478 407.128 110.292 409.203 106.135C410.358 103.795 411.988 99.6686 412.058 97.5548C412.167 94.4348 410.615 81.2762 407.417 81.5804C404.523 81.8612 407.292 92.9918 407.292 92.9918C407.292 92.9918 405.49 81.5102 402.066 82.4852C398.642 83.4602 403.447 95.6204 403.447 95.6204C403.447 95.6204 401.333 83.8736 397.987 85.4336C395.436 86.6192 399.165 97.9136 399.165 97.9136C399.165 97.9136 397.277 87.8282 394.602 88.928C391.653 90.1526 394.438 100.761 394.438 100.761C388.12 104.707 385.585 107.476 386.115 112.461C386.178 113.256 403.665 116.478 403.665 116.478Z" fill="#AD6359"/>
<path d="M408.478 97.9057C408.314 96.5485 408.158 95.1757 407.877 93.8419C407.596 92.5081 407.269 91.1743 406.863 89.8717C406.371 88.1563 405.685 86.5024 404.819 84.9421C406.002 87.847 406.913 90.855 407.542 93.9277C407.822 95.2615 408.166 96.5875 408.454 97.9213C408.439 97.9525 408.485 97.9369 408.478 97.9057Z" fill="#263238"/>
<path d="M403.673 99.0134C403.392 97.2896 403.173 95.5736 402.815 93.8654C402.456 92.1572 401.871 89.7938 401.403 88.1168C401.403 87.992 401.161 87.9842 401.192 88.1168C401.598 89.8094 402.081 92.2508 402.471 93.9434C402.861 95.636 403.306 97.3208 403.634 99.0212C403.634 99.0602 403.673 99.0602 403.673 99.0134Z" fill="#263238"/>
<path d="M399.718 100.706C399.35 98.0464 398.707 95.4324 397.799 92.9058C397.76 92.781 397.69 92.9058 397.729 92.9994C398.416 95.5734 398.969 97.5858 399.625 100.698C399.632 100.768 399.718 100.76 399.718 100.706Z" fill="#263238"/>
<path d="M388.042 119.465L409.453 117.265C409.453 117.265 413.907 127.577 414.796 128.809C415.685 130.042 435.755 143.271 439.756 146.593C443.757 149.916 443.063 156.086 434.452 154.393C427.019 152.935 406.918 144.604 403.127 142.062C399.336 139.519 388.042 119.465 388.042 119.465Z" fill="#455A64"/>
<path d="M436.893 150.252C436.55 149.786 436.155 149.362 435.715 148.988C435.948 149.517 436.247 150.015 436.604 150.47C436.945 150.934 437.34 151.356 437.782 151.726C437.541 151.203 437.242 150.709 436.893 150.252ZM428.313 149.877C427.848 150.218 427.427 150.613 427.057 151.055C427.581 150.817 428.076 150.518 428.531 150.166C428.993 149.822 429.412 149.424 429.779 148.98C429.26 149.222 428.77 149.523 428.32 149.877H428.313ZM429.233 141.406C428.662 141.322 428.084 141.303 427.509 141.352C428.593 141.753 429.75 141.915 430.902 141.828C430.366 141.624 429.809 141.483 429.241 141.406H429.233ZM421.589 145.306C421.196 146.394 421.036 147.553 421.121 148.707C421.514 147.619 421.674 146.46 421.589 145.306ZM394.788 122.226C394.446 121.761 394.05 121.337 393.61 120.963C393.844 121.492 394.142 121.99 394.5 122.445C394.84 122.909 395.236 123.331 395.677 123.7C395.436 123.178 395.138 122.683 394.788 122.226ZM416.948 132.998C416.605 132.533 416.21 132.109 415.77 131.734C416.006 132.262 416.305 132.76 416.659 133.216C417 133.681 417.396 134.102 417.837 134.472C417.599 133.948 417.301 133.453 416.948 132.998ZM407.424 135.72C406.96 136.061 406.538 136.456 406.168 136.898C406.693 136.66 407.187 136.361 407.643 136.009C408.107 135.668 408.529 135.273 408.898 134.831C408.374 135.069 407.879 135.367 407.424 135.72ZM421.862 138.138C421.398 138.479 420.976 138.874 420.606 139.316C421.13 139.078 421.625 138.779 422.08 138.427C422.545 138.086 422.966 137.691 423.336 137.249C422.811 137.489 422.317 137.791 421.862 138.146V138.138ZM405.435 119.34C404.97 119.686 404.546 120.083 404.172 120.526C404.698 120.286 405.195 119.988 405.654 119.637C406.118 119.293 406.54 118.895 406.909 118.451C406.387 118.692 405.892 118.99 405.435 119.34ZM413.149 142.327C412.579 142.242 412 142.224 411.426 142.272C412.511 142.666 413.667 142.825 414.819 142.74C414.279 142.546 413.719 142.416 413.149 142.35V142.327ZM400.825 128.864C400.255 128.779 399.676 128.761 399.102 128.809C400.185 129.211 401.342 129.373 402.495 129.285C401.955 129.089 401.395 128.956 400.825 128.887V128.864ZM405.03 141.828C404.89 142.192 404.783 142.568 404.71 142.951L405.022 143.115C405.066 142.695 405.068 142.271 405.03 141.851V141.828ZM410.443 124.8C410.042 125.886 409.88 127.046 409.967 128.201C410.358 127.112 410.52 125.954 410.443 124.8Z" fill="white"/>
<path d="M392.495 124.511C395.436 124.285 407.425 122.951 409.991 122.476C410.17 122.476 410.194 122.327 409.991 122.335C404.12 122.698 398.274 123.385 392.48 124.394C392.468 124.4 392.459 124.41 392.453 124.421C392.447 124.433 392.444 124.446 392.446 124.459C392.448 124.471 392.453 124.483 392.462 124.493C392.471 124.502 392.483 124.509 392.495 124.511Z" fill="#263238"/>
<path d="M438.492 156.406C436.719 155.802 434.996 155.064 433.336 154.198C431.664 153.366 430.046 152.428 428.492 151.39C430.237 152.05 431.943 152.807 433.601 153.66C434.428 154.089 435.255 154.518 436.066 154.971C436.877 155.423 437.688 155.922 438.492 156.406Z" fill="#263238"/>
<path d="M433.289 153.847C432.69 153.805 432.098 153.69 431.527 153.504C430.951 153.329 430.398 153.085 429.881 152.779C430.481 152.823 431.073 152.941 431.644 153.13C432.218 153.304 432.771 153.545 433.289 153.847Z" fill="#263238"/>
<path d="M439.755 146.593C438.912 146.122 438.127 145.554 437.415 144.901C436.694 144.271 436.05 143.559 435.496 142.779C436.339 143.251 437.124 143.819 437.836 144.472C438.557 145.101 439.201 145.813 439.755 146.593Z" fill="#263238"/>
</svg>
