<svg width="500" height="500" viewBox="0 0 500 500" fill="none" xmlns="http://www.w3.org/2000/svg">
<path d="M130.87 259.88L43.2598 259.75C43.2598 259.75 47.6198 254.08 52.4298 253.38C52.4298 253.38 61.8098 225.59 77.4298 225.38C91.9598 225.22 97.7598 242.52 97.7598 242.52C97.7598 242.52 104.51 234.77 110.94 238.33C117.37 241.89 121 252.07 121 252.07C121 252.07 128.25 256 130.87 259.88Z" fill="#EBEBEB"/>
<path d="M346 123.4L456.79 123.57C456.79 123.57 456.79 116.49 441.54 115.08C441.54 115.08 427.65 84.0798 406.37 88.2398C393.07 90.8098 386.27 109 386.27 109C386.27 109 376.27 94.6698 368.27 97.4298C360.27 100.19 355.48 115.43 355.48 115.43C355.48 115.43 347.21 119.4 346 123.4Z" fill="#EBEBEB"/>
<path d="M102.48 357.83L213.27 358C213.27 358 213.27 350.92 198.02 349.51C198.02 349.51 184.13 318.51 162.85 322.67C149.6 325.24 142.85 343.42 142.85 343.42C142.85 343.42 132.85 329.09 124.85 331.85C116.85 334.61 112.06 349.85 112.06 349.85C112.06 349.85 103.74 353.83 102.48 357.83Z" fill="#EBEBEB"/>
<path d="M157.879 90.6299L233.209 90.7499C233.209 90.7499 226.109 84.1199 222.949 84.1099C219.789 84.0999 210.609 61.8799 198.819 62.8099C187.029 63.7399 180.759 80.2699 180.759 80.2699C180.759 80.2699 166.439 75.7599 157.879 90.6299Z" fill="#EBEBEB"/>
<path d="M312.869 393.91L388.199 394.02C388.199 394.02 381.109 387.4 377.949 387.39C374.789 387.38 365.599 365.16 353.809 366.08C342.019 367 335.749 383.54 335.749 383.54C335.749 383.54 321.439 379 312.869 393.91Z" fill="#EBEBEB"/>
<path d="M332.66 256.62L397.08 256.72C397.08 256.72 393.88 252.54 390.35 252.02C390.35 252.02 383.52 231.56 372.02 231.39C361.33 231.24 357.02 243.95 357.02 243.95C357.02 243.95 352.08 238.24 347.34 240.84C342.6 243.44 339.92 250.9 339.92 250.9C339.92 250.9 334.59 253.75 332.66 256.62Z" fill="#EBEBEB"/>
<path d="M166.13 298.37C159.5 303.46 152.81 308.47 146.13 313.46L125.96 328.34L105.63 343L95.4302 350.28L85.1602 357.47L95.1602 349.88L105.16 342.38L125.33 327.5L145.64 312.81C152.46 308 159.26 303.13 166.13 298.37Z" fill="#263238"/>
<path d="M132.771 401.4C127.891 405.21 122.951 408.94 118.001 412.66C113.051 416.38 108.001 420.02 103.071 423.66C98.1415 427.3 93.0515 431 88.0015 434.57L80.4115 439.94C77.8715 441.69 75.3415 443.48 72.7715 445.22C75.2015 443.3 77.6815 441.43 80.1315 439.54L87.5515 434C92.5515 430.28 97.5515 426.64 102.481 422.95C107.411 419.26 112.481 415.68 117.551 412.09C122.621 408.5 127.651 404.88 132.771 401.4Z" fill="#263238"/>
<path d="M334.512 316.86C329.632 320.68 324.691 324.41 319.741 328.13C314.791 331.85 309.791 335.49 304.811 339.18C299.831 342.87 294.811 346.45 289.751 350.04L282.172 355.4C279.622 357.16 277.091 358.95 274.521 360.68C276.961 358.77 279.432 356.9 281.882 355.01L289.292 349.42C294.292 345.7 299.291 342.05 304.221 338.37C309.151 334.69 314.222 331.1 319.292 327.51C324.362 323.92 329.392 320.35 334.512 316.86Z" fill="#263238"/>
<path d="M419.101 189.34C414.221 193.16 409.281 196.89 404.331 200.6C399.381 204.31 394.331 207.97 389.401 211.65C384.471 215.33 379.401 218.93 374.331 222.51L366.751 227.88C364.201 229.64 361.681 231.42 359.111 233.16C361.541 231.24 364.011 229.38 366.461 227.48L373.881 221.89C378.831 218.18 383.831 214.53 388.811 210.89C393.791 207.25 398.811 203.61 403.871 200.02C408.931 196.43 414.001 192.82 419.101 189.34Z" fill="#263238"/>
<path d="M123.131 184.86C118.251 188.68 113.311 192.41 108.361 196.12C103.411 199.83 98.3606 203.49 93.4306 207.12C88.5006 210.75 83.4306 214.4 78.3706 217.98L70.7906 223.35C68.2406 225.11 65.7106 226.89 63.1406 228.63C65.5806 226.71 68.0506 224.85 70.5006 222.95L77.9106 217.36C82.9106 213.65 87.9106 210 92.8406 206.36C97.7706 202.72 102.841 199.08 107.911 195.5C112.981 191.92 118.001 188.34 123.131 184.86Z" fill="#263238"/>
<path d="M407.401 184.52C404.471 186.91 401.481 189.22 398.481 191.52C395.481 193.82 392.421 196.03 389.401 198.3C386.381 200.57 383.281 202.72 380.181 204.89L375.521 208.12C373.951 209.12 372.401 210.24 370.811 211.26C372.261 210.05 373.761 208.9 375.241 207.72L379.731 204.26C382.731 201.97 385.731 199.75 388.811 197.49C391.891 195.23 394.931 193.06 398.031 190.9C401.131 188.74 404.231 186.58 407.401 184.52Z" fill="#263238"/>
<path d="M118.67 175.92C115.75 178.31 112.75 180.62 109.75 182.92C106.75 185.22 103.75 187.44 100.67 189.7C97.5901 191.96 94.5501 194.13 91.4501 196.29L86.8001 199.52C85.2201 200.57 83.6701 201.64 82.0801 202.66C83.5401 201.46 85.0801 200.3 86.5101 199.12L91.0001 195.66C94.0001 193.37 97.0001 191.14 100.08 188.88C103.16 186.62 106.2 184.45 109.3 182.29C112.4 180.13 115.5 178 118.67 175.92Z" fill="#263238"/>
<path d="M165.631 280.81C160.751 284.62 155.811 288.35 150.861 292.07C145.911 295.79 140.861 299.43 135.931 303.12C131.001 306.81 125.931 310.39 120.871 313.98L113.291 319.35C110.741 321.11 108.211 322.89 105.641 324.63C108.081 322.71 110.551 320.84 113.001 318.95L120.411 313.36C125.411 309.64 130.411 306 135.341 302.31C140.271 298.62 145.341 295.04 150.411 291.45C155.481 287.86 160.511 284.29 165.631 280.81Z" fill="#263238"/>
<path d="M288.7 332.38L272.75 344.36L256.73 356.26L224.6 379.92L192.34 403.4L176.16 415.07L159.91 426.66L175.87 414.68L191.88 402.78L224.01 379.12L256.28 355.64L272.46 343.97L288.7 332.38Z" fill="#263238"/>
<path d="M342.56 143.77C334.81 151.1 326.74 161.2 316.15 164.38C307.84 166.85 298.95 164.69 291.32 161.09C274.56 153.16 258.32 135.82 263.32 115.82C265.32 107.82 275.39 98.0701 284.41 100.67C289.04 102.02 292.64 105.26 296.56 107.91C298.929 109.626 301.654 110.787 304.533 111.306C307.412 111.825 310.371 111.69 313.19 110.91C325.02 107.91 330.36 101.84 339.99 94.9101C340.895 94.1558 341.949 93.5997 343.082 93.2776C344.215 92.9556 345.404 92.8746 346.57 93.0401C349.285 93.2625 351.888 94.2201 354.1 95.8101C356.321 96.8757 358.242 98.4771 359.69 100.47C362.69 104.79 362.33 111.75 362.69 116.78C363.05 121.81 361.88 125.38 358.19 128.98C353 134 347.76 138.84 342.56 143.77Z" fill="#263238"/>
<path d="M339.619 148.05C346.289 140.87 352.819 133.58 359.389 126.32C359.389 126.32 359.389 126.21 359.329 126.25C353.749 132.07 348.089 137.8 342.579 143.69C337.069 149.58 331.999 155.77 326.129 161.05C312.919 172.9 295.519 163.8 286.319 151.81C285.899 151.27 285.079 152 285.519 152.53C293.929 162.81 307.719 171.84 321.249 165.44C328.659 162 334.159 153.91 339.619 148.05Z" fill="#263238"/>
<path d="M341.22 95C341.36 94.88 341.17 94.67 341.02 94.79C333.34 100.79 324.95 108.59 314.89 109.94C309.932 110.599 304.89 109.742 300.43 107.48C296.9 105.69 294.26 102.83 291.19 100.42C279.19 91 263.76 104.11 264.9 117.51C264.9 117.79 265.41 117.76 265.4 117.51C265.01 107.72 271.77 98.51 282.02 97.95C290.25 97.48 295.019 106.12 302.109 108.95C316.909 114.88 330.68 104.46 341.22 95Z" fill="#263238"/>
<path d="M130.24 113.87C133.03 109.03 201.47 114.38 259.51 120.31H259.56C285.75 122.99 311.15 123.48 326.88 126.13C336.88 127.81 341.88 132.13 342.88 133.64C346.22 138.76 351.62 154.54 322.65 170.36C300.75 182.36 276.01 192.43 256.22 212.36C236.43 232.29 223.55 258.7 222.62 277.62C221.69 296.54 233.26 316.06 232.13 313.95C231.78 313.31 226.68 313.03 220.07 308.1C211.96 302.1 203.07 290.23 196.61 286.32C183.38 278.32 164.37 277.21 151.35 260.57C137.61 243 137 214.83 132.12 192C126.19 164.28 106.18 155.66 130.24 113.87Z" fill="#37474F"/>
<path d="M134.048 202.3C133.458 198.79 132.838 195.3 132.118 192C130.616 185.563 128.447 179.299 125.648 173.31C125.648 173.31 188.498 165.14 205.458 174.6C214.738 179.77 185.858 179 134.048 202.3Z" fill="#263238"/>
<path d="M206.54 295.2C202.93 291.46 199.54 288.08 196.6 286.31C193.192 284.343 189.622 282.671 185.93 281.31C192.77 256.38 199.23 239.36 211.53 229C219.41 222.35 196.8 263.11 206.54 295.2Z" fill="#263238"/>
<path d="M137.209 221.87C136.649 218.7 136.139 215.51 135.639 212.32C156.259 206.63 174.259 197.06 174.149 199.77C173.999 202.72 151.099 214.84 137.209 221.87Z" fill="#263238"/>
<path d="M105.709 167.4C105.709 167.4 102.999 141.72 123.599 113.54C125.599 110.8 156.109 101.73 175.729 102.34C195.349 102.95 209.469 110.4 232.169 116.43C254.869 122.46 317.169 122.08 331.599 126.96C341.549 130.31 342.839 133.66 342.839 133.66C342.839 133.66 331.349 128.52 324.159 127.81C295.749 125.01 243.689 134.23 230.499 132.52C214.409 130.42 196.629 126.9 183.189 128.52C168.129 130.36 115.329 159.22 105.709 167.4Z" fill="#455A64"/>
<path d="M331.82 187.86C330.53 194.997 327.911 201.829 324.1 208C307.49 234.75 273.05 278.49 265.2 290.69C250.92 312.94 183.6 358 183.6 358L162.6 325.37C162.6 325.37 227.01 268.05 227.83 266.56C232.5 258.1 269.59 203.83 269.69 202.09C270.59 184.29 286 169 286 169L331.82 187.86Z" fill="#263238"/>
<path d="M331.81 187.86C330.658 194.345 328.398 200.582 325.13 206.3C303.35 207.73 278.05 201.91 269.84 199.83C271.88 183 286 169 286 169L331.81 187.86Z" fill="#455A64"/>
<path d="M152.43 405.78C150.78 404.13 130.26 345.37 130.55 342.53C130.55 342.04 137.89 338.97 149.87 334.25C150.7 333.92 210.03 281.47 210.03 281.47L238.3 320.88L164.07 371.7C164.07 371.7 160.21 396.7 159.55 399.77C158.89 402.84 154.08 407.43 152.43 405.78Z" fill="#FFC727"/>
<path opacity="0.3" d="M238.3 320.88L228.09 327.88L200.42 290L210.03 281.51L238.3 320.88Z" fill="white"/>
<path opacity="0.1" d="M238.309 320.88L203.479 344.71L203.689 287.08C207.589 283.63 210.039 281.48 210.039 281.48L238.309 320.88Z" fill="black"/>
<path opacity="0.1" d="M271.18 206.77C268.473 211.717 265.65 216.593 262.71 221.4C259.8 226.22 256.79 230.98 253.76 235.73C250.73 240.48 247.61 245.16 244.42 249.8C241.23 254.44 238 259.06 234.51 263.51L238.76 256.2C240.2 253.77 241.64 251.35 243.11 248.95C246.03 244.14 249.05 239.39 252.11 234.65C255.17 229.91 258.26 225.21 261.43 220.56C264.6 215.91 267.82 211.3 271.18 206.77Z" fill="white"/>
<path d="M250.689 311.39L245.539 273C245.539 273 306.389 254.95 307.949 251.49C308.569 250.14 269.119 224.21 269.509 195.17C269.709 180.67 285.769 169.01 285.769 169.01L322.369 184.31C322.369 184.31 317.139 197.07 318.749 199.22C322.239 203.9 368.149 240.22 365.569 263.03C362.889 286.67 250.689 311.39 250.689 311.39Z" fill="#263238"/>
<path d="M318.75 199.2C302.01 193.48 283.22 200.2 271.18 206.2C270.053 202.643 269.489 198.931 269.51 195.2C269.71 180.7 285.77 169.04 285.77 169.04L322.38 184.34C322.38 184.34 317.15 197 318.75 199.2Z" fill="#455A64"/>
<path d="M305.889 188.69C308.524 189.693 310.959 191.16 313.079 193.02C314.153 193.924 315.171 194.893 316.129 195.92C317.084 196.945 317.96 198.041 318.749 199.2C316.599 197.41 314.559 195.55 312.439 193.78C311.389 192.89 310.319 192.03 309.229 191.18C308.139 190.33 307.049 189.48 305.889 188.69Z" fill="#263238"/>
<path d="M312.549 190.72C313.366 191.024 314.119 191.479 314.769 192.06C315.429 192.628 316.02 193.273 316.529 193.98C317.541 195.398 318.19 197.043 318.419 198.77C317.929 198.05 317.519 197.32 317.069 196.62C316.619 195.92 316.179 195.23 315.709 194.56C314.75 193.205 313.694 191.922 312.549 190.72Z" fill="#263238"/>
<path d="M308 251.47C309.357 251.964 310.649 252.619 311.85 253.42C313.058 254.207 314.211 255.075 315.3 256.02C316.387 256.956 317.415 257.958 318.38 259.02C319.343 260.09 320.225 261.23 321.02 262.43C318.84 260.54 316.79 258.6 314.65 256.75C313.59 255.82 312.5 254.92 311.4 254.03C310.3 253.14 309.14 252.29 308 251.47Z" fill="#37474F"/>
<path d="M271.18 206.18C271.739 208.075 272.482 209.91 273.4 211.66C273.83 212.55 274.3 213.42 274.77 214.29C275.24 215.16 275.77 216 276.28 216.83C276.79 217.66 277.33 218.5 277.88 219.32L279.55 221.76C280.74 223.34 281.89 224.94 283.16 226.46C285.59 229.58 288.28 232.46 290.96 235.38L295.11 239.62C296.52 241.01 297.96 242.37 299.36 243.77C297.84 242.5 296.36 241.18 294.85 239.89L290.54 235.78C287.725 232.964 285.054 230.007 282.54 226.92C280.031 223.832 277.758 220.559 275.74 217.13C273.675 213.732 272.137 210.04 271.18 206.18Z" fill="#37474F"/>
<path opacity="0.1" d="M283.869 173C281.376 175.946 279.334 179.245 277.809 182.79C276.272 186.269 275.364 189.994 275.129 193.79C274.943 197.556 275.532 201.32 276.859 204.85C277.536 206.61 278.348 208.315 279.289 209.95C280.219 211.62 281.229 213.25 282.289 214.84C284.418 218.033 286.729 221.101 289.209 224.03C291.669 227.03 294.289 229.82 296.969 232.6C299.649 235.38 302.449 238.05 305.299 240.65C308.149 243.25 311.079 245.81 314.069 248.28C307.597 243.952 301.511 239.074 295.879 233.7C290.168 228.374 285.058 222.438 280.639 216C279.552 214.373 278.532 212.707 277.579 211C276.599 209.268 275.763 207.459 275.079 205.59C273.727 201.809 273.212 197.78 273.569 193.78C274.434 185.852 278.083 178.489 283.869 173Z" fill="white"/>
<path d="M209.929 343.67C209.009 341.52 211.839 279.35 213.179 276.82C213.399 276.38 221.309 276.25 234.179 276.33C235.079 276.33 293.559 256.95 293.559 256.95L313.999 297.49L233.439 316.38C233.439 316.38 220.559 338.13 218.799 340.75C217.039 343.37 210.849 345.81 209.929 343.67Z" fill="#FFC727"/>
<path opacity="0.3" d="M313.999 297.49L301.209 300.49L282.529 260.61L293.559 257L313.999 297.49Z" fill="white"/>
<path d="M334.999 144.57C345.689 167.46 360.089 188.97 367.749 190C378.059 191.38 401.259 183.26 412.909 177.94C416.329 176.37 403.609 149.94 399.909 151.64C395.479 153.64 372.759 164.46 372.269 164.52C371.269 164.65 349.269 145.64 344.109 140.97C335.549 133.17 330.239 134.41 334.999 144.57Z" fill="#AD6359"/>
<path d="M430 169.05C425.5 173.4 412.81 178.68 409.26 178.78C405.71 178.88 396 157.6 397.67 154.37C399.34 151.14 415.67 137.68 422.03 137.1C428.39 136.52 434.64 164.54 430 169.05Z" fill="#AD6359"/>
<path d="M412.429 140C411.579 143.2 415.839 142.37 415.839 142.37C415.839 142.37 409.989 145.05 410.389 148.69C410.789 152.33 415.899 151.02 416.269 150.94C415.959 151.08 410.649 153.68 411.429 157.3C412.209 160.92 417.179 158.99 417.499 158.86C417.249 159.08 414.019 162.15 415.229 164.77C417.329 169.26 425.809 161.65 429.809 162.03C429.809 162.03 429.929 168.88 429.969 169.08C429.969 169.08 438.189 162 438.409 156.58C438.452 155.792 438.224 155.012 437.764 154.37C437.304 153.729 436.639 153.263 435.879 153.05C435.879 153.05 438.779 151.05 438.259 148.19C437.989 146.72 435.389 145.85 435.389 145.85C436.022 145.358 436.507 144.701 436.791 143.952C437.075 143.202 437.147 142.388 436.999 141.6C436.509 139.6 433.999 139.03 433.999 139.03C433.999 139.03 435.409 136.4 434.239 134.5C431.879 130.67 414.249 133.1 412.429 140Z" fill="#AD6359"/>
<path d="M433.61 138.88C433.623 138.88 433.636 138.875 433.646 138.866C433.655 138.856 433.66 138.843 433.66 138.83C433.66 138.817 433.655 138.804 433.646 138.795C433.636 138.785 433.623 138.78 433.61 138.78C427.386 138.124 421.109 139.372 415.61 142.36C415.43 142.46 415.52 142.78 415.73 142.71C421.473 140.574 427.496 139.284 433.61 138.88Z" fill="#263238"/>
<path d="M435.47 145.77C435.54 145.77 435.53 145.65 435.47 145.64C428.598 144.978 421.716 146.798 416.07 150.77C415.87 150.91 415.85 151.24 416.07 151.09C420 148.57 429.73 146.07 435.47 145.77Z" fill="#263238"/>
<path d="M417.199 159.26C422.759 155.43 428.989 153.77 435.629 152.98C435.709 152.98 435.689 152.85 435.629 152.84C432.269 152.34 428.089 153.28 424.899 154.29C421.922 155.172 419.226 156.816 417.079 159.06C416.999 159.15 417.089 159.34 417.199 159.26Z" fill="#263238"/>
<path d="M415.84 142.34C414.779 142.96 413.775 143.673 412.84 144.47C411.89 145.211 411.155 146.191 410.71 147.31C410.537 147.834 410.562 148.403 410.78 148.91C411.002 149.413 411.346 149.853 411.78 150.19C412.252 150.485 412.781 150.677 413.333 150.753C413.884 150.829 414.446 150.787 414.98 150.63L417.62 149.98L415.37 151.51C414.361 152.179 413.469 153.01 412.73 153.97C412.364 154.394 412.092 154.89 411.93 155.425C411.768 155.961 411.72 156.525 411.79 157.08C411.853 157.604 412.096 158.089 412.477 158.454C412.858 158.819 413.354 159.04 413.88 159.08C415.048 159.14 416.212 158.899 417.26 158.38L420.2 157L417.86 159.19C417.211 159.804 416.64 160.496 416.16 161.25C415.678 161.947 415.416 162.773 415.41 163.62C415.421 164.001 415.539 164.371 415.749 164.689C415.959 165.007 416.254 165.26 416.6 165.42C417.426 165.661 418.304 165.661 419.13 165.42C420.929 164.922 422.688 164.287 424.39 163.52C425.26 163.17 426.13 162.81 427.03 162.52C427.908 162.146 428.856 161.965 429.81 161.99C428.872 162.072 427.959 162.334 427.12 162.76C426.27 163.14 425.43 163.57 424.58 163.99C422.9 164.891 421.139 165.631 419.32 166.2C418.35 166.519 417.308 166.55 416.32 166.29C415.79 166.088 415.331 165.735 415 165.275C414.67 164.814 414.482 164.267 414.46 163.7C414.436 162.636 414.736 161.59 415.32 160.7C415.836 159.852 416.458 159.072 417.17 158.38L417.78 159.26C416.545 159.892 415.166 160.188 413.78 160.12C413.027 160.054 412.32 159.729 411.78 159.2C411.25 158.651 410.901 157.953 410.78 157.2C410.687 156.497 410.746 155.781 410.951 155.102C411.156 154.423 411.503 153.795 411.97 153.26C412.796 152.217 413.789 151.318 414.91 150.6L415.3 151.48C414.63 151.646 413.931 151.666 413.253 151.536C412.574 151.407 411.932 151.132 411.37 150.73C410.838 150.292 410.428 149.723 410.18 149.08C409.937 148.435 409.937 147.725 410.18 147.08C410.722 145.902 411.581 144.898 412.66 144.18C413.647 143.448 414.714 142.831 415.84 142.34Z" fill="#263238"/>
<path d="M400 151.59C400 151.59 410.31 127.11 417.9 135.83C420.16 138.42 426.33 151.75 423.68 153.05C420.25 154.71 416.68 149.63 414.88 146.05C414.88 146.05 412.54 154.87 405.88 155.05C404.677 155.066 403.493 154.752 402.457 154.142C401.42 153.532 400.57 152.649 400 151.59Z" fill="#AD6359"/>
<path d="M417.269 135.15C418.274 136.058 419.14 137.11 419.839 138.27C420.586 139.413 421.254 140.606 421.839 141.84C423.023 144.291 423.99 146.841 424.729 149.46C424.922 150.157 425.017 150.877 425.009 151.6C425.002 152.017 424.903 152.426 424.719 152.8C424.617 153.002 424.486 153.188 424.329 153.35C424.168 153.511 423.978 153.64 423.769 153.73C423.031 154.077 422.194 154.148 421.409 153.93C420.689 153.716 420.012 153.377 419.409 152.93C418.291 152.069 417.327 151.024 416.559 149.84C415.803 148.706 415.134 147.516 414.559 146.28L415.429 146.18C415.129 147.176 414.734 148.14 414.249 149.06C413.774 149.978 413.208 150.846 412.559 151.65C411.902 152.449 411.13 153.147 410.269 153.72C409.415 154.286 408.461 154.687 407.459 154.9C408.404 154.566 409.286 154.075 410.069 153.45C410.83 152.824 411.503 152.097 412.069 151.29C412.64 150.486 413.132 149.628 413.539 148.73C413.955 147.839 414.29 146.912 414.539 145.96L414.819 144.78L415.409 145.86C416.029 147.025 416.72 148.151 417.479 149.23C418.17 150.279 419.02 151.213 419.999 152C420.999 152.7 422.259 153.17 423.189 152.7C424.119 152.23 423.889 150.89 423.609 149.7C423.303 148.411 422.929 147.14 422.489 145.89C422.059 144.62 421.619 143.36 421.119 142.12C420.205 139.611 418.906 137.26 417.269 135.15Z" fill="#263238"/>
<path d="M383.618 158.74L392.798 187.93C392.798 187.93 371.928 192.68 365.648 189.62C359.368 186.56 343.148 164.93 336.108 148.81C329.068 132.69 334.468 131.31 347.808 143.2C361.148 155.09 371.809 163.58 372.289 163.44C372.769 163.3 383.618 158.74 383.618 158.74Z" fill="#FFC727"/>
<path d="M379.079 162.37C379.079 162.28 378.9 162.32 378.92 162.37C380.587 170.9 382.72 179.333 385.31 187.63C385.31 187.72 385.49 187.68 385.47 187.63C383.802 179.1 381.669 170.667 379.079 162.37Z" fill="#263238"/>
<path opacity="0.1" d="M355.559 179.79C348.619 171.29 340.559 158.96 336.109 148.79C330.399 135.79 332.859 132.35 341.109 137.84L355.559 179.79Z" fill="black"/>
<path d="M335.21 176.59L331.82 187.86L319.47 192.55L286 169C286 169 304.29 137 324.25 131.14C334.25 128.2 341.03 132.95 342.81 140.25C343.25 142.1 346.96 159.82 344.26 167.58C343.48 169.639 342.269 171.509 340.708 173.062C339.147 174.616 337.273 175.819 335.21 176.59Z" fill="#FFC727"/>
<path d="M322.309 168.55C324.283 169.449 326.165 170.538 327.929 171.8C328.809 172.45 329.649 173.15 330.479 173.89C330.899 174.25 331.319 174.59 331.749 174.94C332.178 175.305 332.66 175.602 333.179 175.82C333.229 175.82 333.179 175.93 333.179 175.92C332.671 175.795 332.176 175.624 331.699 175.41C331.234 175.179 330.792 174.904 330.379 174.59C329.479 173.95 328.619 173.24 327.719 172.59C325.929 171.26 324.129 169.93 322.239 168.78C322.119 168.72 322.209 168.51 322.309 168.55Z" fill="#263238"/>
<path d="M316.519 169.38C318.265 169.672 319.987 170.097 321.669 170.65C322.506 170.939 323.327 171.273 324.129 171.65L325.269 172.22C325.689 172.43 326.069 172.72 326.489 172.93C326.539 172.93 326.489 173.04 326.489 173.02C326.089 172.85 325.649 172.76 325.239 172.61L323.989 172.17C323.159 171.88 322.319 171.59 321.499 171.29C319.839 170.68 318.179 170.1 316.499 169.56C316.369 169.54 316.429 169.36 316.519 169.38Z" fill="#263238"/>
<path opacity="0.1" d="M334.089 165.02L324.219 150.47L325.069 145.48L343.949 153.63V156.82L334.089 165.02Z" fill="black"/>
<path opacity="0.1" d="M334.09 163.44L325.82 151.25L326.52 147.06L342.36 153.89V156.56L334.09 163.44Z" fill="black"/>
<path d="M321.629 127.85C296.869 125.1 276.859 128.13 271.719 133.23C267.469 137.46 253.609 156.47 247.309 168.31C245.549 171.64 271.879 187.31 273.309 183.51C275.529 177.69 291.519 150.11 291.709 149.65C292.099 148.65 318.139 141.31 324.709 139.65C336.919 136.73 334.759 129.31 321.629 127.85Z" fill="#AD6359"/>
<path d="M251.499 214C250.614 213.771 249.819 213.276 249.222 212.583C248.625 211.889 248.255 211.03 248.159 210.12C246.699 210.646 245.1 210.646 243.639 210.12C241.119 209.05 241.689 204.63 241.689 204.63C240.055 204.845 238.394 204.567 236.919 203.83C234.609 202.57 234.549 198.02 234.549 198.02C232.941 197.395 231.61 196.214 230.799 194.69C228.799 190.52 232.569 184.57 234.929 180.75C237.289 176.93 247.559 168.34 249.349 166.5L273.999 181.36C273.999 181.36 268.279 201.47 264.859 205.56C261.939 209 254.909 214.7 251.499 214Z" fill="#AD6359"/>
<path d="M248.66 210.14C252.6 207.21 255.45 203.28 258.52 199.51C258.59 199.43 258.46 199.32 258.39 199.41C255.39 203.19 251.66 206.32 248.5 209.97C248.41 210.07 248.56 210.22 248.66 210.14Z" fill="#263238"/>
<path d="M242.059 204.66C242.89 203.91 243.616 203.052 244.219 202.11C244.919 201.11 245.609 200.19 246.279 199.22C247.619 197.22 248.919 195.27 250.159 193.22C250.209 193.13 250.089 193.02 250.029 193.12C248.689 195.06 247.319 196.99 245.889 198.88C245.183 199.82 244.463 200.76 243.729 201.7C242.986 202.535 242.339 203.451 241.799 204.43C241.769 204.464 241.753 204.51 241.756 204.556C241.759 204.602 241.78 204.644 241.814 204.675C241.849 204.705 241.894 204.721 241.94 204.718C241.986 204.715 242.029 204.694 242.059 204.66Z" fill="#263238"/>
<path d="M234.609 197.86C235.349 197.171 235.965 196.359 236.429 195.46C237.029 194.56 237.619 193.66 238.229 192.76C239.429 190.97 240.639 189.17 241.909 187.42C241.969 187.34 241.839 187.23 241.779 187.32C240.479 189.09 239.159 190.85 237.879 192.63C237.249 193.51 236.619 194.38 235.999 195.27C235.359 196.022 234.858 196.882 234.519 197.81C234.499 197.86 234.569 197.89 234.609 197.86Z" fill="#263238"/>
<path d="M281.37 170.62L255 153.6C255 153.6 266.69 133.75 272.78 130.35C278.87 126.95 303.36 125.43 320.78 127.61C338.52 129.83 338.43 136.92 321.05 141.08C303.67 145.24 292.31 149.51 292.16 149.98C292.01 150.45 281.37 170.62 281.37 170.62Z" fill="#FFC727"/>
<path d="M283.289 167.57C284.839 164.79 292.289 150.13 292.499 150.03C292.929 149.82 299.669 147.45 301.669 146.75C303.369 146.15 305.079 145.58 306.789 145.02C308.199 144.89 309.609 144.76 310.999 144.5C311.02 144.5 311.041 144.492 311.056 144.477C311.071 144.462 311.079 144.441 311.079 144.42C311.079 144.399 311.071 144.378 311.056 144.363C311.041 144.348 311.02 144.34 310.999 144.34C310.025 144.359 309.053 144.442 308.089 144.59C309.969 143.98 311.849 143.38 313.719 142.76C313.719 142.76 313.719 142.69 313.719 142.7C309.529 143.64 292.169 149.07 292.109 149.31C292.049 149.55 283.219 166.92 283.109 167.31C283.079 167.42 283.239 167.65 283.289 167.57Z" fill="#263238"/>
<path d="M282.239 163C282.319 163.05 282.399 162.91 282.319 162.86C275.197 157.883 267.809 153.296 260.189 149.12C260.17 149.114 260.149 149.115 260.13 149.122C260.111 149.129 260.095 149.142 260.085 149.16C260.075 149.177 260.07 149.197 260.073 149.217C260.076 149.237 260.085 149.256 260.099 149.27C267.223 154.248 274.614 158.831 282.239 163Z" fill="#263238"/>
<path d="M324.648 128.22C324.648 128.22 329.168 144.59 335.908 146.37C342.648 148.15 345.478 141.19 345.478 141.19C345.478 141.19 337.698 129.72 324.648 128.22Z" fill="#AD6359"/>
<path d="M332.53 131.89C332.39 132.94 334.63 141 339.14 142.48C340.61 142.96 343.58 135.05 343.58 135.05L343.94 134.51L348.87 127.04L341.62 117.23L340.54 115.89C340.54 115.89 339.32 118.02 337.84 120.69L337.63 121.07C337.539 121.212 337.455 121.359 337.38 121.51C337.15 121.9 336.92 122.31 336.7 122.72C336.48 123.13 336.36 123.33 336.2 123.66L335.68 124.66C334.471 126.998 333.419 129.413 332.53 131.89Z" fill="#AD6359"/>
<path d="M337.839 120.69C337.789 123.299 338.308 125.887 339.362 128.274C340.416 130.661 341.978 132.79 343.939 134.51L348.869 127.04L341.619 117.23L340.539 115.89C340.539 115.89 339.319 118 337.839 120.69Z" fill="#263238"/>
<path d="M364.849 113.08C366.209 128.74 356.989 131.32 353.609 131.61C350.539 131.88 340.069 132.39 337.089 116.95C334.109 101.51 340.959 95.9501 347.939 94.9501C354.919 93.9501 363.479 97.4101 364.849 113.08Z" fill="#AD6359"/>
<path d="M357.329 121C356.949 121.682 356.402 122.257 355.739 122.67C355.368 122.878 354.942 122.968 354.519 122.93C353.599 122.83 353.449 122.02 353.519 121.29C353.55 120.908 353.631 120.532 353.759 120.17C354.832 120.816 356.081 121.107 357.329 121Z" fill="#263238"/>
<path d="M355.739 122.68C355.368 122.888 354.942 122.978 354.519 122.94C353.599 122.84 353.449 122.03 353.519 121.3C353.99 121.249 354.465 121.357 354.867 121.607C355.269 121.857 355.576 122.235 355.739 122.68Z" fill="#FF9BBC"/>
<path d="M360.309 110.89C359.959 111.01 359.609 111.07 359.259 111.16C358.9 111.305 358.505 111.334 358.129 111.24C358.017 111.185 357.927 111.094 357.872 110.982C357.818 110.869 357.803 110.742 357.829 110.62C357.911 110.388 358.053 110.183 358.242 110.024C358.43 109.866 358.657 109.761 358.899 109.72C359.382 109.566 359.905 109.594 360.369 109.8C360.471 109.853 360.555 109.935 360.612 110.035C360.669 110.135 360.696 110.249 360.689 110.364C360.683 110.479 360.644 110.59 360.576 110.683C360.509 110.776 360.416 110.848 360.309 110.89Z" fill="#263238"/>
<path d="M349.47 111.56C349.811 111.438 350.144 111.298 350.47 111.14C350.845 111.042 351.177 110.82 351.41 110.51C351.467 110.4 351.485 110.274 351.461 110.152C351.438 110.031 351.374 109.921 351.28 109.84C351.074 109.705 350.835 109.628 350.588 109.617C350.342 109.607 350.097 109.663 349.88 109.78C349.394 109.961 348.994 110.318 348.76 110.78C348.724 110.882 348.717 110.992 348.739 111.098C348.76 111.203 348.81 111.301 348.883 111.381C348.956 111.461 349.048 111.52 349.152 111.551C349.255 111.583 349.365 111.586 349.47 111.56Z" fill="#263238"/>
<path d="M351.729 114.56C351.729 114.56 351.649 114.62 351.659 114.66C351.809 115.72 351.809 116.96 350.879 117.42C350.879 117.42 350.879 117.49 350.879 117.48C352.059 117.19 351.999 115.54 351.729 114.56Z" fill="#263238"/>
<path d="M350.659 113.56C348.929 113.62 349.179 117.06 350.779 117.01C352.379 116.96 352.099 113.5 350.659 113.56Z" fill="#263238"/>
<path d="M349.999 113.79C349.719 114 349.449 114.37 349.079 114.43C348.709 114.49 348.319 114.16 348.029 113.84H347.969C347.969 114.5 348.309 115.16 349.029 115.21C349.749 115.26 350.099 114.63 350.219 113.96C350.229 113.87 350.109 113.7 349.999 113.79Z" fill="#263238"/>
<path d="M358.299 113.61C358.299 113.61 358.379 113.61 358.379 113.69C358.379 114.77 358.639 115.99 359.629 116.28V116.34C358.429 116.25 358.159 114.63 358.299 113.61Z" fill="#263238"/>
<path d="M359.179 112.43C360.889 112.19 361.239 115.62 359.659 115.85C358.079 116.08 357.739 112.63 359.179 112.43Z" fill="#263238"/>
<path d="M359.919 112.58C360.209 112.73 360.509 113.04 360.839 113.03C361.169 113.02 361.459 112.61 361.659 112.23C361.659 112.23 361.659 112.23 361.719 112.23C361.799 112.89 361.659 113.59 361.039 113.78C360.419 113.97 359.989 113.44 359.769 112.78C359.729 112.71 359.799 112.52 359.919 112.58Z" fill="#263238"/>
<path d="M352.92 123.21C353.18 123.45 353.44 123.79 353.83 123.81C354.23 123.791 354.621 123.689 354.98 123.51C354.834 123.725 354.632 123.897 354.396 124.006C354.16 124.116 353.898 124.158 353.64 124.13C353.419 124.081 353.219 123.967 353.064 123.803C352.909 123.639 352.806 123.433 352.77 123.21C352.77 123.19 352.777 123.171 352.792 123.157C352.806 123.143 352.825 123.135 352.845 123.135C352.864 123.135 352.884 123.143 352.898 123.157C352.912 123.171 352.92 123.19 352.92 123.21Z" fill="#263238"/>
<path d="M357.37 118.76C357.37 118.76 357.73 120.34 357.79 121.09C357.79 121.16 357.62 121.21 357.36 121.24C356.729 121.418 356.061 121.419 355.429 121.243C354.798 121.066 354.227 120.719 353.78 120.24C353.72 120.18 353.78 120.09 353.89 120.13C354.903 120.703 356.074 120.934 357.23 120.79C357.23 120.58 356.53 118.11 356.65 118.1C357.238 118.102 357.823 118.183 358.39 118.34C357.74 115.04 356.58 111.87 355.99 108.57C355.99 108.45 356.14 108.4 356.18 108.5C357.526 111.864 358.531 115.355 359.18 118.92C359.28 119.3 357.68 118.86 357.37 118.76Z" fill="#263238"/>
<path d="M338.429 117.68C340.979 117.68 341.149 112.32 341.149 112.32C341.149 112.32 346.299 111.95 347.439 104.41C347.461 106.643 346.828 108.833 345.619 110.71C345.619 110.71 354.619 109.05 357.869 101.17C357.869 101.17 356.639 105.17 355.319 106.64C357.571 105.76 359.457 104.142 360.669 102.05C360.669 102.05 362.589 106.32 363.899 107.43C363.899 107.43 362.319 91.5801 347.729 94.4301C347.729 94.4301 338.569 95.7401 335.809 103.29C333.049 110.84 338.429 117.68 338.429 117.68Z" fill="#263238"/>
<path d="M340.2 117.73C340.2 117.73 337 112.66 334.72 113.73C332.44 114.8 334.72 122.07 337.24 123.17C337.559 123.334 337.909 123.431 338.267 123.456C338.625 123.481 338.985 123.433 339.324 123.315C339.663 123.197 339.975 123.012 340.24 122.771C340.506 122.529 340.72 122.237 340.87 121.91L340.2 117.73Z" fill="#AD6359"/>
<path d="M335.409 115.84C335.409 115.84 335.359 115.84 335.409 115.91C337.199 116.73 338.089 118.48 338.679 120.27C338.58 120.082 338.442 119.917 338.274 119.787C338.106 119.657 337.912 119.565 337.706 119.517C337.499 119.468 337.284 119.465 337.076 119.507C336.868 119.549 336.671 119.635 336.499 119.76C336.449 119.76 336.499 119.87 336.549 119.86C336.876 119.776 337.221 119.794 337.538 119.912C337.854 120.03 338.127 120.242 338.319 120.52C338.639 120.988 338.904 121.491 339.109 122.02C339.189 122.18 339.489 122.11 339.429 121.92C339.569 119.54 337.909 116.19 335.409 115.84Z" fill="#263238"/>
<path d="M333.91 129.58C333.37 127.73 330.91 131.22 332.27 133.58C334.27 137.06 338.33 141.39 339.27 141.52C340.21 141.65 343.92 138.06 344.4 137.24C344.88 136.42 344.23 134.37 343.9 134.52C343.57 134.67 340.33 138.58 339.9 138.73C339.47 138.88 335.08 133.57 333.91 129.58Z" fill="#455A64"/>
<path d="M195.211 358.02L200.951 359.09L202.231 365.14L203.511 359.09L209.251 358.02L203.541 356.63L202.231 350.91L200.921 356.63L195.211 358.02Z" fill="#FFC727"/>
<path d="M238.561 108.68L244.301 109.74L245.591 115.79L246.871 109.74L252.611 108.67L246.891 107.28L245.591 101.56L244.281 107.28L238.561 108.68Z" fill="#FFC727"/>
<path d="M403.541 301.44L409.281 302.5L410.561 308.55L411.841 302.5L417.581 301.44L411.871 300.04L410.561 294.33L409.251 300.04L403.541 301.44Z" fill="#FFC727"/>
<path d="M350.221 236.28L355.961 237.34L357.241 243.4L358.521 237.34L364.261 236.28L358.551 234.88L357.241 229.17L355.931 234.88L350.221 236.28Z" fill="#FFC727"/>
<path d="M111.092 236.28L114.302 236.88L115.012 240.26L115.732 236.88L118.942 236.28L115.742 235.5L115.012 232.31L114.282 235.5L111.092 236.28Z" fill="#FFC727"/>
<path d="M417.441 217.49L420.651 218.09L421.371 221.47L422.081 218.09L425.291 217.49L422.101 216.71L421.371 213.52L420.631 216.71L417.441 217.49Z" fill="#FFC727"/>
<path d="M196.621 125.07L199.831 125.67L200.551 129.05L201.261 125.67L204.471 125.07L201.281 124.29L200.551 121.1L199.821 124.29L196.621 125.07Z" fill="#FFC727"/>
<path d="M129.602 297.12L132.812 297.71L133.532 301.09L134.242 297.71L137.452 297.12L134.252 296.33L133.532 293.14L132.792 296.33L129.602 297.12Z" fill="#FFC727"/>
<path d="M74.7109 164.94L77.9209 165.53L78.6309 168.91L79.3509 165.53L82.5609 164.94L79.3609 164.16L78.6309 160.96L77.9009 164.16L74.7109 164.94Z" fill="#FFC727"/>
<path d="M168.051 168.92L171.261 169.51L171.981 172.89L172.701 169.51L175.911 168.91L172.711 168.13L171.981 164.94L171.251 168.13L168.051 168.92Z" fill="#FFC727"/>
<path d="M333.852 100.49L337.052 101.09L337.772 104.47L338.492 101.09L341.702 100.49L338.502 99.71L337.772 96.52L337.042 99.71L333.852 100.49Z" fill="#FFC727"/>
<path d="M377.111 152.84L380.311 153.44L381.031 156.82L381.751 153.44L384.951 152.84L381.761 152.06L381.031 148.87L380.301 152.06L377.111 152.84Z" fill="#FFC727"/>
<path d="M327.922 322.58L331.132 323.17L331.852 326.56L332.562 323.17L335.772 322.58L332.582 321.8L331.852 318.6L331.112 321.8L327.922 322.58Z" fill="#FFC727"/>
<path d="M172.272 301.79C172.518 301.79 172.755 301.888 172.929 302.062C173.104 302.237 173.202 302.473 173.202 302.72C173.202 302.967 173.104 303.203 172.929 303.378C172.755 303.552 172.518 303.65 172.272 303.65C172.025 303.65 171.789 303.552 171.614 303.378C171.44 303.203 171.342 302.967 171.342 302.72C171.342 302.473 171.44 302.237 171.614 302.062C171.789 301.888 172.025 301.79 172.272 301.79Z" fill="#FFC727"/>
<path d="M174.602 186C174.849 186 175.085 186.098 175.259 186.272C175.434 186.447 175.532 186.683 175.532 186.93C175.532 187.177 175.434 187.413 175.259 187.588C175.085 187.762 174.849 187.86 174.602 187.86C174.355 187.86 174.119 187.762 173.944 187.588C173.77 187.413 173.672 187.177 173.672 186.93C173.672 186.683 173.77 186.447 173.944 186.272C174.119 186.098 174.355 186 174.602 186Z" fill="#FFC727"/>
<path d="M303.441 117.76C303.67 117.784 303.882 117.892 304.036 118.062C304.19 118.233 304.275 118.455 304.275 118.685C304.275 118.915 304.19 119.137 304.036 119.308C303.882 119.478 303.67 119.586 303.441 119.61C303.212 119.586 303.001 119.478 302.847 119.308C302.693 119.137 302.607 118.915 302.607 118.685C302.607 118.455 302.693 118.233 302.847 118.062C303.001 117.892 303.212 117.784 303.441 117.76Z" fill="#FFC727"/>
<path d="M351.801 216.56C352.048 216.56 352.284 216.658 352.459 216.832C352.633 217.007 352.731 217.243 352.731 217.49C352.731 217.737 352.633 217.973 352.459 218.148C352.284 218.322 352.048 218.42 351.801 218.42C351.554 218.42 351.318 218.322 351.143 218.148C350.969 217.973 350.871 217.737 350.871 217.49C350.871 217.243 350.969 217.007 351.143 216.832C351.318 216.658 351.554 216.56 351.801 216.56Z" fill="#FFC727"/>
<path d="M385.522 270C385.768 270 386.005 270.098 386.179 270.272C386.354 270.447 386.452 270.683 386.452 270.93C386.452 271.177 386.354 271.413 386.179 271.588C386.005 271.762 385.768 271.86 385.522 271.86C385.275 271.86 385.039 271.762 384.864 271.588C384.69 271.413 384.592 271.177 384.592 270.93C384.592 270.683 384.69 270.447 384.864 270.272C385.039 270.098 385.275 270 385.522 270Z" fill="#FFC727"/>
<path d="M418.771 259.73C418.946 259.73 419.114 259.8 419.238 259.923C419.362 260.047 419.431 260.215 419.431 260.39C419.431 260.565 419.362 260.733 419.238 260.857C419.114 260.98 418.946 261.05 418.771 261.05C418.596 261.05 418.428 260.98 418.305 260.857C418.181 260.733 418.111 260.565 418.111 260.39C418.111 260.215 418.181 260.047 418.305 259.923C418.428 259.8 418.596 259.73 418.771 259.73Z" fill="#FFC727"/>
<path d="M368.762 140.86C368.937 140.86 369.104 140.93 369.228 141.053C369.352 141.177 369.422 141.345 369.422 141.52C369.422 141.695 369.352 141.863 369.228 141.987C369.104 142.111 368.937 142.18 368.762 142.18C368.587 142.18 368.419 142.111 368.295 141.987C368.171 141.863 368.102 141.695 368.102 141.52C368.102 141.345 368.171 141.177 368.295 141.053C368.419 140.93 368.587 140.86 368.762 140.86Z" fill="#FFC727"/>
<path d="M268.93 212.3C269.09 212.32 269.237 212.397 269.344 212.518C269.451 212.639 269.509 212.794 269.509 212.955C269.509 213.116 269.451 213.272 269.344 213.392C269.237 213.513 269.09 213.59 268.93 213.61C268.771 213.59 268.624 213.513 268.517 213.392C268.41 213.272 268.352 213.116 268.352 212.955C268.352 212.794 268.41 212.639 268.517 212.518C268.624 212.397 268.771 212.32 268.93 212.3Z" fill="#FFC727"/>
<path d="M352.351 342.8C352.526 342.8 352.694 342.87 352.818 342.993C352.942 343.117 353.011 343.285 353.011 343.46C353.011 343.635 352.942 343.803 352.818 343.927C352.694 344.051 352.526 344.12 352.351 344.12C352.176 344.12 352.008 344.051 351.885 343.927C351.761 343.803 351.691 343.635 351.691 343.46C351.691 343.285 351.761 343.117 351.885 342.993C352.008 342.87 352.176 342.8 352.351 342.8Z" fill="#FFC727"/>
<path d="M248.381 330.56C248.831 330.594 249.252 330.796 249.559 331.128C249.867 331.459 250.037 331.893 250.037 332.345C250.037 332.797 249.867 333.232 249.559 333.563C249.252 333.894 248.831 334.096 248.381 334.13C247.931 334.096 247.51 333.894 247.202 333.563C246.895 333.232 246.725 332.797 246.725 332.345C246.725 331.893 246.895 331.459 247.202 331.128C247.51 330.796 247.931 330.594 248.381 330.56Z" fill="#FFC727"/>
<path d="M133.52 244.06C133.992 244.06 134.445 244.248 134.779 244.581C135.113 244.915 135.3 245.368 135.3 245.84C135.3 246.312 135.113 246.765 134.779 247.099C134.445 247.433 133.992 247.62 133.52 247.62C133.048 247.62 132.595 247.433 132.262 247.099C131.928 246.765 131.74 246.312 131.74 245.84C131.74 245.368 131.928 244.915 132.262 244.581C132.595 244.248 133.048 244.06 133.52 244.06Z" fill="#FFC727"/>
<path d="M226.731 96.1001C227.203 96.1001 227.656 96.2876 227.99 96.6215C228.324 96.9553 228.511 97.408 228.511 97.8801C228.511 98.3522 228.324 98.8049 227.99 99.1387C227.656 99.4726 227.203 99.6601 226.731 99.6601C226.259 99.6601 225.806 99.4726 225.473 99.1387C225.139 98.8049 224.951 98.3522 224.951 97.8801C224.951 97.408 225.139 96.9553 225.473 96.6215C225.806 96.2876 226.259 96.1001 226.731 96.1001Z" fill="#FFC727"/>
<path d="M323.721 91.29C324.171 91.3238 324.592 91.5265 324.899 91.8575C325.206 92.1885 325.377 92.6234 325.377 93.075C325.377 93.5266 325.206 93.9615 324.899 94.2926C324.592 94.6236 324.171 94.8263 323.721 94.86C323.27 94.8263 322.849 94.6236 322.542 94.2926C322.235 93.9615 322.064 93.5266 322.064 93.075C322.064 92.6234 322.235 92.1885 322.542 91.8575C322.849 91.5265 323.27 91.3238 323.721 91.29Z" fill="#FFC727"/>
<path d="M294.891 343.91C295.341 343.944 295.762 344.147 296.069 344.478C296.376 344.809 296.547 345.244 296.547 345.695C296.547 346.147 296.376 346.582 296.069 346.913C295.762 347.244 295.341 347.446 294.891 347.48C294.44 347.446 294.019 347.244 293.712 346.913C293.405 346.582 293.234 346.147 293.234 345.695C293.234 345.244 293.405 344.809 293.712 344.478C294.019 344.147 294.44 343.944 294.891 343.91Z" fill="#FFC727"/>
</svg>
